G75*
%MOIN*%
%OFA0B0*%
%FSLAX24Y24*%
%IPPOS*%
%LPD*%
%AMOC8*
5,1,8,0,0,1.08239X$1,22.5*
%
%ADD10C,0.0080*%
%ADD11C,0.0120*%
%ADD12C,0.0050*%
%ADD13C,0.0090*%
%ADD14C,0.0060*%
D10*
X004968Y003136D02*
X005038Y003066D01*
X005178Y003066D01*
X005248Y003136D01*
X005108Y003276D02*
X005038Y003276D01*
X004968Y003206D01*
X004968Y003136D01*
X005038Y003276D02*
X004968Y003346D01*
X004968Y003416D01*
X005038Y003486D01*
X005178Y003486D01*
X005248Y003416D01*
X005248Y005366D02*
X004968Y005366D01*
X005248Y005366D02*
X004968Y005646D01*
X004968Y005716D01*
X005038Y005786D01*
X005178Y005786D01*
X005248Y005716D01*
X008318Y005366D02*
X008598Y005366D01*
X008458Y005366D02*
X008458Y005786D01*
X008598Y005646D01*
X008528Y003486D02*
X008388Y003486D01*
X008318Y003416D01*
X008598Y003136D01*
X008528Y003066D01*
X008388Y003066D01*
X008318Y003136D01*
X008318Y003416D01*
X008528Y003486D02*
X008598Y003416D01*
X008598Y003136D01*
X013235Y003136D02*
X013305Y003066D01*
X013445Y003066D01*
X013516Y003136D01*
X013375Y003276D02*
X013305Y003276D01*
X013235Y003206D01*
X013235Y003136D01*
X013305Y003276D02*
X013235Y003346D01*
X013235Y003416D01*
X013305Y003486D01*
X013445Y003486D01*
X013516Y003416D01*
X013516Y005366D02*
X013235Y005366D01*
X013235Y005646D02*
X013235Y005716D01*
X013305Y005786D01*
X013445Y005786D01*
X013516Y005716D01*
X013235Y005646D02*
X013516Y005366D01*
X016585Y005366D02*
X016866Y005366D01*
X016725Y005366D02*
X016725Y005786D01*
X016866Y005646D01*
X016795Y003486D02*
X016655Y003486D01*
X016585Y003416D01*
X016866Y003136D01*
X016795Y003066D01*
X016655Y003066D01*
X016585Y003136D01*
X016585Y003416D01*
X016795Y003486D02*
X016866Y003416D01*
X016866Y003136D01*
X021503Y003136D02*
X021573Y003066D01*
X021713Y003066D01*
X021783Y003136D01*
X021643Y003276D02*
X021573Y003276D01*
X021503Y003206D01*
X021503Y003136D01*
X021573Y003276D02*
X021503Y003346D01*
X021503Y003416D01*
X021573Y003486D01*
X021713Y003486D01*
X021783Y003416D01*
X021783Y005366D02*
X021503Y005646D01*
X021503Y005716D01*
X021573Y005786D01*
X021713Y005786D01*
X021783Y005716D01*
X021783Y005366D02*
X021503Y005366D01*
X024853Y005366D02*
X025133Y005366D01*
X024993Y005366D02*
X024993Y005786D01*
X025133Y005646D01*
X025063Y003486D02*
X024923Y003486D01*
X024853Y003416D01*
X025133Y003136D01*
X025063Y003066D01*
X024923Y003066D01*
X024853Y003136D01*
X024853Y003416D01*
X025063Y003486D02*
X025133Y003416D01*
X025133Y003136D01*
X029771Y003136D02*
X029841Y003066D01*
X029981Y003066D01*
X030051Y003136D01*
X029911Y003276D02*
X029841Y003276D01*
X029771Y003206D01*
X029771Y003136D01*
X029841Y003276D02*
X029771Y003346D01*
X029771Y003416D01*
X029841Y003486D01*
X029981Y003486D01*
X030051Y003416D01*
X030051Y005366D02*
X029771Y005366D01*
X029771Y005646D02*
X029771Y005716D01*
X029841Y005786D01*
X029981Y005786D01*
X030051Y005716D01*
X029771Y005646D02*
X030051Y005366D01*
X033121Y005366D02*
X033401Y005366D01*
X033261Y005366D02*
X033261Y005786D01*
X033401Y005646D01*
X033331Y003486D02*
X033191Y003486D01*
X033121Y003416D01*
X033401Y003136D01*
X033331Y003066D01*
X033191Y003066D01*
X033121Y003136D01*
X033121Y003416D01*
X033331Y003486D02*
X033401Y003416D01*
X033401Y003136D01*
X033331Y011302D02*
X033401Y011372D01*
X033121Y011652D01*
X033121Y011372D01*
X033191Y011302D01*
X033331Y011302D01*
X033401Y011372D02*
X033401Y011652D01*
X033331Y011722D01*
X033191Y011722D01*
X033121Y011652D01*
X033121Y013602D02*
X033401Y013602D01*
X033261Y013602D02*
X033261Y014022D01*
X033401Y013882D01*
X030051Y013952D02*
X029981Y014022D01*
X029841Y014022D01*
X029771Y013952D01*
X029771Y013882D01*
X030051Y013602D01*
X029771Y013602D01*
X029841Y011722D02*
X029771Y011652D01*
X029771Y011582D01*
X029841Y011512D01*
X029771Y011442D01*
X029771Y011372D01*
X029841Y011302D01*
X029981Y011302D01*
X030051Y011372D01*
X029911Y011512D02*
X029841Y011512D01*
X029841Y011722D02*
X029981Y011722D01*
X030051Y011652D01*
X025133Y011652D02*
X025133Y011372D01*
X024853Y011652D01*
X024853Y011372D01*
X024923Y011302D01*
X025063Y011302D01*
X025133Y011372D01*
X025133Y011652D02*
X025063Y011722D01*
X024923Y011722D01*
X024853Y011652D01*
X024853Y013602D02*
X025133Y013602D01*
X024993Y013602D02*
X024993Y014022D01*
X025133Y013882D01*
X021783Y013952D02*
X021713Y014022D01*
X021573Y014022D01*
X021503Y013952D01*
X021503Y013882D01*
X021783Y013602D01*
X021503Y013602D01*
X021573Y011722D02*
X021503Y011652D01*
X021503Y011582D01*
X021573Y011512D01*
X021503Y011442D01*
X021503Y011372D01*
X021573Y011302D01*
X021713Y011302D01*
X021783Y011372D01*
X021643Y011512D02*
X021573Y011512D01*
X021573Y011722D02*
X021713Y011722D01*
X021783Y011652D01*
X016866Y011652D02*
X016866Y011372D01*
X016585Y011652D01*
X016585Y011372D01*
X016655Y011302D01*
X016795Y011302D01*
X016866Y011372D01*
X016866Y011652D02*
X016795Y011722D01*
X016655Y011722D01*
X016585Y011652D01*
X016585Y013602D02*
X016866Y013602D01*
X016725Y013602D02*
X016725Y014022D01*
X016866Y013882D01*
X013516Y013952D02*
X013445Y014022D01*
X013305Y014022D01*
X013235Y013952D01*
X013235Y013882D01*
X013516Y013602D01*
X013235Y013602D01*
X013305Y011722D02*
X013235Y011652D01*
X013235Y011582D01*
X013305Y011512D01*
X013235Y011442D01*
X013235Y011372D01*
X013305Y011302D01*
X013445Y011302D01*
X013516Y011372D01*
X013375Y011512D02*
X013305Y011512D01*
X013305Y011722D02*
X013445Y011722D01*
X013516Y011652D01*
X008598Y011652D02*
X008598Y011372D01*
X008318Y011652D01*
X008318Y011372D01*
X008388Y011302D01*
X008528Y011302D01*
X008598Y011372D01*
X008598Y011652D02*
X008528Y011722D01*
X008388Y011722D01*
X008318Y011652D01*
X008318Y013602D02*
X008598Y013602D01*
X008458Y013602D02*
X008458Y014022D01*
X008598Y013882D01*
X005248Y013952D02*
X005178Y014022D01*
X005038Y014022D01*
X004968Y013952D01*
X004968Y013882D01*
X005248Y013602D01*
X004968Y013602D01*
X005038Y011722D02*
X004968Y011652D01*
X004968Y011582D01*
X005038Y011512D01*
X004968Y011442D01*
X004968Y011372D01*
X005038Y011302D01*
X005178Y011302D01*
X005248Y011372D01*
X005108Y011512D02*
X005038Y011512D01*
X005038Y011722D02*
X005178Y011722D01*
X005248Y011652D01*
X005178Y019538D02*
X005248Y019608D01*
X005178Y019538D02*
X005038Y019538D01*
X004968Y019608D01*
X004968Y019678D01*
X005038Y019748D01*
X005108Y019748D01*
X005038Y019748D02*
X004968Y019818D01*
X004968Y019888D01*
X005038Y019958D01*
X005178Y019958D01*
X005248Y019888D01*
X005248Y021838D02*
X004968Y021838D01*
X005248Y021838D02*
X004968Y022118D01*
X004968Y022188D01*
X005038Y022258D01*
X005178Y022258D01*
X005248Y022188D01*
X008318Y021838D02*
X008598Y021838D01*
X008458Y021838D02*
X008458Y022258D01*
X008598Y022118D01*
X008528Y019958D02*
X008388Y019958D01*
X008318Y019888D01*
X008598Y019608D01*
X008528Y019538D01*
X008388Y019538D01*
X008318Y019608D01*
X008318Y019888D01*
X008528Y019958D02*
X008598Y019888D01*
X008598Y019608D01*
X013235Y019608D02*
X013305Y019538D01*
X013445Y019538D01*
X013516Y019608D01*
X013375Y019748D02*
X013305Y019748D01*
X013235Y019678D01*
X013235Y019608D01*
X013305Y019748D02*
X013235Y019818D01*
X013235Y019888D01*
X013305Y019958D01*
X013445Y019958D01*
X013516Y019888D01*
X013516Y021838D02*
X013235Y021838D01*
X013235Y022118D02*
X013235Y022188D01*
X013305Y022258D01*
X013445Y022258D01*
X013516Y022188D01*
X013235Y022118D02*
X013516Y021838D01*
X016585Y021838D02*
X016866Y021838D01*
X016725Y021838D02*
X016725Y022258D01*
X016866Y022118D01*
X016795Y019958D02*
X016655Y019958D01*
X016585Y019888D01*
X016866Y019608D01*
X016795Y019538D01*
X016655Y019538D01*
X016585Y019608D01*
X016585Y019888D01*
X016795Y019958D02*
X016866Y019888D01*
X016866Y019608D01*
X021503Y019608D02*
X021573Y019538D01*
X021713Y019538D01*
X021783Y019608D01*
X021643Y019748D02*
X021573Y019748D01*
X021503Y019678D01*
X021503Y019608D01*
X021573Y019748D02*
X021503Y019818D01*
X021503Y019888D01*
X021573Y019958D01*
X021713Y019958D01*
X021783Y019888D01*
X021783Y021838D02*
X021503Y022118D01*
X021503Y022188D01*
X021573Y022258D01*
X021713Y022258D01*
X021783Y022188D01*
X021783Y021838D02*
X021503Y021838D01*
X024853Y021838D02*
X025133Y021838D01*
X024993Y021838D02*
X024993Y022258D01*
X025133Y022118D01*
X025063Y019958D02*
X024923Y019958D01*
X024853Y019888D01*
X025133Y019608D01*
X025063Y019538D01*
X024923Y019538D01*
X024853Y019608D01*
X024853Y019888D01*
X025063Y019958D02*
X025133Y019888D01*
X025133Y019608D01*
X029771Y019608D02*
X029841Y019538D01*
X029981Y019538D01*
X030051Y019608D01*
X029911Y019748D02*
X029841Y019748D01*
X029771Y019678D01*
X029771Y019608D01*
X029841Y019748D02*
X029771Y019818D01*
X029771Y019888D01*
X029841Y019958D01*
X029981Y019958D01*
X030051Y019888D01*
X030051Y021838D02*
X029771Y021838D01*
X030051Y021838D02*
X029771Y022118D01*
X029771Y022188D01*
X029841Y022258D01*
X029981Y022258D01*
X030051Y022188D01*
X033121Y021838D02*
X033401Y021838D01*
X033261Y021838D02*
X033261Y022258D01*
X033401Y022118D01*
X033331Y019958D02*
X033191Y019958D01*
X033121Y019888D01*
X033401Y019608D01*
X033331Y019538D01*
X033191Y019538D01*
X033121Y019608D01*
X033121Y019888D01*
X033331Y019958D02*
X033401Y019888D01*
X033401Y019608D01*
D11*
X032391Y021698D02*
X032391Y022048D01*
X024123Y022048D02*
X024123Y021698D01*
X015856Y021698D02*
X015856Y022048D01*
X007588Y022048D02*
X007588Y021698D01*
X007588Y013812D02*
X007588Y013462D01*
X015856Y013462D02*
X015856Y013812D01*
X024123Y013812D02*
X024123Y013462D01*
X032391Y013462D02*
X032391Y013812D01*
X032391Y005576D02*
X032391Y005226D01*
X024123Y005226D02*
X024123Y005576D01*
X015856Y005576D02*
X015856Y005226D01*
X007588Y005226D02*
X007588Y005576D01*
D12*
X004975Y002794D02*
X004975Y002594D01*
X004975Y002744D02*
X005175Y002744D01*
X005175Y002794D02*
X005175Y002594D01*
X005297Y002644D02*
X005347Y002594D01*
X005447Y002594D01*
X005497Y002644D01*
X005497Y002845D01*
X005447Y002895D01*
X005347Y002895D01*
X005297Y002845D01*
X005175Y002794D02*
X005075Y002895D01*
X004975Y002794D01*
X005935Y002644D02*
X005985Y002644D01*
X005985Y002594D01*
X005935Y002594D01*
X005935Y002644D01*
X005935Y002594D02*
X006035Y002494D01*
X006157Y002594D02*
X006307Y002594D01*
X006357Y002644D01*
X006307Y002694D01*
X006157Y002694D01*
X006157Y002744D02*
X006157Y002594D01*
X006157Y002744D02*
X006207Y002794D01*
X006307Y002794D01*
X006479Y002744D02*
X006479Y002594D01*
X006479Y002744D02*
X006529Y002794D01*
X006679Y002794D01*
X006679Y002594D01*
X006801Y002694D02*
X007001Y002694D01*
X007001Y002644D02*
X007001Y002744D01*
X006951Y002794D01*
X006851Y002794D01*
X006801Y002744D01*
X006801Y002694D01*
X006851Y002594D02*
X006951Y002594D01*
X007001Y002644D01*
X007124Y002594D02*
X007274Y002594D01*
X007324Y002644D01*
X007324Y002744D01*
X007274Y002794D01*
X007124Y002794D01*
X007124Y002895D02*
X007124Y002594D01*
X007446Y002594D02*
X007596Y002594D01*
X007646Y002644D01*
X007596Y002694D01*
X007446Y002694D01*
X007446Y002744D02*
X007446Y002594D01*
X007446Y002744D02*
X007496Y002794D01*
X007596Y002794D01*
X007768Y002794D02*
X007918Y002794D01*
X007968Y002744D01*
X007918Y002694D01*
X007818Y002694D01*
X007768Y002644D01*
X007818Y002594D01*
X007968Y002594D01*
X008090Y002594D02*
X008240Y002594D01*
X008291Y002644D01*
X008240Y002694D01*
X008090Y002694D01*
X008090Y002744D02*
X008090Y002594D01*
X008090Y002744D02*
X008140Y002794D01*
X008240Y002794D01*
X008413Y002845D02*
X008413Y002744D01*
X008463Y002694D01*
X008613Y002694D01*
X008613Y002594D02*
X008613Y002895D01*
X008463Y002895D01*
X008413Y002845D01*
X008468Y003851D02*
X008418Y003901D01*
X008418Y004051D01*
X008518Y003901D02*
X008468Y003851D01*
X008518Y003901D02*
X008568Y003851D01*
X008618Y003901D01*
X008618Y004051D01*
X008740Y004051D02*
X008740Y003901D01*
X008790Y003851D01*
X008840Y003901D01*
X008890Y003851D01*
X008941Y003901D01*
X008941Y004051D01*
X009063Y004051D02*
X009063Y003901D01*
X009113Y003851D01*
X009163Y003901D01*
X009213Y003851D01*
X009263Y003901D01*
X009263Y004051D01*
X008296Y003901D02*
X008246Y003901D01*
X008246Y003851D01*
X008296Y003851D01*
X008296Y003901D01*
X008135Y003901D02*
X008085Y003951D01*
X007935Y003951D01*
X007935Y004001D02*
X007935Y003851D01*
X008085Y003851D01*
X008135Y003901D01*
X008085Y004051D02*
X007985Y004051D01*
X007935Y004001D01*
X007813Y004001D02*
X007813Y003901D01*
X007763Y003851D01*
X007612Y003851D01*
X007490Y003851D02*
X007490Y004051D01*
X007390Y004051D02*
X007340Y004051D01*
X007390Y004051D02*
X007490Y003951D01*
X007612Y004051D02*
X007763Y004051D01*
X007813Y004001D01*
X007222Y004001D02*
X007222Y003901D01*
X007172Y003851D01*
X007072Y003851D01*
X007022Y003901D01*
X007022Y004001D01*
X007072Y004051D01*
X007172Y004051D01*
X007222Y004001D01*
X006899Y004051D02*
X006749Y004051D01*
X006699Y004001D01*
X006699Y003901D01*
X006749Y003851D01*
X006899Y003851D01*
X006899Y004151D01*
X006577Y004001D02*
X006527Y004051D01*
X006427Y004051D01*
X006377Y004001D01*
X006377Y003901D01*
X006427Y003851D01*
X006527Y003851D01*
X006577Y003901D01*
X006577Y004001D01*
X006255Y004051D02*
X006155Y004051D01*
X006205Y004101D02*
X006205Y003901D01*
X006155Y003851D01*
X006040Y003851D02*
X005940Y003851D01*
X005990Y003851D02*
X005990Y004051D01*
X006040Y004051D01*
X005990Y004151D02*
X005990Y004201D01*
X005825Y004001D02*
X005775Y004051D01*
X005625Y004051D01*
X005503Y003901D02*
X005453Y003901D01*
X005453Y003851D01*
X005503Y003851D01*
X005503Y003901D01*
X005625Y003851D02*
X005775Y003851D01*
X005825Y003901D01*
X005825Y004001D01*
X005342Y004001D02*
X005342Y003901D01*
X005292Y003851D01*
X005142Y003851D01*
X005020Y003901D02*
X004969Y003851D01*
X004869Y003851D01*
X004819Y003901D01*
X004819Y004001D01*
X004869Y004051D01*
X004969Y004051D01*
X005020Y004001D01*
X005020Y003901D01*
X005142Y004051D02*
X005292Y004051D01*
X005342Y004001D01*
X004697Y004051D02*
X004647Y004051D01*
X004597Y004001D01*
X004547Y004051D01*
X004497Y004001D01*
X004497Y003851D01*
X004597Y003851D02*
X004597Y004001D01*
X004697Y004051D02*
X004697Y003851D01*
X004776Y007057D02*
X004863Y007107D01*
X004881Y007175D01*
X004607Y007249D01*
X004708Y007075D01*
X004776Y007057D01*
X004881Y007175D02*
X004781Y007349D01*
X004712Y007367D01*
X004626Y007317D01*
X004607Y007249D01*
X004977Y007231D02*
X005002Y007187D01*
X005045Y007212D01*
X005020Y007256D01*
X004977Y007231D01*
X005151Y007274D02*
X005325Y007374D01*
X005238Y007324D02*
X005088Y007584D01*
X005224Y007547D01*
X005330Y007608D02*
X005517Y007485D01*
X005504Y007708D01*
X006035Y010730D02*
X005935Y010831D01*
X005985Y010831D01*
X005985Y010881D01*
X005935Y010881D01*
X005935Y010831D01*
X006157Y010831D02*
X006157Y010981D01*
X006207Y011031D01*
X006307Y011031D01*
X006307Y010931D02*
X006157Y010931D01*
X006157Y010831D02*
X006307Y010831D01*
X006357Y010881D01*
X006307Y010931D01*
X006479Y010981D02*
X006479Y010831D01*
X006479Y010981D02*
X006529Y011031D01*
X006679Y011031D01*
X006679Y010831D01*
X006801Y010931D02*
X007001Y010931D01*
X007001Y010981D02*
X006951Y011031D01*
X006851Y011031D01*
X006801Y010981D01*
X006801Y010931D01*
X006851Y010831D02*
X006951Y010831D01*
X007001Y010881D01*
X007001Y010981D01*
X007124Y011031D02*
X007274Y011031D01*
X007324Y010981D01*
X007324Y010881D01*
X007274Y010831D01*
X007124Y010831D01*
X007124Y011131D01*
X007446Y010981D02*
X007446Y010831D01*
X007596Y010831D01*
X007646Y010881D01*
X007596Y010931D01*
X007446Y010931D01*
X007446Y010981D02*
X007496Y011031D01*
X007596Y011031D01*
X007768Y011031D02*
X007918Y011031D01*
X007968Y010981D01*
X007918Y010931D01*
X007818Y010931D01*
X007768Y010881D01*
X007818Y010831D01*
X007968Y010831D01*
X008090Y010831D02*
X008090Y010981D01*
X008140Y011031D01*
X008240Y011031D01*
X008240Y010931D02*
X008090Y010931D01*
X008090Y010831D02*
X008240Y010831D01*
X008291Y010881D01*
X008240Y010931D01*
X008413Y010981D02*
X008463Y010931D01*
X008613Y010931D01*
X008613Y010831D02*
X008613Y011131D01*
X008463Y011131D01*
X008413Y011081D01*
X008413Y010981D01*
X008468Y012087D02*
X008418Y012137D01*
X008418Y012287D01*
X008518Y012137D02*
X008468Y012087D01*
X008518Y012137D02*
X008568Y012087D01*
X008618Y012137D01*
X008618Y012287D01*
X008740Y012287D02*
X008740Y012137D01*
X008790Y012087D01*
X008840Y012137D01*
X008890Y012087D01*
X008941Y012137D01*
X008941Y012287D01*
X009063Y012287D02*
X009063Y012137D01*
X009113Y012087D01*
X009163Y012137D01*
X009213Y012087D01*
X009263Y012137D01*
X009263Y012287D01*
X008296Y012137D02*
X008296Y012087D01*
X008246Y012087D01*
X008246Y012137D01*
X008296Y012137D01*
X008135Y012137D02*
X008085Y012187D01*
X007935Y012187D01*
X007935Y012237D02*
X007935Y012087D01*
X008085Y012087D01*
X008135Y012137D01*
X008085Y012287D02*
X007985Y012287D01*
X007935Y012237D01*
X007813Y012237D02*
X007813Y012137D01*
X007763Y012087D01*
X007612Y012087D01*
X007490Y012087D02*
X007490Y012287D01*
X007390Y012287D02*
X007340Y012287D01*
X007390Y012287D02*
X007490Y012187D01*
X007612Y012287D02*
X007763Y012287D01*
X007813Y012237D01*
X007222Y012237D02*
X007222Y012137D01*
X007172Y012087D01*
X007072Y012087D01*
X007022Y012137D01*
X007022Y012237D01*
X007072Y012287D01*
X007172Y012287D01*
X007222Y012237D01*
X006899Y012287D02*
X006749Y012287D01*
X006699Y012237D01*
X006699Y012137D01*
X006749Y012087D01*
X006899Y012087D01*
X006899Y012387D01*
X006577Y012237D02*
X006577Y012137D01*
X006527Y012087D01*
X006427Y012087D01*
X006377Y012137D01*
X006377Y012237D01*
X006427Y012287D01*
X006527Y012287D01*
X006577Y012237D01*
X006255Y012287D02*
X006155Y012287D01*
X006205Y012337D02*
X006205Y012137D01*
X006155Y012087D01*
X006040Y012087D02*
X005940Y012087D01*
X005990Y012087D02*
X005990Y012287D01*
X006040Y012287D01*
X005990Y012387D02*
X005990Y012437D01*
X005825Y012237D02*
X005825Y012137D01*
X005775Y012087D01*
X005625Y012087D01*
X005503Y012087D02*
X005453Y012087D01*
X005453Y012137D01*
X005503Y012137D01*
X005503Y012087D01*
X005342Y012137D02*
X005292Y012087D01*
X005142Y012087D01*
X005020Y012137D02*
X004969Y012087D01*
X004869Y012087D01*
X004819Y012137D01*
X004819Y012237D01*
X004869Y012287D01*
X004969Y012287D01*
X005020Y012237D01*
X005020Y012137D01*
X005142Y012287D02*
X005292Y012287D01*
X005342Y012237D01*
X005342Y012137D01*
X005625Y012287D02*
X005775Y012287D01*
X005825Y012237D01*
X004697Y012287D02*
X004697Y012087D01*
X004597Y012087D02*
X004597Y012237D01*
X004547Y012287D01*
X004497Y012237D01*
X004497Y012087D01*
X004597Y012237D02*
X004647Y012287D01*
X004697Y012287D01*
X005075Y011131D02*
X004975Y011031D01*
X004975Y010831D01*
X004975Y010981D02*
X005175Y010981D01*
X005175Y011031D02*
X005075Y011131D01*
X005175Y011031D02*
X005175Y010831D01*
X005297Y010881D02*
X005347Y010831D01*
X005447Y010831D01*
X005497Y010881D01*
X005497Y011081D01*
X005447Y011131D01*
X005347Y011131D01*
X005297Y011081D01*
X004776Y015293D02*
X004863Y015343D01*
X004881Y015411D01*
X004607Y015485D01*
X004708Y015311D01*
X004776Y015293D01*
X004881Y015411D02*
X004781Y015585D01*
X004712Y015603D01*
X004626Y015553D01*
X004607Y015485D01*
X004977Y015467D02*
X005002Y015424D01*
X005045Y015449D01*
X005020Y015492D01*
X004977Y015467D01*
X005151Y015510D02*
X005325Y015610D01*
X005238Y015560D02*
X005088Y015820D01*
X005224Y015783D01*
X005330Y015844D02*
X005517Y015721D01*
X005504Y015944D01*
X006035Y018967D02*
X005935Y019067D01*
X005985Y019067D01*
X005985Y019117D01*
X005935Y019117D01*
X005935Y019067D01*
X006157Y019067D02*
X006157Y019217D01*
X006207Y019267D01*
X006307Y019267D01*
X006307Y019167D02*
X006157Y019167D01*
X006157Y019067D02*
X006307Y019067D01*
X006357Y019117D01*
X006307Y019167D01*
X006479Y019217D02*
X006479Y019067D01*
X006479Y019217D02*
X006529Y019267D01*
X006679Y019267D01*
X006679Y019067D01*
X006801Y019167D02*
X007001Y019167D01*
X007001Y019117D02*
X007001Y019217D01*
X006951Y019267D01*
X006851Y019267D01*
X006801Y019217D01*
X006801Y019167D01*
X006851Y019067D02*
X006951Y019067D01*
X007001Y019117D01*
X007124Y019067D02*
X007274Y019067D01*
X007324Y019117D01*
X007324Y019217D01*
X007274Y019267D01*
X007124Y019267D01*
X007124Y019367D02*
X007124Y019067D01*
X007446Y019067D02*
X007446Y019217D01*
X007496Y019267D01*
X007596Y019267D01*
X007596Y019167D02*
X007446Y019167D01*
X007446Y019067D02*
X007596Y019067D01*
X007646Y019117D01*
X007596Y019167D01*
X007768Y019117D02*
X007818Y019167D01*
X007918Y019167D01*
X007968Y019217D01*
X007918Y019267D01*
X007768Y019267D01*
X007768Y019117D02*
X007818Y019067D01*
X007968Y019067D01*
X008090Y019067D02*
X008090Y019217D01*
X008140Y019267D01*
X008240Y019267D01*
X008240Y019167D02*
X008090Y019167D01*
X008090Y019067D02*
X008240Y019067D01*
X008291Y019117D01*
X008240Y019167D01*
X008413Y019217D02*
X008463Y019167D01*
X008613Y019167D01*
X008613Y019067D02*
X008613Y019367D01*
X008463Y019367D01*
X008413Y019317D01*
X008413Y019217D01*
X008468Y020323D02*
X008418Y020373D01*
X008418Y020523D01*
X008518Y020373D02*
X008468Y020323D01*
X008518Y020373D02*
X008568Y020323D01*
X008618Y020373D01*
X008618Y020523D01*
X008740Y020523D02*
X008740Y020373D01*
X008790Y020323D01*
X008840Y020373D01*
X008890Y020323D01*
X008941Y020373D01*
X008941Y020523D01*
X009063Y020523D02*
X009063Y020373D01*
X009113Y020323D01*
X009163Y020373D01*
X009213Y020323D01*
X009263Y020373D01*
X009263Y020523D01*
X008296Y020373D02*
X008246Y020373D01*
X008246Y020323D01*
X008296Y020323D01*
X008296Y020373D01*
X008135Y020373D02*
X008085Y020423D01*
X007935Y020423D01*
X007935Y020473D02*
X007935Y020323D01*
X008085Y020323D01*
X008135Y020373D01*
X008085Y020523D02*
X007985Y020523D01*
X007935Y020473D01*
X007813Y020473D02*
X007813Y020373D01*
X007763Y020323D01*
X007612Y020323D01*
X007490Y020323D02*
X007490Y020523D01*
X007390Y020523D02*
X007340Y020523D01*
X007390Y020523D02*
X007490Y020423D01*
X007612Y020523D02*
X007763Y020523D01*
X007813Y020473D01*
X007222Y020473D02*
X007222Y020373D01*
X007172Y020323D01*
X007072Y020323D01*
X007022Y020373D01*
X007022Y020473D01*
X007072Y020523D01*
X007172Y020523D01*
X007222Y020473D01*
X006899Y020523D02*
X006749Y020523D01*
X006699Y020473D01*
X006699Y020373D01*
X006749Y020323D01*
X006899Y020323D01*
X006899Y020623D01*
X006577Y020473D02*
X006527Y020523D01*
X006427Y020523D01*
X006377Y020473D01*
X006377Y020373D01*
X006427Y020323D01*
X006527Y020323D01*
X006577Y020373D01*
X006577Y020473D01*
X006255Y020523D02*
X006155Y020523D01*
X006205Y020573D02*
X006205Y020373D01*
X006155Y020323D01*
X006040Y020323D02*
X005940Y020323D01*
X005990Y020323D02*
X005990Y020523D01*
X006040Y020523D01*
X005990Y020623D02*
X005990Y020673D01*
X005825Y020473D02*
X005775Y020523D01*
X005625Y020523D01*
X005503Y020373D02*
X005453Y020373D01*
X005453Y020323D01*
X005503Y020323D01*
X005503Y020373D01*
X005625Y020323D02*
X005775Y020323D01*
X005825Y020373D01*
X005825Y020473D01*
X005342Y020473D02*
X005342Y020373D01*
X005292Y020323D01*
X005142Y020323D01*
X005020Y020373D02*
X004969Y020323D01*
X004869Y020323D01*
X004819Y020373D01*
X004819Y020473D01*
X004869Y020523D01*
X004969Y020523D01*
X005020Y020473D01*
X005020Y020373D01*
X005142Y020523D02*
X005292Y020523D01*
X005342Y020473D01*
X004697Y020523D02*
X004647Y020523D01*
X004597Y020473D01*
X004547Y020523D01*
X004497Y020473D01*
X004497Y020323D01*
X004597Y020323D02*
X004597Y020473D01*
X004697Y020523D02*
X004697Y020323D01*
X005075Y019367D02*
X004975Y019267D01*
X004975Y019067D01*
X004975Y019217D02*
X005175Y019217D01*
X005175Y019267D02*
X005075Y019367D01*
X005175Y019267D02*
X005175Y019067D01*
X005297Y019117D02*
X005347Y019067D01*
X005447Y019067D01*
X005497Y019117D01*
X005497Y019317D01*
X005447Y019367D01*
X005347Y019367D01*
X005297Y019317D01*
X004776Y023529D02*
X004863Y023579D01*
X004881Y023648D01*
X004607Y023721D01*
X004708Y023548D01*
X004776Y023529D01*
X004881Y023648D02*
X004781Y023821D01*
X004712Y023839D01*
X004626Y023789D01*
X004607Y023721D01*
X004977Y023703D02*
X005002Y023660D01*
X005045Y023685D01*
X005020Y023728D01*
X004977Y023703D01*
X005151Y023746D02*
X005325Y023846D01*
X005238Y023796D02*
X005088Y024056D01*
X005224Y024019D01*
X005330Y024080D02*
X005517Y023957D01*
X005504Y024181D01*
X012875Y023721D02*
X013149Y023648D01*
X013130Y023579D01*
X013044Y023529D01*
X012975Y023548D01*
X012875Y023721D01*
X012893Y023789D01*
X012980Y023839D01*
X013049Y023821D01*
X013149Y023648D01*
X013245Y023703D02*
X013270Y023660D01*
X013313Y023685D01*
X013288Y023728D01*
X013245Y023703D01*
X013419Y023746D02*
X013592Y023846D01*
X013506Y023796D02*
X013355Y024056D01*
X013492Y024019D01*
X013598Y024080D02*
X013785Y023957D01*
X013771Y024181D01*
X014258Y020673D02*
X014258Y020623D01*
X014258Y020523D02*
X014258Y020323D01*
X014308Y020323D02*
X014208Y020323D01*
X014093Y020373D02*
X014043Y020323D01*
X013893Y020323D01*
X013771Y020323D02*
X013721Y020323D01*
X013721Y020373D01*
X013771Y020373D01*
X013771Y020323D01*
X013610Y020373D02*
X013559Y020323D01*
X013409Y020323D01*
X013287Y020373D02*
X013237Y020323D01*
X013137Y020323D01*
X013087Y020373D01*
X013087Y020473D01*
X013137Y020523D01*
X013237Y020523D01*
X013287Y020473D01*
X013287Y020373D01*
X013409Y020523D02*
X013559Y020523D01*
X013610Y020473D01*
X013610Y020373D01*
X013893Y020523D02*
X014043Y020523D01*
X014093Y020473D01*
X014093Y020373D01*
X014258Y020523D02*
X014308Y020523D01*
X014423Y020523D02*
X014523Y020523D01*
X014473Y020573D02*
X014473Y020373D01*
X014423Y020323D01*
X014645Y020373D02*
X014645Y020473D01*
X014695Y020523D01*
X014795Y020523D01*
X014845Y020473D01*
X014845Y020373D01*
X014795Y020323D01*
X014695Y020323D01*
X014645Y020373D01*
X014967Y020373D02*
X014967Y020473D01*
X015017Y020523D01*
X015167Y020523D01*
X015167Y020623D02*
X015167Y020323D01*
X015017Y020323D01*
X014967Y020373D01*
X015289Y020373D02*
X015289Y020473D01*
X015339Y020523D01*
X015439Y020523D01*
X015489Y020473D01*
X015489Y020373D01*
X015439Y020323D01*
X015339Y020323D01*
X015289Y020373D01*
X015608Y020523D02*
X015658Y020523D01*
X015758Y020423D01*
X015758Y020323D02*
X015758Y020523D01*
X015880Y020523D02*
X016030Y020523D01*
X016080Y020473D01*
X016080Y020373D01*
X016030Y020323D01*
X015880Y020323D01*
X016202Y020323D02*
X016353Y020323D01*
X016403Y020373D01*
X016353Y020423D01*
X016202Y020423D01*
X016202Y020473D02*
X016202Y020323D01*
X016202Y020473D02*
X016252Y020523D01*
X016353Y020523D01*
X016514Y020373D02*
X016514Y020323D01*
X016564Y020323D01*
X016564Y020373D01*
X016514Y020373D01*
X016686Y020373D02*
X016686Y020523D01*
X016686Y020373D02*
X016736Y020323D01*
X016786Y020373D01*
X016836Y020323D01*
X016886Y020373D01*
X016886Y020523D01*
X017008Y020523D02*
X017008Y020373D01*
X017058Y020323D01*
X017108Y020373D01*
X017158Y020323D01*
X017208Y020373D01*
X017208Y020523D01*
X017330Y020523D02*
X017330Y020373D01*
X017380Y020323D01*
X017430Y020373D01*
X017480Y020323D01*
X017531Y020373D01*
X017531Y020523D01*
X016881Y019367D02*
X016730Y019367D01*
X016680Y019317D01*
X016680Y019217D01*
X016730Y019167D01*
X016881Y019167D01*
X016881Y019067D02*
X016881Y019367D01*
X016508Y019267D02*
X016408Y019267D01*
X016358Y019217D01*
X016358Y019067D01*
X016508Y019067D01*
X016558Y019117D01*
X016508Y019167D01*
X016358Y019167D01*
X016236Y019217D02*
X016186Y019167D01*
X016086Y019167D01*
X016036Y019117D01*
X016086Y019067D01*
X016236Y019067D01*
X016236Y019217D02*
X016186Y019267D01*
X016036Y019267D01*
X015864Y019267D02*
X015764Y019267D01*
X015714Y019217D01*
X015714Y019067D01*
X015864Y019067D01*
X015914Y019117D01*
X015864Y019167D01*
X015714Y019167D01*
X015591Y019117D02*
X015591Y019217D01*
X015541Y019267D01*
X015391Y019267D01*
X015391Y019367D02*
X015391Y019067D01*
X015541Y019067D01*
X015591Y019117D01*
X015269Y019117D02*
X015269Y019217D01*
X015219Y019267D01*
X015119Y019267D01*
X015069Y019217D01*
X015069Y019167D01*
X015269Y019167D01*
X015269Y019117D02*
X015219Y019067D01*
X015119Y019067D01*
X014947Y019067D02*
X014947Y019267D01*
X014797Y019267D01*
X014747Y019217D01*
X014747Y019067D01*
X014625Y019117D02*
X014575Y019167D01*
X014424Y019167D01*
X014424Y019217D02*
X014424Y019067D01*
X014575Y019067D01*
X014625Y019117D01*
X014575Y019267D02*
X014474Y019267D01*
X014424Y019217D01*
X014252Y019117D02*
X014252Y019067D01*
X014202Y019067D01*
X014202Y019117D01*
X014252Y019117D01*
X014202Y019067D02*
X014302Y018967D01*
X013765Y019117D02*
X013715Y019067D01*
X013615Y019067D01*
X013565Y019117D01*
X013443Y019067D02*
X013443Y019267D01*
X013343Y019367D01*
X013243Y019267D01*
X013243Y019067D01*
X013243Y019217D02*
X013443Y019217D01*
X013565Y019317D02*
X013615Y019367D01*
X013715Y019367D01*
X013765Y019317D01*
X013765Y019117D01*
X012965Y020323D02*
X012965Y020523D01*
X012915Y020523D01*
X012865Y020473D01*
X012815Y020523D01*
X012765Y020473D01*
X012765Y020323D01*
X012865Y020323D02*
X012865Y020473D01*
X013771Y015944D02*
X013785Y015721D01*
X013598Y015844D01*
X013492Y015783D02*
X013355Y015820D01*
X013506Y015560D01*
X013592Y015610D02*
X013419Y015510D01*
X013313Y015449D02*
X013270Y015424D01*
X013245Y015467D01*
X013288Y015492D01*
X013313Y015449D01*
X013149Y015411D02*
X012875Y015485D01*
X012975Y015311D01*
X013044Y015293D01*
X013130Y015343D01*
X013149Y015411D01*
X013049Y015585D01*
X012980Y015603D01*
X012893Y015553D01*
X012875Y015485D01*
X014258Y012437D02*
X014258Y012387D01*
X014258Y012287D02*
X014258Y012087D01*
X014308Y012087D02*
X014208Y012087D01*
X014093Y012137D02*
X014043Y012087D01*
X013893Y012087D01*
X013771Y012087D02*
X013771Y012137D01*
X013721Y012137D01*
X013721Y012087D01*
X013771Y012087D01*
X013610Y012137D02*
X013559Y012087D01*
X013409Y012087D01*
X013287Y012137D02*
X013237Y012087D01*
X013137Y012087D01*
X013087Y012137D01*
X013087Y012237D01*
X013137Y012287D01*
X013237Y012287D01*
X013287Y012237D01*
X013287Y012137D01*
X013409Y012287D02*
X013559Y012287D01*
X013610Y012237D01*
X013610Y012137D01*
X013893Y012287D02*
X014043Y012287D01*
X014093Y012237D01*
X014093Y012137D01*
X014258Y012287D02*
X014308Y012287D01*
X014423Y012287D02*
X014523Y012287D01*
X014473Y012337D02*
X014473Y012137D01*
X014423Y012087D01*
X014645Y012137D02*
X014645Y012237D01*
X014695Y012287D01*
X014795Y012287D01*
X014845Y012237D01*
X014845Y012137D01*
X014795Y012087D01*
X014695Y012087D01*
X014645Y012137D01*
X014967Y012137D02*
X014967Y012237D01*
X015017Y012287D01*
X015167Y012287D01*
X015167Y012387D02*
X015167Y012087D01*
X015017Y012087D01*
X014967Y012137D01*
X015289Y012137D02*
X015339Y012087D01*
X015439Y012087D01*
X015489Y012137D01*
X015489Y012237D01*
X015439Y012287D01*
X015339Y012287D01*
X015289Y012237D01*
X015289Y012137D01*
X015608Y012287D02*
X015658Y012287D01*
X015758Y012187D01*
X015758Y012087D02*
X015758Y012287D01*
X015880Y012287D02*
X016030Y012287D01*
X016080Y012237D01*
X016080Y012137D01*
X016030Y012087D01*
X015880Y012087D01*
X016202Y012087D02*
X016202Y012237D01*
X016252Y012287D01*
X016353Y012287D01*
X016353Y012187D02*
X016202Y012187D01*
X016202Y012087D02*
X016353Y012087D01*
X016403Y012137D01*
X016353Y012187D01*
X016514Y012137D02*
X016514Y012087D01*
X016564Y012087D01*
X016564Y012137D01*
X016514Y012137D01*
X016686Y012137D02*
X016686Y012287D01*
X016686Y012137D02*
X016736Y012087D01*
X016786Y012137D01*
X016836Y012087D01*
X016886Y012137D01*
X016886Y012287D01*
X017008Y012287D02*
X017008Y012137D01*
X017058Y012087D01*
X017108Y012137D01*
X017158Y012087D01*
X017208Y012137D01*
X017208Y012287D01*
X017330Y012287D02*
X017330Y012137D01*
X017380Y012087D01*
X017430Y012137D01*
X017480Y012087D01*
X017531Y012137D01*
X017531Y012287D01*
X016881Y011131D02*
X016730Y011131D01*
X016680Y011081D01*
X016680Y010981D01*
X016730Y010931D01*
X016881Y010931D01*
X016881Y010831D02*
X016881Y011131D01*
X016508Y011031D02*
X016408Y011031D01*
X016358Y010981D01*
X016358Y010831D01*
X016508Y010831D01*
X016558Y010881D01*
X016508Y010931D01*
X016358Y010931D01*
X016236Y010981D02*
X016186Y011031D01*
X016036Y011031D01*
X016086Y010931D02*
X016186Y010931D01*
X016236Y010981D01*
X016236Y010831D02*
X016086Y010831D01*
X016036Y010881D01*
X016086Y010931D01*
X015914Y010881D02*
X015864Y010931D01*
X015714Y010931D01*
X015714Y010981D02*
X015714Y010831D01*
X015864Y010831D01*
X015914Y010881D01*
X015864Y011031D02*
X015764Y011031D01*
X015714Y010981D01*
X015591Y010981D02*
X015541Y011031D01*
X015391Y011031D01*
X015391Y011131D02*
X015391Y010831D01*
X015541Y010831D01*
X015591Y010881D01*
X015591Y010981D01*
X015269Y010981D02*
X015219Y011031D01*
X015119Y011031D01*
X015069Y010981D01*
X015069Y010931D01*
X015269Y010931D01*
X015269Y010881D02*
X015269Y010981D01*
X015269Y010881D02*
X015219Y010831D01*
X015119Y010831D01*
X014947Y010831D02*
X014947Y011031D01*
X014797Y011031D01*
X014747Y010981D01*
X014747Y010831D01*
X014625Y010881D02*
X014575Y010931D01*
X014424Y010931D01*
X014424Y010981D02*
X014424Y010831D01*
X014575Y010831D01*
X014625Y010881D01*
X014575Y011031D02*
X014474Y011031D01*
X014424Y010981D01*
X014252Y010881D02*
X014252Y010831D01*
X014202Y010831D01*
X014202Y010881D01*
X014252Y010881D01*
X014202Y010831D02*
X014302Y010730D01*
X013765Y010881D02*
X013715Y010831D01*
X013615Y010831D01*
X013565Y010881D01*
X013443Y010831D02*
X013443Y011031D01*
X013343Y011131D01*
X013243Y011031D01*
X013243Y010831D01*
X013243Y010981D02*
X013443Y010981D01*
X013565Y011081D02*
X013615Y011131D01*
X013715Y011131D01*
X013765Y011081D01*
X013765Y010881D01*
X012965Y012087D02*
X012965Y012287D01*
X012915Y012287D01*
X012865Y012237D01*
X012815Y012287D01*
X012765Y012237D01*
X012765Y012087D01*
X012865Y012087D02*
X012865Y012237D01*
X013771Y007708D02*
X013785Y007485D01*
X013598Y007608D01*
X013492Y007547D02*
X013355Y007584D01*
X013506Y007324D01*
X013592Y007374D02*
X013419Y007274D01*
X013313Y007212D02*
X013270Y007187D01*
X013245Y007231D01*
X013288Y007256D01*
X013313Y007212D01*
X013149Y007175D02*
X012875Y007249D01*
X012975Y007075D01*
X013044Y007057D01*
X013130Y007107D01*
X013149Y007175D01*
X013049Y007349D01*
X012980Y007367D01*
X012893Y007317D01*
X012875Y007249D01*
X012915Y004051D02*
X012865Y004001D01*
X012815Y004051D01*
X012765Y004001D01*
X012765Y003851D01*
X012865Y003851D02*
X012865Y004001D01*
X012915Y004051D02*
X012965Y004051D01*
X012965Y003851D01*
X013087Y003901D02*
X013087Y004001D01*
X013137Y004051D01*
X013237Y004051D01*
X013287Y004001D01*
X013287Y003901D01*
X013237Y003851D01*
X013137Y003851D01*
X013087Y003901D01*
X013409Y003851D02*
X013559Y003851D01*
X013610Y003901D01*
X013610Y004001D01*
X013559Y004051D01*
X013409Y004051D01*
X013721Y003901D02*
X013721Y003851D01*
X013771Y003851D01*
X013771Y003901D01*
X013721Y003901D01*
X013893Y003851D02*
X014043Y003851D01*
X014093Y003901D01*
X014093Y004001D01*
X014043Y004051D01*
X013893Y004051D01*
X014258Y004051D02*
X014258Y003851D01*
X014308Y003851D02*
X014208Y003851D01*
X014258Y004051D02*
X014308Y004051D01*
X014258Y004151D02*
X014258Y004201D01*
X014423Y004051D02*
X014523Y004051D01*
X014473Y004101D02*
X014473Y003901D01*
X014423Y003851D01*
X014645Y003901D02*
X014645Y004001D01*
X014695Y004051D01*
X014795Y004051D01*
X014845Y004001D01*
X014845Y003901D01*
X014795Y003851D01*
X014695Y003851D01*
X014645Y003901D01*
X014967Y003901D02*
X014967Y004001D01*
X015017Y004051D01*
X015167Y004051D01*
X015167Y004151D02*
X015167Y003851D01*
X015017Y003851D01*
X014967Y003901D01*
X015289Y003901D02*
X015289Y004001D01*
X015339Y004051D01*
X015439Y004051D01*
X015489Y004001D01*
X015489Y003901D01*
X015439Y003851D01*
X015339Y003851D01*
X015289Y003901D01*
X015608Y004051D02*
X015658Y004051D01*
X015758Y003951D01*
X015758Y003851D02*
X015758Y004051D01*
X015880Y004051D02*
X016030Y004051D01*
X016080Y004001D01*
X016080Y003901D01*
X016030Y003851D01*
X015880Y003851D01*
X016202Y003851D02*
X016353Y003851D01*
X016403Y003901D01*
X016353Y003951D01*
X016202Y003951D01*
X016202Y004001D02*
X016202Y003851D01*
X016202Y004001D02*
X016252Y004051D01*
X016353Y004051D01*
X016514Y003901D02*
X016514Y003851D01*
X016564Y003851D01*
X016564Y003901D01*
X016514Y003901D01*
X016686Y003901D02*
X016686Y004051D01*
X016686Y003901D02*
X016736Y003851D01*
X016786Y003901D01*
X016836Y003851D01*
X016886Y003901D01*
X016886Y004051D01*
X017008Y004051D02*
X017008Y003901D01*
X017058Y003851D01*
X017108Y003901D01*
X017158Y003851D01*
X017208Y003901D01*
X017208Y004051D01*
X017330Y004051D02*
X017330Y003901D01*
X017380Y003851D01*
X017430Y003901D01*
X017480Y003851D01*
X017531Y003901D01*
X017531Y004051D01*
X016881Y002895D02*
X016730Y002895D01*
X016680Y002845D01*
X016680Y002744D01*
X016730Y002694D01*
X016881Y002694D01*
X016881Y002594D02*
X016881Y002895D01*
X016508Y002794D02*
X016408Y002794D01*
X016358Y002744D01*
X016358Y002594D01*
X016508Y002594D01*
X016558Y002644D01*
X016508Y002694D01*
X016358Y002694D01*
X016236Y002744D02*
X016186Y002794D01*
X016036Y002794D01*
X016086Y002694D02*
X016186Y002694D01*
X016236Y002744D01*
X016236Y002594D02*
X016086Y002594D01*
X016036Y002644D01*
X016086Y002694D01*
X015914Y002644D02*
X015864Y002694D01*
X015714Y002694D01*
X015714Y002744D02*
X015714Y002594D01*
X015864Y002594D01*
X015914Y002644D01*
X015864Y002794D02*
X015764Y002794D01*
X015714Y002744D01*
X015591Y002744D02*
X015541Y002794D01*
X015391Y002794D01*
X015391Y002895D02*
X015391Y002594D01*
X015541Y002594D01*
X015591Y002644D01*
X015591Y002744D01*
X015269Y002744D02*
X015219Y002794D01*
X015119Y002794D01*
X015069Y002744D01*
X015069Y002694D01*
X015269Y002694D01*
X015269Y002644D02*
X015269Y002744D01*
X015269Y002644D02*
X015219Y002594D01*
X015119Y002594D01*
X014947Y002594D02*
X014947Y002794D01*
X014797Y002794D01*
X014747Y002744D01*
X014747Y002594D01*
X014625Y002644D02*
X014575Y002694D01*
X014424Y002694D01*
X014424Y002744D02*
X014424Y002594D01*
X014575Y002594D01*
X014625Y002644D01*
X014575Y002794D02*
X014474Y002794D01*
X014424Y002744D01*
X014252Y002644D02*
X014252Y002594D01*
X014202Y002594D01*
X014202Y002644D01*
X014252Y002644D01*
X014202Y002594D02*
X014302Y002494D01*
X013765Y002644D02*
X013765Y002845D01*
X013715Y002895D01*
X013615Y002895D01*
X013565Y002845D01*
X013443Y002794D02*
X013343Y002895D01*
X013243Y002794D01*
X013243Y002594D01*
X013243Y002744D02*
X013443Y002744D01*
X013443Y002794D02*
X013443Y002594D01*
X013565Y002644D02*
X013615Y002594D01*
X013715Y002594D01*
X013765Y002644D01*
X021032Y003851D02*
X021032Y004001D01*
X021083Y004051D01*
X021133Y004001D01*
X021133Y003851D01*
X021233Y003851D02*
X021233Y004051D01*
X021183Y004051D01*
X021133Y004001D01*
X021355Y004001D02*
X021405Y004051D01*
X021505Y004051D01*
X021555Y004001D01*
X021555Y003901D01*
X021505Y003851D01*
X021405Y003851D01*
X021355Y003901D01*
X021355Y004001D01*
X021677Y004051D02*
X021827Y004051D01*
X021877Y004001D01*
X021877Y003901D01*
X021827Y003851D01*
X021677Y003851D01*
X021988Y003851D02*
X022038Y003851D01*
X022038Y003901D01*
X021988Y003901D01*
X021988Y003851D01*
X022160Y003851D02*
X022311Y003851D01*
X022361Y003901D01*
X022361Y004001D01*
X022311Y004051D01*
X022160Y004051D01*
X022525Y004051D02*
X022525Y003851D01*
X022575Y003851D02*
X022475Y003851D01*
X022525Y004051D02*
X022575Y004051D01*
X022525Y004151D02*
X022525Y004201D01*
X022690Y004051D02*
X022790Y004051D01*
X022740Y004101D02*
X022740Y003901D01*
X022690Y003851D01*
X022912Y003901D02*
X022912Y004001D01*
X022962Y004051D01*
X023063Y004051D01*
X023113Y004001D01*
X023113Y003901D01*
X023063Y003851D01*
X022962Y003851D01*
X022912Y003901D01*
X023235Y003901D02*
X023235Y004001D01*
X023285Y004051D01*
X023435Y004051D01*
X023435Y004151D02*
X023435Y003851D01*
X023285Y003851D01*
X023235Y003901D01*
X023557Y003901D02*
X023557Y004001D01*
X023607Y004051D01*
X023707Y004051D01*
X023757Y004001D01*
X023757Y003901D01*
X023707Y003851D01*
X023607Y003851D01*
X023557Y003901D01*
X023876Y004051D02*
X023926Y004051D01*
X024026Y003951D01*
X024026Y003851D02*
X024026Y004051D01*
X024148Y004051D02*
X024298Y004051D01*
X024348Y004001D01*
X024348Y003901D01*
X024298Y003851D01*
X024148Y003851D01*
X024470Y003851D02*
X024620Y003851D01*
X024670Y003901D01*
X024620Y003951D01*
X024470Y003951D01*
X024470Y004001D02*
X024470Y003851D01*
X024470Y004001D02*
X024520Y004051D01*
X024620Y004051D01*
X024781Y003901D02*
X024781Y003851D01*
X024831Y003851D01*
X024831Y003901D01*
X024781Y003901D01*
X024954Y003901D02*
X024954Y004051D01*
X024954Y003901D02*
X025004Y003851D01*
X025054Y003901D01*
X025104Y003851D01*
X025154Y003901D01*
X025154Y004051D01*
X025276Y004051D02*
X025276Y003901D01*
X025326Y003851D01*
X025376Y003901D01*
X025426Y003851D01*
X025476Y003901D01*
X025476Y004051D01*
X025598Y004051D02*
X025598Y003901D01*
X025648Y003851D01*
X025698Y003901D01*
X025748Y003851D01*
X025798Y003901D01*
X025798Y004051D01*
X025148Y002895D02*
X024998Y002895D01*
X024948Y002845D01*
X024948Y002744D01*
X024998Y002694D01*
X025148Y002694D01*
X025148Y002594D02*
X025148Y002895D01*
X024776Y002794D02*
X024676Y002794D01*
X024626Y002744D01*
X024626Y002594D01*
X024776Y002594D01*
X024826Y002644D01*
X024776Y002694D01*
X024626Y002694D01*
X024504Y002744D02*
X024454Y002794D01*
X024304Y002794D01*
X024354Y002694D02*
X024454Y002694D01*
X024504Y002744D01*
X024504Y002594D02*
X024354Y002594D01*
X024304Y002644D01*
X024354Y002694D01*
X024181Y002644D02*
X024131Y002694D01*
X023981Y002694D01*
X023981Y002744D02*
X023981Y002594D01*
X024131Y002594D01*
X024181Y002644D01*
X024131Y002794D02*
X024031Y002794D01*
X023981Y002744D01*
X023859Y002744D02*
X023809Y002794D01*
X023659Y002794D01*
X023659Y002895D02*
X023659Y002594D01*
X023809Y002594D01*
X023859Y002644D01*
X023859Y002744D01*
X023537Y002744D02*
X023487Y002794D01*
X023387Y002794D01*
X023337Y002744D01*
X023337Y002694D01*
X023537Y002694D01*
X023537Y002644D02*
X023537Y002744D01*
X023537Y002644D02*
X023487Y002594D01*
X023387Y002594D01*
X023215Y002594D02*
X023215Y002794D01*
X023064Y002794D01*
X023014Y002744D01*
X023014Y002594D01*
X022892Y002644D02*
X022842Y002694D01*
X022692Y002694D01*
X022692Y002744D02*
X022692Y002594D01*
X022842Y002594D01*
X022892Y002644D01*
X022842Y002794D02*
X022742Y002794D01*
X022692Y002744D01*
X022520Y002644D02*
X022520Y002594D01*
X022470Y002594D01*
X022470Y002644D01*
X022520Y002644D01*
X022470Y002594D02*
X022570Y002494D01*
X022033Y002644D02*
X021983Y002594D01*
X021883Y002594D01*
X021833Y002644D01*
X021711Y002594D02*
X021711Y002794D01*
X021611Y002895D01*
X021510Y002794D01*
X021510Y002594D01*
X021510Y002744D02*
X021711Y002744D01*
X021833Y002845D02*
X021883Y002895D01*
X021983Y002895D01*
X022033Y002845D01*
X022033Y002644D01*
X021311Y007057D02*
X021398Y007107D01*
X021416Y007175D01*
X021143Y007249D01*
X021243Y007075D01*
X021311Y007057D01*
X021416Y007175D02*
X021316Y007349D01*
X021248Y007367D01*
X021161Y007317D01*
X021143Y007249D01*
X021513Y007231D02*
X021538Y007187D01*
X021581Y007212D01*
X021556Y007256D01*
X021513Y007231D01*
X021687Y007274D02*
X021860Y007374D01*
X021773Y007324D02*
X021623Y007584D01*
X021760Y007547D01*
X021866Y007608D02*
X022052Y007485D01*
X022039Y007708D01*
X022570Y010730D02*
X022470Y010831D01*
X022520Y010831D01*
X022520Y010881D01*
X022470Y010881D01*
X022470Y010831D01*
X022692Y010831D02*
X022692Y010981D01*
X022742Y011031D01*
X022842Y011031D01*
X022842Y010931D02*
X022692Y010931D01*
X022692Y010831D02*
X022842Y010831D01*
X022892Y010881D01*
X022842Y010931D01*
X023014Y010981D02*
X023014Y010831D01*
X023014Y010981D02*
X023064Y011031D01*
X023215Y011031D01*
X023215Y010831D01*
X023337Y010931D02*
X023537Y010931D01*
X023537Y010981D02*
X023487Y011031D01*
X023387Y011031D01*
X023337Y010981D01*
X023337Y010931D01*
X023387Y010831D02*
X023487Y010831D01*
X023537Y010881D01*
X023537Y010981D01*
X023659Y011031D02*
X023809Y011031D01*
X023859Y010981D01*
X023859Y010881D01*
X023809Y010831D01*
X023659Y010831D01*
X023659Y011131D01*
X023981Y010981D02*
X023981Y010831D01*
X024131Y010831D01*
X024181Y010881D01*
X024131Y010931D01*
X023981Y010931D01*
X023981Y010981D02*
X024031Y011031D01*
X024131Y011031D01*
X024304Y011031D02*
X024454Y011031D01*
X024504Y010981D01*
X024454Y010931D01*
X024354Y010931D01*
X024304Y010881D01*
X024354Y010831D01*
X024504Y010831D01*
X024626Y010831D02*
X024626Y010981D01*
X024676Y011031D01*
X024776Y011031D01*
X024776Y010931D02*
X024626Y010931D01*
X024626Y010831D02*
X024776Y010831D01*
X024826Y010881D01*
X024776Y010931D01*
X024948Y010981D02*
X024998Y010931D01*
X025148Y010931D01*
X025148Y010831D02*
X025148Y011131D01*
X024998Y011131D01*
X024948Y011081D01*
X024948Y010981D01*
X025004Y012087D02*
X024954Y012137D01*
X024954Y012287D01*
X025054Y012137D02*
X025004Y012087D01*
X025054Y012137D02*
X025104Y012087D01*
X025154Y012137D01*
X025154Y012287D01*
X025276Y012287D02*
X025276Y012137D01*
X025326Y012087D01*
X025376Y012137D01*
X025426Y012087D01*
X025476Y012137D01*
X025476Y012287D01*
X025598Y012287D02*
X025598Y012137D01*
X025648Y012087D01*
X025698Y012137D01*
X025748Y012087D01*
X025798Y012137D01*
X025798Y012287D01*
X024831Y012137D02*
X024831Y012087D01*
X024781Y012087D01*
X024781Y012137D01*
X024831Y012137D01*
X024670Y012137D02*
X024620Y012187D01*
X024470Y012187D01*
X024470Y012237D02*
X024470Y012087D01*
X024620Y012087D01*
X024670Y012137D01*
X024620Y012287D02*
X024520Y012287D01*
X024470Y012237D01*
X024348Y012237D02*
X024348Y012137D01*
X024298Y012087D01*
X024148Y012087D01*
X024026Y012087D02*
X024026Y012287D01*
X024026Y012187D02*
X023926Y012287D01*
X023876Y012287D01*
X023757Y012237D02*
X023757Y012137D01*
X023707Y012087D01*
X023607Y012087D01*
X023557Y012137D01*
X023557Y012237D01*
X023607Y012287D01*
X023707Y012287D01*
X023757Y012237D01*
X023435Y012287D02*
X023285Y012287D01*
X023235Y012237D01*
X023235Y012137D01*
X023285Y012087D01*
X023435Y012087D01*
X023435Y012387D01*
X023113Y012237D02*
X023113Y012137D01*
X023063Y012087D01*
X022962Y012087D01*
X022912Y012137D01*
X022912Y012237D01*
X022962Y012287D01*
X023063Y012287D01*
X023113Y012237D01*
X022790Y012287D02*
X022690Y012287D01*
X022740Y012337D02*
X022740Y012137D01*
X022690Y012087D01*
X022575Y012087D02*
X022475Y012087D01*
X022525Y012087D02*
X022525Y012287D01*
X022575Y012287D01*
X022525Y012387D02*
X022525Y012437D01*
X022361Y012237D02*
X022361Y012137D01*
X022311Y012087D01*
X022160Y012087D01*
X022038Y012087D02*
X021988Y012087D01*
X021988Y012137D01*
X022038Y012137D01*
X022038Y012087D01*
X021877Y012137D02*
X021827Y012087D01*
X021677Y012087D01*
X021555Y012137D02*
X021505Y012087D01*
X021405Y012087D01*
X021355Y012137D01*
X021355Y012237D01*
X021405Y012287D01*
X021505Y012287D01*
X021555Y012237D01*
X021555Y012137D01*
X021677Y012287D02*
X021827Y012287D01*
X021877Y012237D01*
X021877Y012137D01*
X022160Y012287D02*
X022311Y012287D01*
X022361Y012237D01*
X021233Y012287D02*
X021233Y012087D01*
X021133Y012087D02*
X021133Y012237D01*
X021083Y012287D01*
X021032Y012237D01*
X021032Y012087D01*
X021133Y012237D02*
X021183Y012287D01*
X021233Y012287D01*
X021611Y011131D02*
X021510Y011031D01*
X021510Y010831D01*
X021510Y010981D02*
X021711Y010981D01*
X021711Y011031D02*
X021611Y011131D01*
X021711Y011031D02*
X021711Y010831D01*
X021833Y010881D02*
X021883Y010831D01*
X021983Y010831D01*
X022033Y010881D01*
X022033Y011081D01*
X021983Y011131D01*
X021883Y011131D01*
X021833Y011081D01*
X024148Y012287D02*
X024298Y012287D01*
X024348Y012237D01*
X021398Y015343D02*
X021416Y015411D01*
X021143Y015485D01*
X021243Y015311D01*
X021311Y015293D01*
X021398Y015343D01*
X021416Y015411D02*
X021316Y015585D01*
X021248Y015603D01*
X021161Y015553D01*
X021143Y015485D01*
X021513Y015467D02*
X021538Y015424D01*
X021581Y015449D01*
X021556Y015492D01*
X021513Y015467D01*
X021687Y015510D02*
X021860Y015610D01*
X021773Y015560D02*
X021623Y015820D01*
X021760Y015783D01*
X021866Y015844D02*
X022052Y015721D01*
X022039Y015944D01*
X022570Y018967D02*
X022470Y019067D01*
X022520Y019067D01*
X022520Y019117D01*
X022470Y019117D01*
X022470Y019067D01*
X022692Y019067D02*
X022692Y019217D01*
X022742Y019267D01*
X022842Y019267D01*
X022842Y019167D02*
X022692Y019167D01*
X022692Y019067D02*
X022842Y019067D01*
X022892Y019117D01*
X022842Y019167D01*
X023014Y019217D02*
X023014Y019067D01*
X023014Y019217D02*
X023064Y019267D01*
X023215Y019267D01*
X023215Y019067D01*
X023337Y019167D02*
X023537Y019167D01*
X023537Y019117D02*
X023537Y019217D01*
X023487Y019267D01*
X023387Y019267D01*
X023337Y019217D01*
X023337Y019167D01*
X023387Y019067D02*
X023487Y019067D01*
X023537Y019117D01*
X023659Y019067D02*
X023809Y019067D01*
X023859Y019117D01*
X023859Y019217D01*
X023809Y019267D01*
X023659Y019267D01*
X023659Y019367D02*
X023659Y019067D01*
X023981Y019067D02*
X023981Y019217D01*
X024031Y019267D01*
X024131Y019267D01*
X024131Y019167D02*
X023981Y019167D01*
X023981Y019067D02*
X024131Y019067D01*
X024181Y019117D01*
X024131Y019167D01*
X024304Y019117D02*
X024354Y019167D01*
X024454Y019167D01*
X024504Y019217D01*
X024454Y019267D01*
X024304Y019267D01*
X024304Y019117D02*
X024354Y019067D01*
X024504Y019067D01*
X024626Y019067D02*
X024626Y019217D01*
X024676Y019267D01*
X024776Y019267D01*
X024776Y019167D02*
X024626Y019167D01*
X024626Y019067D02*
X024776Y019067D01*
X024826Y019117D01*
X024776Y019167D01*
X024948Y019217D02*
X024998Y019167D01*
X025148Y019167D01*
X025148Y019067D02*
X025148Y019367D01*
X024998Y019367D01*
X024948Y019317D01*
X024948Y019217D01*
X025004Y020323D02*
X024954Y020373D01*
X024954Y020523D01*
X025054Y020373D02*
X025004Y020323D01*
X025054Y020373D02*
X025104Y020323D01*
X025154Y020373D01*
X025154Y020523D01*
X025276Y020523D02*
X025276Y020373D01*
X025326Y020323D01*
X025376Y020373D01*
X025426Y020323D01*
X025476Y020373D01*
X025476Y020523D01*
X025598Y020523D02*
X025598Y020373D01*
X025648Y020323D01*
X025698Y020373D01*
X025748Y020323D01*
X025798Y020373D01*
X025798Y020523D01*
X024831Y020373D02*
X024781Y020373D01*
X024781Y020323D01*
X024831Y020323D01*
X024831Y020373D01*
X024670Y020373D02*
X024620Y020423D01*
X024470Y020423D01*
X024470Y020473D02*
X024470Y020323D01*
X024620Y020323D01*
X024670Y020373D01*
X024620Y020523D02*
X024520Y020523D01*
X024470Y020473D01*
X024348Y020473D02*
X024348Y020373D01*
X024298Y020323D01*
X024148Y020323D01*
X024026Y020323D02*
X024026Y020523D01*
X024026Y020423D02*
X023926Y020523D01*
X023876Y020523D01*
X023757Y020473D02*
X023757Y020373D01*
X023707Y020323D01*
X023607Y020323D01*
X023557Y020373D01*
X023557Y020473D01*
X023607Y020523D01*
X023707Y020523D01*
X023757Y020473D01*
X023435Y020523D02*
X023285Y020523D01*
X023235Y020473D01*
X023235Y020373D01*
X023285Y020323D01*
X023435Y020323D01*
X023435Y020623D01*
X023113Y020473D02*
X023113Y020373D01*
X023063Y020323D01*
X022962Y020323D01*
X022912Y020373D01*
X022912Y020473D01*
X022962Y020523D01*
X023063Y020523D01*
X023113Y020473D01*
X022790Y020523D02*
X022690Y020523D01*
X022740Y020573D02*
X022740Y020373D01*
X022690Y020323D01*
X022575Y020323D02*
X022475Y020323D01*
X022525Y020323D02*
X022525Y020523D01*
X022575Y020523D01*
X022525Y020623D02*
X022525Y020673D01*
X022361Y020473D02*
X022311Y020523D01*
X022160Y020523D01*
X022038Y020373D02*
X021988Y020373D01*
X021988Y020323D01*
X022038Y020323D01*
X022038Y020373D01*
X022160Y020323D02*
X022311Y020323D01*
X022361Y020373D01*
X022361Y020473D01*
X021877Y020473D02*
X021877Y020373D01*
X021827Y020323D01*
X021677Y020323D01*
X021555Y020373D02*
X021505Y020323D01*
X021405Y020323D01*
X021355Y020373D01*
X021355Y020473D01*
X021405Y020523D01*
X021505Y020523D01*
X021555Y020473D01*
X021555Y020373D01*
X021677Y020523D02*
X021827Y020523D01*
X021877Y020473D01*
X021233Y020523D02*
X021233Y020323D01*
X021133Y020323D02*
X021133Y020473D01*
X021083Y020523D01*
X021032Y020473D01*
X021032Y020323D01*
X021133Y020473D02*
X021183Y020523D01*
X021233Y020523D01*
X021611Y019367D02*
X021510Y019267D01*
X021510Y019067D01*
X021510Y019217D02*
X021711Y019217D01*
X021711Y019267D02*
X021611Y019367D01*
X021711Y019267D02*
X021711Y019067D01*
X021833Y019117D02*
X021883Y019067D01*
X021983Y019067D01*
X022033Y019117D01*
X022033Y019317D01*
X021983Y019367D01*
X021883Y019367D01*
X021833Y019317D01*
X024148Y020523D02*
X024298Y020523D01*
X024348Y020473D01*
X021860Y023846D02*
X021687Y023746D01*
X021773Y023796D02*
X021623Y024056D01*
X021760Y024019D01*
X021866Y024080D02*
X022052Y023957D01*
X022039Y024181D01*
X021556Y023728D02*
X021513Y023703D01*
X021538Y023660D01*
X021581Y023685D01*
X021556Y023728D01*
X021416Y023648D02*
X021316Y023821D01*
X021248Y023839D01*
X021161Y023789D01*
X021143Y023721D01*
X021416Y023648D01*
X021398Y023579D01*
X021311Y023529D01*
X021243Y023548D01*
X021143Y023721D01*
X029411Y023721D02*
X029684Y023648D01*
X029666Y023579D01*
X029579Y023529D01*
X029511Y023548D01*
X029411Y023721D01*
X029429Y023789D01*
X029516Y023839D01*
X029584Y023821D01*
X029684Y023648D01*
X029780Y023703D02*
X029805Y023660D01*
X029849Y023685D01*
X029824Y023728D01*
X029780Y023703D01*
X029954Y023746D02*
X030128Y023846D01*
X030041Y023796D02*
X029891Y024056D01*
X030028Y024019D01*
X030133Y024080D02*
X030320Y023957D01*
X030307Y024181D01*
X030793Y020673D02*
X030793Y020623D01*
X030793Y020523D02*
X030793Y020323D01*
X030843Y020323D02*
X030743Y020323D01*
X030628Y020373D02*
X030578Y020323D01*
X030428Y020323D01*
X030306Y020323D02*
X030256Y020323D01*
X030256Y020373D01*
X030306Y020373D01*
X030306Y020323D01*
X030145Y020373D02*
X030095Y020323D01*
X029945Y020323D01*
X029823Y020373D02*
X029773Y020323D01*
X029673Y020323D01*
X029622Y020373D01*
X029622Y020473D01*
X029673Y020523D01*
X029773Y020523D01*
X029823Y020473D01*
X029823Y020373D01*
X029945Y020523D02*
X030095Y020523D01*
X030145Y020473D01*
X030145Y020373D01*
X030428Y020523D02*
X030578Y020523D01*
X030628Y020473D01*
X030628Y020373D01*
X030793Y020523D02*
X030843Y020523D01*
X030958Y020523D02*
X031058Y020523D01*
X031008Y020573D02*
X031008Y020373D01*
X030958Y020323D01*
X031180Y020373D02*
X031180Y020473D01*
X031230Y020523D01*
X031330Y020523D01*
X031380Y020473D01*
X031380Y020373D01*
X031330Y020323D01*
X031230Y020323D01*
X031180Y020373D01*
X031502Y020373D02*
X031502Y020473D01*
X031552Y020523D01*
X031703Y020523D01*
X031703Y020623D02*
X031703Y020323D01*
X031552Y020323D01*
X031502Y020373D01*
X031825Y020373D02*
X031825Y020473D01*
X031875Y020523D01*
X031975Y020523D01*
X032025Y020473D01*
X032025Y020373D01*
X031975Y020323D01*
X031875Y020323D01*
X031825Y020373D01*
X032143Y020523D02*
X032193Y020523D01*
X032293Y020423D01*
X032293Y020323D02*
X032293Y020523D01*
X032416Y020523D02*
X032566Y020523D01*
X032616Y020473D01*
X032616Y020373D01*
X032566Y020323D01*
X032416Y020323D01*
X032738Y020323D02*
X032888Y020323D01*
X032938Y020373D01*
X032888Y020423D01*
X032738Y020423D01*
X032738Y020473D02*
X032738Y020323D01*
X032738Y020473D02*
X032788Y020523D01*
X032888Y020523D01*
X033049Y020373D02*
X033049Y020323D01*
X033099Y020323D01*
X033099Y020373D01*
X033049Y020373D01*
X033221Y020373D02*
X033221Y020523D01*
X033221Y020373D02*
X033271Y020323D01*
X033321Y020373D01*
X033371Y020323D01*
X033421Y020373D01*
X033421Y020523D01*
X033543Y020523D02*
X033543Y020373D01*
X033594Y020323D01*
X033644Y020373D01*
X033694Y020323D01*
X033744Y020373D01*
X033744Y020523D01*
X033866Y020523D02*
X033866Y020373D01*
X033916Y020323D01*
X033966Y020373D01*
X034016Y020323D01*
X034066Y020373D01*
X034066Y020523D01*
X033416Y019367D02*
X033266Y019367D01*
X033216Y019317D01*
X033216Y019217D01*
X033266Y019167D01*
X033416Y019167D01*
X033416Y019067D02*
X033416Y019367D01*
X033044Y019267D02*
X032944Y019267D01*
X032893Y019217D01*
X032893Y019067D01*
X033044Y019067D01*
X033094Y019117D01*
X033044Y019167D01*
X032893Y019167D01*
X032771Y019217D02*
X032721Y019167D01*
X032621Y019167D01*
X032571Y019117D01*
X032621Y019067D01*
X032771Y019067D01*
X032771Y019217D02*
X032721Y019267D01*
X032571Y019267D01*
X032399Y019267D02*
X032299Y019267D01*
X032249Y019217D01*
X032249Y019067D01*
X032399Y019067D01*
X032449Y019117D01*
X032399Y019167D01*
X032249Y019167D01*
X032127Y019217D02*
X032077Y019267D01*
X031927Y019267D01*
X031927Y019367D02*
X031927Y019067D01*
X032077Y019067D01*
X032127Y019117D01*
X032127Y019217D01*
X031805Y019217D02*
X031805Y019117D01*
X031755Y019067D01*
X031654Y019067D01*
X031604Y019167D02*
X031805Y019167D01*
X031805Y019217D02*
X031755Y019267D01*
X031654Y019267D01*
X031604Y019217D01*
X031604Y019167D01*
X031482Y019067D02*
X031482Y019267D01*
X031332Y019267D01*
X031282Y019217D01*
X031282Y019067D01*
X031160Y019117D02*
X031110Y019167D01*
X030960Y019167D01*
X030960Y019217D02*
X030960Y019067D01*
X031110Y019067D01*
X031160Y019117D01*
X031110Y019267D02*
X031010Y019267D01*
X030960Y019217D01*
X030788Y019117D02*
X030788Y019067D01*
X030738Y019067D01*
X030738Y019117D01*
X030788Y019117D01*
X030738Y019067D02*
X030838Y018967D01*
X030301Y019117D02*
X030251Y019067D01*
X030150Y019067D01*
X030100Y019117D01*
X029978Y019067D02*
X029978Y019267D01*
X029878Y019367D01*
X029778Y019267D01*
X029778Y019067D01*
X029778Y019217D02*
X029978Y019217D01*
X030100Y019317D02*
X030150Y019367D01*
X030251Y019367D01*
X030301Y019317D01*
X030301Y019117D01*
X029500Y020323D02*
X029500Y020523D01*
X029450Y020523D01*
X029400Y020473D01*
X029350Y020523D01*
X029300Y020473D01*
X029300Y020323D01*
X029400Y020323D02*
X029400Y020473D01*
X030307Y015944D02*
X030320Y015721D01*
X030133Y015844D01*
X030028Y015783D02*
X029891Y015820D01*
X030041Y015560D01*
X030128Y015610D02*
X029954Y015510D01*
X029849Y015449D02*
X029805Y015424D01*
X029780Y015467D01*
X029824Y015492D01*
X029849Y015449D01*
X029684Y015411D02*
X029584Y015585D01*
X029516Y015603D01*
X029429Y015553D01*
X029411Y015485D01*
X029684Y015411D01*
X029666Y015343D01*
X029579Y015293D01*
X029511Y015311D01*
X029411Y015485D01*
X030793Y012437D02*
X030793Y012387D01*
X030793Y012287D02*
X030793Y012087D01*
X030843Y012087D02*
X030743Y012087D01*
X030628Y012137D02*
X030578Y012087D01*
X030428Y012087D01*
X030306Y012087D02*
X030306Y012137D01*
X030256Y012137D01*
X030256Y012087D01*
X030306Y012087D01*
X030145Y012137D02*
X030095Y012087D01*
X029945Y012087D01*
X029823Y012137D02*
X029773Y012087D01*
X029673Y012087D01*
X029622Y012137D01*
X029622Y012237D01*
X029673Y012287D01*
X029773Y012287D01*
X029823Y012237D01*
X029823Y012137D01*
X029945Y012287D02*
X030095Y012287D01*
X030145Y012237D01*
X030145Y012137D01*
X030428Y012287D02*
X030578Y012287D01*
X030628Y012237D01*
X030628Y012137D01*
X030793Y012287D02*
X030843Y012287D01*
X030958Y012287D02*
X031058Y012287D01*
X031008Y012337D02*
X031008Y012137D01*
X030958Y012087D01*
X031180Y012137D02*
X031180Y012237D01*
X031230Y012287D01*
X031330Y012287D01*
X031380Y012237D01*
X031380Y012137D01*
X031330Y012087D01*
X031230Y012087D01*
X031180Y012137D01*
X031502Y012137D02*
X031552Y012087D01*
X031703Y012087D01*
X031703Y012387D01*
X031703Y012287D02*
X031552Y012287D01*
X031502Y012237D01*
X031502Y012137D01*
X031825Y012137D02*
X031825Y012237D01*
X031875Y012287D01*
X031975Y012287D01*
X032025Y012237D01*
X032025Y012137D01*
X031975Y012087D01*
X031875Y012087D01*
X031825Y012137D01*
X032143Y012287D02*
X032193Y012287D01*
X032293Y012187D01*
X032293Y012087D02*
X032293Y012287D01*
X032416Y012287D02*
X032566Y012287D01*
X032616Y012237D01*
X032616Y012137D01*
X032566Y012087D01*
X032416Y012087D01*
X032738Y012087D02*
X032738Y012237D01*
X032788Y012287D01*
X032888Y012287D01*
X032888Y012187D02*
X032738Y012187D01*
X032738Y012087D02*
X032888Y012087D01*
X032938Y012137D01*
X032888Y012187D01*
X033049Y012137D02*
X033049Y012087D01*
X033099Y012087D01*
X033099Y012137D01*
X033049Y012137D01*
X033221Y012137D02*
X033221Y012287D01*
X033221Y012137D02*
X033271Y012087D01*
X033321Y012137D01*
X033371Y012087D01*
X033421Y012137D01*
X033421Y012287D01*
X033543Y012287D02*
X033543Y012137D01*
X033594Y012087D01*
X033644Y012137D01*
X033694Y012087D01*
X033744Y012137D01*
X033744Y012287D01*
X033866Y012287D02*
X033866Y012137D01*
X033916Y012087D01*
X033966Y012137D01*
X034016Y012087D01*
X034066Y012137D01*
X034066Y012287D01*
X033416Y011131D02*
X033266Y011131D01*
X033216Y011081D01*
X033216Y010981D01*
X033266Y010931D01*
X033416Y010931D01*
X033416Y010831D02*
X033416Y011131D01*
X033044Y011031D02*
X032944Y011031D01*
X032893Y010981D01*
X032893Y010831D01*
X033044Y010831D01*
X033094Y010881D01*
X033044Y010931D01*
X032893Y010931D01*
X032771Y010981D02*
X032721Y011031D01*
X032571Y011031D01*
X032621Y010931D02*
X032721Y010931D01*
X032771Y010981D01*
X032771Y010831D02*
X032621Y010831D01*
X032571Y010881D01*
X032621Y010931D01*
X032449Y010881D02*
X032399Y010931D01*
X032249Y010931D01*
X032249Y010981D02*
X032249Y010831D01*
X032399Y010831D01*
X032449Y010881D01*
X032399Y011031D02*
X032299Y011031D01*
X032249Y010981D01*
X032127Y010981D02*
X032077Y011031D01*
X031927Y011031D01*
X031927Y011131D02*
X031927Y010831D01*
X032077Y010831D01*
X032127Y010881D01*
X032127Y010981D01*
X031805Y010981D02*
X031755Y011031D01*
X031654Y011031D01*
X031604Y010981D01*
X031604Y010931D01*
X031805Y010931D01*
X031805Y010881D02*
X031805Y010981D01*
X031805Y010881D02*
X031755Y010831D01*
X031654Y010831D01*
X031482Y010831D02*
X031482Y011031D01*
X031332Y011031D01*
X031282Y010981D01*
X031282Y010831D01*
X031160Y010881D02*
X031110Y010831D01*
X030960Y010831D01*
X030960Y010981D01*
X031010Y011031D01*
X031110Y011031D01*
X031110Y010931D02*
X030960Y010931D01*
X031110Y010931D02*
X031160Y010881D01*
X030838Y010730D02*
X030738Y010831D01*
X030788Y010831D01*
X030788Y010881D01*
X030738Y010881D01*
X030738Y010831D01*
X030301Y010881D02*
X030251Y010831D01*
X030150Y010831D01*
X030100Y010881D01*
X029978Y010831D02*
X029978Y011031D01*
X029878Y011131D01*
X029778Y011031D01*
X029778Y010831D01*
X029778Y010981D02*
X029978Y010981D01*
X030100Y011081D02*
X030150Y011131D01*
X030251Y011131D01*
X030301Y011081D01*
X030301Y010881D01*
X029500Y012087D02*
X029500Y012287D01*
X029450Y012287D01*
X029400Y012237D01*
X029350Y012287D01*
X029300Y012237D01*
X029300Y012087D01*
X029400Y012087D02*
X029400Y012237D01*
X030307Y007708D02*
X030320Y007485D01*
X030133Y007608D01*
X030028Y007547D02*
X029891Y007584D01*
X030041Y007324D01*
X030128Y007374D02*
X029954Y007274D01*
X029849Y007212D02*
X029805Y007187D01*
X029780Y007231D01*
X029824Y007256D01*
X029849Y007212D01*
X029684Y007175D02*
X029411Y007249D01*
X029511Y007075D01*
X029579Y007057D01*
X029666Y007107D01*
X029684Y007175D01*
X029584Y007349D01*
X029516Y007367D01*
X029429Y007317D01*
X029411Y007249D01*
X029450Y004051D02*
X029400Y004001D01*
X029350Y004051D01*
X029300Y004001D01*
X029300Y003851D01*
X029400Y003851D02*
X029400Y004001D01*
X029450Y004051D02*
X029500Y004051D01*
X029500Y003851D01*
X029622Y003901D02*
X029622Y004001D01*
X029673Y004051D01*
X029773Y004051D01*
X029823Y004001D01*
X029823Y003901D01*
X029773Y003851D01*
X029673Y003851D01*
X029622Y003901D01*
X029945Y003851D02*
X030095Y003851D01*
X030145Y003901D01*
X030145Y004001D01*
X030095Y004051D01*
X029945Y004051D01*
X030256Y003901D02*
X030256Y003851D01*
X030306Y003851D01*
X030306Y003901D01*
X030256Y003901D01*
X030428Y003851D02*
X030578Y003851D01*
X030628Y003901D01*
X030628Y004001D01*
X030578Y004051D01*
X030428Y004051D01*
X030793Y004051D02*
X030793Y003851D01*
X030843Y003851D02*
X030743Y003851D01*
X030793Y004051D02*
X030843Y004051D01*
X030793Y004151D02*
X030793Y004201D01*
X030958Y004051D02*
X031058Y004051D01*
X031008Y004101D02*
X031008Y003901D01*
X030958Y003851D01*
X031180Y003901D02*
X031180Y004001D01*
X031230Y004051D01*
X031330Y004051D01*
X031380Y004001D01*
X031380Y003901D01*
X031330Y003851D01*
X031230Y003851D01*
X031180Y003901D01*
X031502Y003901D02*
X031502Y004001D01*
X031552Y004051D01*
X031703Y004051D01*
X031703Y004151D02*
X031703Y003851D01*
X031552Y003851D01*
X031502Y003901D01*
X031825Y003901D02*
X031825Y004001D01*
X031875Y004051D01*
X031975Y004051D01*
X032025Y004001D01*
X032025Y003901D01*
X031975Y003851D01*
X031875Y003851D01*
X031825Y003901D01*
X032143Y004051D02*
X032193Y004051D01*
X032293Y003951D01*
X032293Y003851D02*
X032293Y004051D01*
X032416Y004051D02*
X032566Y004051D01*
X032616Y004001D01*
X032616Y003901D01*
X032566Y003851D01*
X032416Y003851D01*
X032738Y003851D02*
X032888Y003851D01*
X032938Y003901D01*
X032888Y003951D01*
X032738Y003951D01*
X032738Y004001D02*
X032738Y003851D01*
X032738Y004001D02*
X032788Y004051D01*
X032888Y004051D01*
X033049Y003901D02*
X033049Y003851D01*
X033099Y003851D01*
X033099Y003901D01*
X033049Y003901D01*
X033221Y003901D02*
X033221Y004051D01*
X033221Y003901D02*
X033271Y003851D01*
X033321Y003901D01*
X033371Y003851D01*
X033421Y003901D01*
X033421Y004051D01*
X033543Y004051D02*
X033543Y003901D01*
X033594Y003851D01*
X033644Y003901D01*
X033694Y003851D01*
X033744Y003901D01*
X033744Y004051D01*
X033866Y004051D02*
X033866Y003901D01*
X033916Y003851D01*
X033966Y003901D01*
X034016Y003851D01*
X034066Y003901D01*
X034066Y004051D01*
X033416Y002895D02*
X033266Y002895D01*
X033216Y002845D01*
X033216Y002744D01*
X033266Y002694D01*
X033416Y002694D01*
X033416Y002594D02*
X033416Y002895D01*
X033044Y002794D02*
X032944Y002794D01*
X032893Y002744D01*
X032893Y002594D01*
X033044Y002594D01*
X033094Y002644D01*
X033044Y002694D01*
X032893Y002694D01*
X032771Y002744D02*
X032721Y002794D01*
X032571Y002794D01*
X032621Y002694D02*
X032721Y002694D01*
X032771Y002744D01*
X032771Y002594D02*
X032621Y002594D01*
X032571Y002644D01*
X032621Y002694D01*
X032449Y002644D02*
X032399Y002694D01*
X032249Y002694D01*
X032249Y002744D02*
X032249Y002594D01*
X032399Y002594D01*
X032449Y002644D01*
X032399Y002794D02*
X032299Y002794D01*
X032249Y002744D01*
X032127Y002744D02*
X032077Y002794D01*
X031927Y002794D01*
X031927Y002895D02*
X031927Y002594D01*
X032077Y002594D01*
X032127Y002644D01*
X032127Y002744D01*
X031805Y002744D02*
X031755Y002794D01*
X031654Y002794D01*
X031604Y002744D01*
X031604Y002694D01*
X031805Y002694D01*
X031805Y002644D02*
X031805Y002744D01*
X031805Y002644D02*
X031755Y002594D01*
X031654Y002594D01*
X031482Y002594D02*
X031482Y002794D01*
X031332Y002794D01*
X031282Y002744D01*
X031282Y002594D01*
X031160Y002644D02*
X031110Y002694D01*
X030960Y002694D01*
X030960Y002744D02*
X030960Y002594D01*
X031110Y002594D01*
X031160Y002644D01*
X031110Y002794D02*
X031010Y002794D01*
X030960Y002744D01*
X030788Y002644D02*
X030788Y002594D01*
X030738Y002594D01*
X030738Y002644D01*
X030788Y002644D01*
X030738Y002594D02*
X030838Y002494D01*
X030301Y002644D02*
X030301Y002845D01*
X030251Y002895D01*
X030150Y002895D01*
X030100Y002845D01*
X029978Y002794D02*
X029878Y002895D01*
X029778Y002794D01*
X029778Y002594D01*
X029778Y002744D02*
X029978Y002744D01*
X029978Y002794D02*
X029978Y002594D01*
X030100Y002644D02*
X030150Y002594D01*
X030251Y002594D01*
X030301Y002644D01*
D13*
X031456Y002326D02*
X031796Y002326D01*
X031626Y006356D02*
X031626Y006696D01*
X031796Y006526D02*
X031456Y006526D01*
X031456Y010956D02*
X031796Y010956D01*
X031626Y014592D02*
X031626Y014932D01*
X031796Y014762D02*
X031456Y014762D01*
X031456Y018798D02*
X031796Y018798D01*
X031626Y022828D02*
X031626Y023168D01*
X031796Y022998D02*
X031456Y022998D01*
X023528Y022998D02*
X023188Y022998D01*
X023358Y023168D02*
X023358Y022828D01*
X023528Y018798D02*
X023188Y018798D01*
X023358Y014932D02*
X023358Y014592D01*
X023528Y014762D02*
X023188Y014762D01*
X023188Y010956D02*
X023528Y010956D01*
X023358Y006696D02*
X023358Y006356D01*
X023528Y006526D02*
X023188Y006526D01*
X023188Y002326D02*
X023528Y002326D01*
X015261Y002326D02*
X014920Y002326D01*
X015090Y006356D02*
X015090Y006696D01*
X014920Y006526D02*
X015261Y006526D01*
X015261Y010956D02*
X014920Y010956D01*
X015090Y014592D02*
X015090Y014932D01*
X014920Y014762D02*
X015261Y014762D01*
X015261Y018798D02*
X014920Y018798D01*
X015090Y022828D02*
X015090Y023168D01*
X014920Y022998D02*
X015261Y022998D01*
X006993Y022998D02*
X006653Y022998D01*
X006823Y023168D02*
X006823Y022828D01*
X006993Y018798D02*
X006653Y018798D01*
X006823Y014932D02*
X006823Y014592D01*
X006993Y014762D02*
X006653Y014762D01*
X006653Y010562D02*
X006993Y010562D01*
X006823Y006696D02*
X006823Y006356D01*
X006993Y006526D02*
X006653Y006526D01*
X006653Y002326D02*
X006993Y002326D01*
D14*
X007026Y004706D02*
X006799Y004706D01*
X006657Y004706D02*
X006657Y005046D01*
X006430Y005046D01*
X006289Y005046D02*
X006289Y004706D01*
X006062Y004706D01*
X005807Y004706D02*
X005807Y004876D01*
X005694Y004989D01*
X005694Y005046D01*
X005807Y004876D02*
X005921Y004989D01*
X005921Y005046D01*
X006544Y004876D02*
X006657Y004876D01*
X006799Y005046D02*
X007026Y005046D01*
X007026Y004706D01*
X007167Y004706D02*
X007281Y004819D01*
X007224Y004819D02*
X007394Y004819D01*
X007394Y004706D02*
X007394Y005046D01*
X007224Y005046D01*
X007167Y004989D01*
X007167Y004876D01*
X007224Y004819D01*
X007026Y004876D02*
X006912Y004876D01*
X007526Y005046D02*
X007639Y005046D01*
X007583Y005046D02*
X007583Y004706D01*
X007639Y004706D02*
X007526Y004706D01*
X007894Y004876D02*
X008008Y004876D01*
X008008Y005046D02*
X007781Y005046D01*
X008008Y005046D02*
X008008Y004706D01*
X013962Y004989D02*
X013962Y005046D01*
X013962Y004989D02*
X014075Y004876D01*
X014075Y004706D01*
X014075Y004876D02*
X014188Y004989D01*
X014188Y005046D01*
X014557Y005046D02*
X014557Y004706D01*
X014330Y004706D01*
X014698Y005046D02*
X014925Y005046D01*
X014925Y004706D01*
X015066Y004706D02*
X015293Y004706D01*
X015293Y005046D01*
X015066Y005046D01*
X015180Y004876D02*
X015293Y004876D01*
X015435Y004876D02*
X015492Y004819D01*
X015662Y004819D01*
X015662Y004706D02*
X015662Y005046D01*
X015492Y005046D01*
X015435Y004989D01*
X015435Y004876D01*
X015548Y004819D02*
X015435Y004706D01*
X015794Y004706D02*
X015907Y004706D01*
X015850Y004706D02*
X015850Y005046D01*
X015794Y005046D02*
X015907Y005046D01*
X016049Y005046D02*
X016276Y005046D01*
X016276Y004706D01*
X016276Y004876D02*
X016162Y004876D01*
X014925Y004876D02*
X014812Y004876D01*
X022229Y004989D02*
X022229Y005046D01*
X022229Y004989D02*
X022343Y004876D01*
X022343Y004706D01*
X022343Y004876D02*
X022456Y004989D01*
X022456Y005046D01*
X022824Y005046D02*
X022824Y004706D01*
X022598Y004706D01*
X022966Y005046D02*
X023193Y005046D01*
X023193Y004706D01*
X023334Y004706D02*
X023561Y004706D01*
X023561Y005046D01*
X023334Y005046D01*
X023448Y004876D02*
X023561Y004876D01*
X023703Y004876D02*
X023759Y004819D01*
X023929Y004819D01*
X023816Y004819D02*
X023703Y004706D01*
X023703Y004876D02*
X023703Y004989D01*
X023759Y005046D01*
X023929Y005046D01*
X023929Y004706D01*
X024061Y004706D02*
X024175Y004706D01*
X024118Y004706D02*
X024118Y005046D01*
X024175Y005046D02*
X024061Y005046D01*
X024316Y005046D02*
X024543Y005046D01*
X024543Y004706D01*
X024543Y004876D02*
X024430Y004876D01*
X023193Y004876D02*
X023079Y004876D01*
X030497Y004989D02*
X030497Y005046D01*
X030497Y004989D02*
X030610Y004876D01*
X030610Y004706D01*
X030610Y004876D02*
X030724Y004989D01*
X030724Y005046D01*
X031092Y005046D02*
X031092Y004706D01*
X030865Y004706D01*
X031234Y005046D02*
X031460Y005046D01*
X031460Y004706D01*
X031602Y004706D02*
X031829Y004706D01*
X031829Y005046D01*
X031602Y005046D01*
X031715Y004876D02*
X031829Y004876D01*
X031970Y004876D02*
X032027Y004819D01*
X032197Y004819D01*
X032084Y004819D02*
X031970Y004706D01*
X031970Y004876D02*
X031970Y004989D01*
X032027Y005046D01*
X032197Y005046D01*
X032197Y004706D01*
X032329Y004706D02*
X032443Y004706D01*
X032386Y004706D02*
X032386Y005046D01*
X032443Y005046D02*
X032329Y005046D01*
X032584Y005046D02*
X032811Y005046D01*
X032811Y004706D01*
X032811Y004876D02*
X032698Y004876D01*
X031460Y004876D02*
X031347Y004876D01*
X031460Y012942D02*
X031460Y013282D01*
X031234Y013282D01*
X031092Y013282D02*
X031092Y012942D01*
X030865Y012942D01*
X030610Y012942D02*
X030610Y013112D01*
X030497Y013225D01*
X030497Y013282D01*
X030610Y013112D02*
X030724Y013225D01*
X030724Y013282D01*
X031347Y013112D02*
X031460Y013112D01*
X031602Y013282D02*
X031829Y013282D01*
X031829Y012942D01*
X031602Y012942D01*
X031715Y013112D02*
X031829Y013112D01*
X031970Y013112D02*
X031970Y013225D01*
X032027Y013282D01*
X032197Y013282D01*
X032197Y012942D01*
X032197Y013055D02*
X032027Y013055D01*
X031970Y013112D01*
X032084Y013055D02*
X031970Y012942D01*
X032329Y012942D02*
X032443Y012942D01*
X032386Y012942D02*
X032386Y013282D01*
X032443Y013282D02*
X032329Y013282D01*
X032584Y013282D02*
X032811Y013282D01*
X032811Y012942D01*
X032811Y013112D02*
X032698Y013112D01*
X024543Y013112D02*
X024430Y013112D01*
X024543Y012942D02*
X024543Y013282D01*
X024316Y013282D01*
X024175Y013282D02*
X024061Y013282D01*
X024118Y013282D02*
X024118Y012942D01*
X024175Y012942D02*
X024061Y012942D01*
X023929Y012942D02*
X023929Y013282D01*
X023759Y013282D01*
X023703Y013225D01*
X023703Y013112D01*
X023759Y013055D01*
X023929Y013055D01*
X023816Y013055D02*
X023703Y012942D01*
X023561Y012942D02*
X023334Y012942D01*
X023193Y012942D02*
X023193Y013282D01*
X022966Y013282D01*
X022824Y013282D02*
X022824Y012942D01*
X022598Y012942D01*
X022343Y012942D02*
X022343Y013112D01*
X022229Y013225D01*
X022229Y013282D01*
X022343Y013112D02*
X022456Y013225D01*
X022456Y013282D01*
X023079Y013112D02*
X023193Y013112D01*
X023334Y013282D02*
X023561Y013282D01*
X023561Y012942D01*
X023561Y013112D02*
X023448Y013112D01*
X016276Y013112D02*
X016162Y013112D01*
X016276Y013282D02*
X016049Y013282D01*
X015907Y013282D02*
X015794Y013282D01*
X015850Y013282D02*
X015850Y012942D01*
X015794Y012942D02*
X015907Y012942D01*
X015662Y012942D02*
X015662Y013282D01*
X015492Y013282D01*
X015435Y013225D01*
X015435Y013112D01*
X015492Y013055D01*
X015662Y013055D01*
X015548Y013055D02*
X015435Y012942D01*
X015293Y012942D02*
X015293Y013282D01*
X015066Y013282D01*
X014925Y013282D02*
X014925Y012942D01*
X015066Y012942D02*
X015293Y012942D01*
X015293Y013112D02*
X015180Y013112D01*
X014925Y013112D02*
X014812Y013112D01*
X014925Y013282D02*
X014698Y013282D01*
X014557Y013282D02*
X014557Y012942D01*
X014330Y012942D01*
X014075Y012942D02*
X014075Y013112D01*
X013962Y013225D01*
X013962Y013282D01*
X014075Y013112D02*
X014188Y013225D01*
X014188Y013282D01*
X016276Y013282D02*
X016276Y012942D01*
X008008Y012942D02*
X008008Y013282D01*
X007781Y013282D01*
X007639Y013282D02*
X007526Y013282D01*
X007583Y013282D02*
X007583Y012942D01*
X007639Y012942D02*
X007526Y012942D01*
X007394Y012942D02*
X007394Y013282D01*
X007224Y013282D01*
X007167Y013225D01*
X007167Y013112D01*
X007224Y013055D01*
X007394Y013055D01*
X007281Y013055D02*
X007167Y012942D01*
X007026Y012942D02*
X006799Y012942D01*
X006657Y012942D02*
X006657Y013282D01*
X006430Y013282D01*
X006289Y013282D02*
X006289Y012942D01*
X006062Y012942D01*
X005807Y012942D02*
X005807Y013112D01*
X005694Y013225D01*
X005694Y013282D01*
X005807Y013112D02*
X005921Y013225D01*
X005921Y013282D01*
X006544Y013112D02*
X006657Y013112D01*
X006799Y013282D02*
X007026Y013282D01*
X007026Y012942D01*
X007026Y013112D02*
X006912Y013112D01*
X007894Y013112D02*
X008008Y013112D01*
X008008Y021178D02*
X008008Y021518D01*
X007781Y021518D01*
X007639Y021518D02*
X007526Y021518D01*
X007583Y021518D02*
X007583Y021178D01*
X007639Y021178D02*
X007526Y021178D01*
X007394Y021178D02*
X007394Y021518D01*
X007224Y021518D01*
X007167Y021462D01*
X007167Y021348D01*
X007224Y021291D01*
X007394Y021291D01*
X007281Y021291D02*
X007167Y021178D01*
X007026Y021178D02*
X006799Y021178D01*
X006657Y021178D02*
X006657Y021518D01*
X006430Y021518D01*
X006289Y021518D02*
X006289Y021178D01*
X006062Y021178D01*
X005807Y021178D02*
X005807Y021348D01*
X005694Y021462D01*
X005694Y021518D01*
X005807Y021348D02*
X005921Y021462D01*
X005921Y021518D01*
X006544Y021348D02*
X006657Y021348D01*
X006799Y021518D02*
X007026Y021518D01*
X007026Y021178D01*
X007026Y021348D02*
X006912Y021348D01*
X007894Y021348D02*
X008008Y021348D01*
X013962Y021462D02*
X013962Y021518D01*
X013962Y021462D02*
X014075Y021348D01*
X014075Y021178D01*
X014075Y021348D02*
X014188Y021462D01*
X014188Y021518D01*
X014557Y021518D02*
X014557Y021178D01*
X014330Y021178D01*
X014812Y021348D02*
X014925Y021348D01*
X014925Y021178D02*
X014925Y021518D01*
X014698Y021518D01*
X015066Y021518D02*
X015293Y021518D01*
X015293Y021178D01*
X015066Y021178D01*
X015180Y021348D02*
X015293Y021348D01*
X015435Y021348D02*
X015492Y021291D01*
X015662Y021291D01*
X015662Y021178D02*
X015662Y021518D01*
X015492Y021518D01*
X015435Y021462D01*
X015435Y021348D01*
X015548Y021291D02*
X015435Y021178D01*
X015794Y021178D02*
X015907Y021178D01*
X015850Y021178D02*
X015850Y021518D01*
X015794Y021518D02*
X015907Y021518D01*
X016049Y021518D02*
X016276Y021518D01*
X016276Y021178D01*
X016276Y021348D02*
X016162Y021348D01*
X022229Y021462D02*
X022229Y021518D01*
X022229Y021462D02*
X022343Y021348D01*
X022343Y021178D01*
X022343Y021348D02*
X022456Y021462D01*
X022456Y021518D01*
X022824Y021518D02*
X022824Y021178D01*
X022598Y021178D01*
X022966Y021518D02*
X023193Y021518D01*
X023193Y021178D01*
X023334Y021178D02*
X023561Y021178D01*
X023561Y021518D01*
X023334Y021518D01*
X023448Y021348D02*
X023561Y021348D01*
X023703Y021348D02*
X023759Y021291D01*
X023929Y021291D01*
X023929Y021178D02*
X023929Y021518D01*
X023759Y021518D01*
X023703Y021462D01*
X023703Y021348D01*
X023816Y021291D02*
X023703Y021178D01*
X024061Y021178D02*
X024175Y021178D01*
X024118Y021178D02*
X024118Y021518D01*
X024175Y021518D02*
X024061Y021518D01*
X024316Y021518D02*
X024543Y021518D01*
X024543Y021178D01*
X024543Y021348D02*
X024430Y021348D01*
X023193Y021348D02*
X023079Y021348D01*
X030497Y021462D02*
X030497Y021518D01*
X030497Y021462D02*
X030610Y021348D01*
X030610Y021178D01*
X030610Y021348D02*
X030724Y021462D01*
X030724Y021518D01*
X031092Y021518D02*
X031092Y021178D01*
X030865Y021178D01*
X031347Y021348D02*
X031460Y021348D01*
X031460Y021178D02*
X031460Y021518D01*
X031234Y021518D01*
X031602Y021518D02*
X031829Y021518D01*
X031829Y021178D01*
X031602Y021178D01*
X031715Y021348D02*
X031829Y021348D01*
X031970Y021348D02*
X032027Y021291D01*
X032197Y021291D01*
X032197Y021178D02*
X032197Y021518D01*
X032027Y021518D01*
X031970Y021462D01*
X031970Y021348D01*
X032084Y021291D02*
X031970Y021178D01*
X032329Y021178D02*
X032443Y021178D01*
X032386Y021178D02*
X032386Y021518D01*
X032443Y021518D02*
X032329Y021518D01*
X032584Y021518D02*
X032811Y021518D01*
X032811Y021178D01*
X032811Y021348D02*
X032698Y021348D01*
M02*
