%
M48
M72
T01C0.0150
T02C0.0866
%
T01
X6288Y3426
X7288Y3426
X7288Y4426
X6288Y4426
X6288Y5426
X7288Y5426
X7838Y6276
X5738Y6276
X4738Y4676
X3838Y4676
X12106Y4676
X13006Y4676
X14556Y4426
X15556Y4426
X15556Y5426
X14556Y5426
X14006Y6276
X16106Y6276
X15556Y3426
X14556Y3426
X20373Y4676
X21273Y4676
X22823Y4426
X23823Y4426
X23823Y5426
X22823Y5426
X22273Y6276
X24373Y6276
X23823Y3426
X22823Y3426
X28641Y4676
X29541Y4676
X31091Y4426
X32091Y4426
X32091Y5426
X31091Y5426
X30541Y6276
X32641Y6276
X32091Y3426
X31091Y3426
X31091Y11662
X32091Y11662
X32091Y12662
X31091Y12662
X31091Y13662
X32091Y13662
X32641Y14512
X30541Y14512
X29541Y12912
X28641Y12912
X24373Y14512
X23823Y13662
X22823Y13662
X22273Y14512
X21273Y12912
X20373Y12912
X22823Y12662
X23823Y12662
X23823Y11662
X22823Y11662
X16106Y14512
X15556Y13662
X14556Y13662
X14006Y14512
X13006Y12912
X12106Y12912
X14556Y12662
X15556Y12662
X15556Y11662
X14556Y11662
X7838Y14512
X7288Y13662
X6288Y13662
X5738Y14512
X4738Y12912
X3838Y12912
X6288Y12662
X7288Y12662
X7288Y11662
X6288Y11662
X6288Y19898
X7288Y19898
X7288Y20898
X6288Y20898
X6288Y21898
X7288Y21898
X7838Y22748
X5738Y22748
X4738Y21148
X3838Y21148
X12106Y21148
X13006Y21148
X14556Y20898
X15556Y20898
X15556Y19898
X14556Y19898
X14556Y21898
X15556Y21898
X16106Y22748
X14006Y22748
X20373Y21148
X21273Y21148
X22823Y20898
X23823Y20898
X23823Y19898
X22823Y19898
X22823Y21898
X23823Y21898
X24373Y22748
X22273Y22748
X28641Y21148
X29541Y21148
X31091Y20898
X32091Y20898
X32091Y19898
X31091Y19898
X31091Y21898
X32091Y21898
X32641Y22748
X30541Y22748
T02
X4017Y2826
X6788Y1226
X9559Y2826
X12284Y2826
X12284Y6026
X15056Y7626
X15056Y9462
X17827Y11062
X20552Y11062
X23323Y9462
X23323Y7626
X20552Y6026
X17827Y6026
X17827Y2826
X20552Y2826
X23323Y1226
X26095Y2826
X28820Y2826
X28820Y6026
X31591Y7626
X31591Y9462
X34362Y11062
X34362Y14262
X31591Y15862
X31591Y17698
X34362Y19298
X34362Y22498
X31591Y24098
X28820Y22498
X26095Y22498
X23323Y24098
X20552Y22498
X17827Y22498
X15056Y24098
X12284Y22498
X9559Y22498
X6788Y24098
X4017Y22498
X4017Y19298
X6788Y17698
X6788Y15862
X9559Y14262
X12284Y14262
X15056Y15862
X15056Y17698
X17827Y19298
X20552Y19298
X23323Y17698
X23323Y15862
X20552Y14262
X17827Y14262
X12284Y11062
X9559Y11062
X6788Y9462
X6788Y7626
X9559Y6026
X4017Y6026
X4017Y11062
X4017Y14262
X9559Y19298
X12284Y19298
X26095Y19298
X28820Y19298
X28820Y14262
X26095Y14262
X26095Y11062
X28820Y11062
X26095Y6026
X34362Y6026
X34362Y2826
M30
