G75*
%MOIN*%
%OFA0B0*%
%FSLAX24Y24*%
%IPPOS*%
%LPD*%
%AMOC8*
5,1,8,0,0,1.08239X$1,22.5*
%
%ADD10C,0.0090*%
%ADD11C,0.0080*%
%ADD12C,0.0050*%
%ADD13R,0.0337X0.0000*%
%ADD14R,0.0337X0.0000*%
%ADD15R,0.0344X0.0001*%
%ADD16R,0.0348X0.0000*%
%ADD17R,0.0347X0.0000*%
%ADD18R,0.0350X0.0000*%
%ADD19R,0.0350X0.0000*%
%ADD20R,0.0352X0.0001*%
%ADD21R,0.0355X0.0000*%
%ADD22R,0.0354X0.0000*%
%ADD23R,0.0356X0.0001*%
%ADD24R,0.0359X0.0000*%
%ADD25R,0.0360X0.0000*%
%ADD26R,0.0361X0.0001*%
%ADD27R,0.0363X0.0000*%
%ADD28R,0.0362X0.0000*%
%ADD29R,0.0365X0.0001*%
%ADD30R,0.0364X0.0001*%
%ADD31R,0.0365X0.0000*%
%ADD32R,0.0366X0.0000*%
%ADD33R,0.0366X0.0000*%
%ADD34R,0.0367X0.0001*%
%ADD35R,0.0369X0.0000*%
%ADD36R,0.0370X0.0001*%
%ADD37R,0.0369X0.0001*%
%ADD38R,0.0370X0.0000*%
%ADD39R,0.0371X0.0000*%
%ADD40R,0.0371X0.0000*%
%ADD41R,0.0372X0.0001*%
%ADD42R,0.0372X0.0001*%
%ADD43R,0.0373X0.0000*%
%ADD44R,0.0373X0.0000*%
%ADD45R,0.0374X0.0001*%
%ADD46R,0.0374X0.0001*%
%ADD47R,0.0375X0.0000*%
%ADD48R,0.0374X0.0000*%
%ADD49R,0.0375X0.0000*%
%ADD50R,0.0375X0.0000*%
%ADD51R,0.0375X0.0001*%
%ADD52R,0.0376X0.0001*%
%ADD53R,0.0376X0.0000*%
%ADD54R,0.0377X0.0001*%
%ADD55R,0.0376X0.0001*%
%ADD56R,0.0377X0.0000*%
%ADD57R,0.0378X0.0000*%
%ADD58R,0.0378X0.0000*%
%ADD59R,0.0379X0.0001*%
%ADD60R,0.0379X0.0000*%
%ADD61R,0.0379X0.0000*%
%ADD62R,0.0380X0.0001*%
%ADD63R,0.0379X0.0001*%
%ADD64R,0.0380X0.0000*%
%ADD65R,0.0379X0.0000*%
%ADD66R,0.0380X0.0000*%
%ADD67R,0.0380X0.0000*%
%ADD68R,0.0380X0.0001*%
%ADD69R,0.0381X0.0001*%
%ADD70R,0.0381X0.0000*%
%ADD71R,0.0381X0.0001*%
%ADD72R,0.0381X0.0001*%
%ADD73R,0.0381X0.0000*%
%ADD74R,0.0382X0.0001*%
%ADD75R,0.0381X0.0001*%
%ADD76R,0.0382X0.0000*%
%ADD77R,0.0382X0.0000*%
%ADD78R,0.0382X0.0001*%
%ADD79R,0.0382X0.0000*%
%ADD80R,0.0383X0.0000*%
%ADD81R,0.0383X0.0001*%
%ADD82R,0.0383X0.0001*%
%ADD83R,0.0383X0.0000*%
%ADD84R,0.0382X0.0001*%
%ADD85R,0.0379X0.0001*%
%ADD86R,0.0381X0.0000*%
%ADD87R,0.0378X0.0001*%
%ADD88R,0.0377X0.0000*%
%ADD89R,0.0376X0.0000*%
%ADD90R,0.0374X0.0000*%
%ADD91R,0.0377X0.0001*%
%ADD92R,0.0372X0.0000*%
%ADD93R,0.0371X0.0001*%
%ADD94R,0.0376X0.0001*%
%ADD95R,0.0371X0.0000*%
%ADD96R,0.0376X0.0000*%
%ADD97R,0.0370X0.0000*%
%ADD98R,0.0369X0.0001*%
%ADD99R,0.0374X0.0001*%
%ADD100R,0.0368X0.0000*%
%ADD101R,0.0374X0.0000*%
%ADD102R,0.0367X0.0001*%
%ADD103R,0.0373X0.0001*%
%ADD104R,0.0366X0.0000*%
%ADD105R,0.0372X0.0000*%
%ADD106R,0.0365X0.0000*%
%ADD107R,0.0371X0.0000*%
%ADD108R,0.0364X0.0001*%
%ADD109R,0.0371X0.0001*%
%ADD110R,0.0362X0.0000*%
%ADD111R,0.0369X0.0000*%
%ADD112R,0.0360X0.0001*%
%ADD113R,0.0369X0.0001*%
%ADD114R,0.0359X0.0000*%
%ADD115R,0.0367X0.0000*%
%ADD116R,0.0357X0.0000*%
%ADD117R,0.0355X0.0001*%
%ADD118R,0.0365X0.0001*%
%ADD119R,0.0354X0.0000*%
%ADD120R,0.0364X0.0000*%
%ADD121R,0.0351X0.0001*%
%ADD122R,0.0363X0.0001*%
%ADD123R,0.0348X0.0000*%
%ADD124R,0.0361X0.0000*%
%ADD125R,0.0345X0.0000*%
%ADD126R,0.0340X0.0001*%
%ADD127R,0.0359X0.0001*%
%ADD128R,0.0258X0.0000*%
%ADD129R,0.0356X0.0000*%
%ADD130R,0.0257X0.0001*%
%ADD131R,0.0354X0.0001*%
%ADD132R,0.0257X0.0000*%
%ADD133R,0.0352X0.0000*%
%ADD134R,0.0347X0.0001*%
%ADD135R,0.0257X0.0000*%
%ADD136R,0.0344X0.0000*%
%ADD137R,0.0257X0.0001*%
%ADD138R,0.0338X0.0001*%
%ADD139R,0.0239X0.0000*%
%ADD140R,0.0256X0.0000*%
%ADD141R,0.0256X0.0001*%
%ADD142R,0.0239X0.0001*%
%ADD143R,0.0239X0.0001*%
%ADD144R,0.0256X0.0000*%
%ADD145R,0.0239X0.0000*%
%ADD146R,0.0256X0.0001*%
%ADD147R,0.0255X0.0000*%
%ADD148R,0.0238X0.0000*%
%ADD149R,0.0255X0.0001*%
%ADD150R,0.0238X0.0001*%
%ADD151R,0.0255X0.0000*%
%ADD152R,0.0255X0.0001*%
%ADD153R,0.0238X0.0001*%
%ADD154R,0.0238X0.0000*%
%ADD155R,0.0255X0.0000*%
%ADD156R,0.0238X0.0000*%
%ADD157R,0.0255X0.0001*%
%ADD158R,0.0238X0.0001*%
%ADD159R,0.0254X0.0000*%
%ADD160R,0.0254X0.0001*%
%ADD161R,0.0237X0.0000*%
%ADD162R,0.0254X0.0001*%
%ADD163R,0.0237X0.0001*%
%ADD164R,0.0254X0.0000*%
%ADD165R,0.0253X0.0000*%
%ADD166R,0.0236X0.0000*%
%ADD167R,0.0253X0.0001*%
%ADD168R,0.0236X0.0001*%
%ADD169R,0.0253X0.0000*%
%ADD170R,0.0253X0.0001*%
%ADD171R,0.0236X0.0001*%
%ADD172R,0.0236X0.0000*%
%ADD173R,0.0252X0.0001*%
%ADD174R,0.0252X0.0000*%
%ADD175R,0.0235X0.0000*%
%ADD176R,0.0235X0.0001*%
%ADD177R,0.0251X0.0000*%
%ADD178R,0.0251X0.0001*%
%ADD179R,0.0235X0.0001*%
%ADD180R,0.0235X0.0000*%
%ADD181R,0.0251X0.0001*%
%ADD182R,0.0251X0.0000*%
%ADD183R,0.0234X0.0000*%
%ADD184R,0.0250X0.0001*%
%ADD185R,0.0234X0.0001*%
%ADD186R,0.0250X0.0000*%
%ADD187R,0.0250X0.0000*%
%ADD188R,0.0234X0.0000*%
%ADD189R,0.0250X0.0001*%
%ADD190R,0.0234X0.0001*%
%ADD191R,0.0250X0.0001*%
%ADD192R,0.0250X0.0000*%
%ADD193R,0.0233X0.0000*%
%ADD194R,0.0249X0.0001*%
%ADD195R,0.0233X0.0001*%
%ADD196R,0.0249X0.0000*%
%ADD197R,0.0233X0.0001*%
%ADD198R,0.0233X0.0000*%
%ADD199R,0.0249X0.0000*%
%ADD200R,0.0249X0.0001*%
%ADD201R,0.0232X0.0000*%
%ADD202R,0.0248X0.0001*%
%ADD203R,0.0232X0.0001*%
%ADD204R,0.0248X0.0000*%
%ADD205R,0.0248X0.0001*%
%ADD206R,0.0232X0.0001*%
%ADD207R,0.0248X0.0000*%
%ADD208R,0.0232X0.0000*%
%ADD209R,0.0247X0.0000*%
%ADD210R,0.0231X0.0000*%
%ADD211R,0.0247X0.0001*%
%ADD212R,0.0231X0.0001*%
%ADD213R,0.0246X0.0001*%
%ADD214R,0.0246X0.0000*%
%ADD215R,0.0231X0.0000*%
%ADD216R,0.0231X0.0001*%
%ADD217R,0.0246X0.0000*%
%ADD218R,0.0246X0.0001*%
%ADD219R,0.0230X0.0000*%
%ADD220R,0.0245X0.0000*%
%ADD221R,0.0245X0.0001*%
%ADD222R,0.0230X0.0001*%
%ADD223R,0.0245X0.0001*%
%ADD224R,0.0230X0.0001*%
%ADD225R,0.0245X0.0000*%
%ADD226R,0.0230X0.0000*%
%ADD227R,0.0245X0.0000*%
%ADD228R,0.0229X0.0000*%
%ADD229R,0.0245X0.0001*%
%ADD230R,0.0229X0.0001*%
%ADD231R,0.0244X0.0000*%
%ADD232R,0.0244X0.0001*%
%ADD233R,0.0229X0.0001*%
%ADD234R,0.0229X0.0000*%
%ADD235R,0.0244X0.0000*%
%ADD236R,0.0228X0.0000*%
%ADD237R,0.0244X0.0001*%
%ADD238R,0.0228X0.0001*%
%ADD239R,0.0243X0.0000*%
%ADD240R,0.0243X0.0001*%
%ADD241R,0.0243X0.0000*%
%ADD242R,0.0228X0.0000*%
%ADD243R,0.0243X0.0001*%
%ADD244R,0.0228X0.0001*%
%ADD245R,0.0242X0.0000*%
%ADD246R,0.0227X0.0000*%
%ADD247R,0.0242X0.0001*%
%ADD248R,0.0227X0.0001*%
%ADD249R,0.0241X0.0000*%
%ADD250R,0.0241X0.0001*%
%ADD251R,0.0227X0.0001*%
%ADD252R,0.0227X0.0000*%
%ADD253R,0.0241X0.0001*%
%ADD254R,0.0241X0.0000*%
%ADD255R,0.0226X0.0000*%
%ADD256R,0.0226X0.0001*%
%ADD257R,0.0240X0.0000*%
%ADD258R,0.0240X0.0001*%
%ADD259R,0.0226X0.0001*%
%ADD260R,0.0240X0.0000*%
%ADD261R,0.0226X0.0000*%
%ADD262R,0.0240X0.0001*%
%ADD263R,0.0225X0.0000*%
%ADD264R,0.0240X0.0001*%
%ADD265R,0.0225X0.0001*%
%ADD266R,0.0240X0.0000*%
%ADD267R,0.0225X0.0000*%
%ADD268R,0.0225X0.0001*%
%ADD269R,0.0239X0.0001*%
%ADD270R,0.0239X0.0000*%
%ADD271R,0.0224X0.0000*%
%ADD272R,0.0224X0.0001*%
%ADD273R,0.0224X0.0001*%
%ADD274R,0.0224X0.0000*%
%ADD275R,0.0223X0.0000*%
%ADD276R,0.0237X0.0001*%
%ADD277R,0.0223X0.0001*%
%ADD278R,0.0237X0.0000*%
%ADD279R,0.0223X0.0001*%
%ADD280R,0.0223X0.0000*%
%ADD281R,0.0236X0.0000*%
%ADD282R,0.0222X0.0000*%
%ADD283R,0.0236X0.0001*%
%ADD284R,0.0222X0.0001*%
%ADD285R,0.0222X0.0000*%
%ADD286R,0.0222X0.0001*%
%ADD287R,0.0221X0.0000*%
%ADD288R,0.0235X0.0000*%
%ADD289R,0.0235X0.0001*%
%ADD290R,0.0221X0.0001*%
%ADD291R,0.0221X0.0001*%
%ADD292R,0.0221X0.0000*%
%ADD293R,0.0234X0.0000*%
%ADD294R,0.0220X0.0000*%
%ADD295R,0.0234X0.0001*%
%ADD296R,0.0220X0.0001*%
%ADD297R,0.0220X0.0001*%
%ADD298R,0.0220X0.0000*%
%ADD299R,0.0219X0.0000*%
%ADD300R,0.0219X0.0001*%
%ADD301R,0.0232X0.0000*%
%ADD302R,0.0232X0.0001*%
%ADD303R,0.0219X0.0000*%
%ADD304R,0.0219X0.0001*%
%ADD305R,0.0231X0.0000*%
%ADD306R,0.0218X0.0000*%
%ADD307R,0.0231X0.0001*%
%ADD308R,0.0218X0.0001*%
%ADD309R,0.0218X0.0001*%
%ADD310R,0.0218X0.0000*%
%ADD311R,0.0217X0.0000*%
%ADD312R,0.0217X0.0001*%
%ADD313R,0.0230X0.0000*%
%ADD314R,0.0230X0.0001*%
%ADD315R,0.0217X0.0001*%
%ADD316R,0.0217X0.0000*%
%ADD317R,0.0216X0.0000*%
%ADD318R,0.0229X0.0001*%
%ADD319R,0.0216X0.0001*%
%ADD320R,0.0229X0.0000*%
%ADD321R,0.0216X0.0000*%
%ADD322R,0.0216X0.0001*%
%ADD323R,0.0215X0.0000*%
%ADD324R,0.0227X0.0001*%
%ADD325R,0.0215X0.0001*%
%ADD326R,0.0227X0.0000*%
%ADD327R,0.0215X0.0001*%
%ADD328R,0.0215X0.0000*%
%ADD329R,0.0214X0.0000*%
%ADD330R,0.0226X0.0001*%
%ADD331R,0.0214X0.0001*%
%ADD332R,0.0226X0.0000*%
%ADD333R,0.0214X0.0001*%
%ADD334R,0.0214X0.0000*%
%ADD335R,0.0213X0.0000*%
%ADD336R,0.0213X0.0001*%
%ADD337R,0.0225X0.0001*%
%ADD338R,0.0225X0.0000*%
%ADD339R,0.0213X0.0000*%
%ADD340R,0.0213X0.0001*%
%ADD341R,0.0213X0.0000*%
%ADD342R,0.0224X0.0000*%
%ADD343R,0.0224X0.0001*%
%ADD344R,0.0213X0.0001*%
%ADD345R,0.0212X0.0001*%
%ADD346R,0.0212X0.0000*%
%ADD347R,0.0211X0.0000*%
%ADD348R,0.0211X0.0001*%
%ADD349R,0.0222X0.0000*%
%ADD350R,0.0222X0.0001*%
%ADD351R,0.0211X0.0001*%
%ADD352R,0.0211X0.0000*%
%ADD353R,0.0210X0.0000*%
%ADD354R,0.0210X0.0001*%
%ADD355R,0.0221X0.0000*%
%ADD356R,0.0221X0.0001*%
%ADD357R,0.0210X0.0000*%
%ADD358R,0.0210X0.0001*%
%ADD359R,0.0209X0.0000*%
%ADD360R,0.0209X0.0001*%
%ADD361R,0.0220X0.0000*%
%ADD362R,0.0220X0.0001*%
%ADD363R,0.0209X0.0001*%
%ADD364R,0.0209X0.0000*%
%ADD365R,0.0208X0.0000*%
%ADD366R,0.0208X0.0001*%
%ADD367R,0.0219X0.0000*%
%ADD368R,0.0219X0.0001*%
%ADD369R,0.0208X0.0001*%
%ADD370R,0.0208X0.0000*%
%ADD371R,0.0208X0.0000*%
%ADD372R,0.0208X0.0001*%
%ADD373R,0.0217X0.0000*%
%ADD374R,0.0207X0.0000*%
%ADD375R,0.0217X0.0001*%
%ADD376R,0.0207X0.0001*%
%ADD377R,0.0206X0.0000*%
%ADD378R,0.0216X0.0001*%
%ADD379R,0.0206X0.0001*%
%ADD380R,0.0216X0.0000*%
%ADD381R,0.0206X0.0001*%
%ADD382R,0.0206X0.0000*%
%ADD383R,0.0205X0.0000*%
%ADD384R,0.0205X0.0001*%
%ADD385R,0.0215X0.0001*%
%ADD386R,0.0205X0.0001*%
%ADD387R,0.0215X0.0000*%
%ADD388R,0.0205X0.0000*%
%ADD389R,0.0204X0.0000*%
%ADD390R,0.0204X0.0001*%
%ADD391R,0.0214X0.0001*%
%ADD392R,0.0214X0.0000*%
%ADD393R,0.0204X0.0000*%
%ADD394R,0.0204X0.0001*%
%ADD395R,0.0203X0.0000*%
%ADD396R,0.0203X0.0001*%
%ADD397R,0.0212X0.0001*%
%ADD398R,0.0203X0.0001*%
%ADD399R,0.0212X0.0000*%
%ADD400R,0.0203X0.0000*%
%ADD401R,0.0203X0.0000*%
%ADD402R,0.0203X0.0001*%
%ADD403R,0.0211X0.0000*%
%ADD404R,0.0211X0.0001*%
%ADD405R,0.0202X0.0001*%
%ADD406R,0.0202X0.0000*%
%ADD407R,0.0201X0.0000*%
%ADD408R,0.0201X0.0001*%
%ADD409R,0.0210X0.0000*%
%ADD410R,0.0201X0.0000*%
%ADD411R,0.0210X0.0001*%
%ADD412R,0.0201X0.0001*%
%ADD413R,0.0200X0.0000*%
%ADD414R,0.0200X0.0001*%
%ADD415R,0.0209X0.0000*%
%ADD416R,0.0209X0.0001*%
%ADD417R,0.0200X0.0001*%
%ADD418R,0.0200X0.0000*%
%ADD419R,0.0199X0.0000*%
%ADD420R,0.0199X0.0001*%
%ADD421R,0.0199X0.0001*%
%ADD422R,0.0207X0.0000*%
%ADD423R,0.0199X0.0000*%
%ADD424R,0.0207X0.0001*%
%ADD425R,0.0198X0.0000*%
%ADD426R,0.0198X0.0001*%
%ADD427R,0.0206X0.0000*%
%ADD428R,0.0198X0.0000*%
%ADD429R,0.0206X0.0001*%
%ADD430R,0.0198X0.0001*%
%ADD431R,0.0198X0.0000*%
%ADD432R,0.0198X0.0001*%
%ADD433R,0.0197X0.0001*%
%ADD434R,0.0205X0.0000*%
%ADD435R,0.0197X0.0000*%
%ADD436R,0.0205X0.0001*%
%ADD437R,0.0196X0.0000*%
%ADD438R,0.0196X0.0001*%
%ADD439R,0.0204X0.0001*%
%ADD440R,0.0196X0.0001*%
%ADD441R,0.0204X0.0000*%
%ADD442R,0.0196X0.0000*%
%ADD443R,0.0195X0.0000*%
%ADD444R,0.0195X0.0001*%
%ADD445R,0.0195X0.0000*%
%ADD446R,0.0202X0.0001*%
%ADD447R,0.0195X0.0001*%
%ADD448R,0.0202X0.0000*%
%ADD449R,0.0194X0.0000*%
%ADD450R,0.0194X0.0001*%
%ADD451R,0.0201X0.0001*%
%ADD452R,0.0194X0.0001*%
%ADD453R,0.0201X0.0000*%
%ADD454R,0.0194X0.0000*%
%ADD455R,0.0193X0.0000*%
%ADD456R,0.0193X0.0001*%
%ADD457R,0.0193X0.0001*%
%ADD458R,0.0193X0.0000*%
%ADD459R,0.0200X0.0001*%
%ADD460R,0.0200X0.0000*%
%ADD461R,0.0192X0.0000*%
%ADD462R,0.0192X0.0001*%
%ADD463R,0.0199X0.0000*%
%ADD464R,0.0192X0.0000*%
%ADD465R,0.0199X0.0001*%
%ADD466R,0.0192X0.0001*%
%ADD467R,0.0191X0.0000*%
%ADD468R,0.0191X0.0001*%
%ADD469R,0.0191X0.0001*%
%ADD470R,0.0191X0.0000*%
%ADD471R,0.0197X0.0000*%
%ADD472R,0.0197X0.0001*%
%ADD473R,0.0190X0.0000*%
%ADD474R,0.0190X0.0001*%
%ADD475R,0.0190X0.0001*%
%ADD476R,0.0196X0.0000*%
%ADD477R,0.0190X0.0000*%
%ADD478R,0.0196X0.0001*%
%ADD479R,0.0189X0.0000*%
%ADD480R,0.0189X0.0001*%
%ADD481R,0.0189X0.0000*%
%ADD482R,0.0189X0.0001*%
%ADD483R,0.0195X0.0000*%
%ADD484R,0.0195X0.0001*%
%ADD485R,0.0188X0.0000*%
%ADD486R,0.0188X0.0001*%
%ADD487R,0.0188X0.0001*%
%ADD488R,0.0194X0.0000*%
%ADD489R,0.0188X0.0000*%
%ADD490R,0.0194X0.0001*%
%ADD491R,0.0187X0.0000*%
%ADD492R,0.0187X0.0001*%
%ADD493R,0.0187X0.0001*%
%ADD494R,0.0187X0.0000*%
%ADD495R,0.0192X0.0000*%
%ADD496R,0.0186X0.0000*%
%ADD497R,0.0192X0.0001*%
%ADD498R,0.0186X0.0001*%
%ADD499R,0.0186X0.0000*%
%ADD500R,0.0191X0.0001*%
%ADD501R,0.0186X0.0001*%
%ADD502R,0.0191X0.0000*%
%ADD503R,0.0185X0.0000*%
%ADD504R,0.0185X0.0001*%
%ADD505R,0.0185X0.0001*%
%ADD506R,0.0185X0.0000*%
%ADD507R,0.0190X0.0001*%
%ADD508R,0.0190X0.0000*%
%ADD509R,0.0184X0.0000*%
%ADD510R,0.0184X0.0001*%
%ADD511R,0.0184X0.0001*%
%ADD512R,0.0184X0.0000*%
%ADD513R,0.0189X0.0001*%
%ADD514R,0.0189X0.0000*%
%ADD515R,0.0183X0.0000*%
%ADD516R,0.0183X0.0001*%
%ADD517R,0.0183X0.0000*%
%ADD518R,0.0183X0.0001*%
%ADD519R,0.0187X0.0001*%
%ADD520R,0.0187X0.0000*%
%ADD521R,0.0182X0.0000*%
%ADD522R,0.0182X0.0001*%
%ADD523R,0.0182X0.0001*%
%ADD524R,0.0182X0.0000*%
%ADD525R,0.0186X0.0000*%
%ADD526R,0.0186X0.0001*%
%ADD527R,0.0181X0.0000*%
%ADD528R,0.0181X0.0001*%
%ADD529R,0.0181X0.0001*%
%ADD530R,0.0181X0.0000*%
%ADD531R,0.0185X0.0000*%
%ADD532R,0.0180X0.0000*%
%ADD533R,0.0185X0.0001*%
%ADD534R,0.0180X0.0001*%
%ADD535R,0.0180X0.0000*%
%ADD536R,0.0180X0.0001*%
%ADD537R,0.0184X0.0000*%
%ADD538R,0.0184X0.0001*%
%ADD539R,0.0179X0.0000*%
%ADD540R,0.0179X0.0001*%
%ADD541R,0.0179X0.0001*%
%ADD542R,0.0179X0.0000*%
%ADD543R,0.0182X0.0000*%
%ADD544R,0.0178X0.0000*%
%ADD545R,0.0182X0.0001*%
%ADD546R,0.0178X0.0001*%
%ADD547R,0.0178X0.0001*%
%ADD548R,0.0178X0.0000*%
%ADD549R,0.0181X0.0000*%
%ADD550R,0.0177X0.0000*%
%ADD551R,0.0181X0.0001*%
%ADD552R,0.0177X0.0001*%
%ADD553R,0.0177X0.0000*%
%ADD554R,0.0177X0.0001*%
%ADD555R,0.0180X0.0000*%
%ADD556R,0.0176X0.0000*%
%ADD557R,0.0180X0.0001*%
%ADD558R,0.0176X0.0001*%
%ADD559R,0.0176X0.0001*%
%ADD560R,0.0176X0.0000*%
%ADD561R,0.0179X0.0001*%
%ADD562R,0.0179X0.0000*%
%ADD563R,0.0175X0.0000*%
%ADD564R,0.0175X0.0001*%
%ADD565R,0.0175X0.0001*%
%ADD566R,0.0175X0.0000*%
%ADD567R,0.0174X0.0000*%
%ADD568R,0.0177X0.0001*%
%ADD569R,0.0174X0.0001*%
%ADD570R,0.0177X0.0000*%
%ADD571R,0.0174X0.0000*%
%ADD572R,0.0174X0.0001*%
%ADD573R,0.0176X0.0001*%
%ADD574R,0.0176X0.0000*%
%ADD575R,0.0173X0.0000*%
%ADD576R,0.0173X0.0001*%
%ADD577R,0.0173X0.0001*%
%ADD578R,0.0173X0.0000*%
%ADD579R,0.0173X0.0000*%
%ADD580R,0.0175X0.0001*%
%ADD581R,0.0173X0.0001*%
%ADD582R,0.0175X0.0000*%
%ADD583R,0.0172X0.0001*%
%ADD584R,0.0172X0.0000*%
%ADD585R,0.0174X0.0000*%
%ADD586R,0.0171X0.0000*%
%ADD587R,0.0174X0.0001*%
%ADD588R,0.0171X0.0001*%
%ADD589R,0.0171X0.0000*%
%ADD590R,0.0171X0.0001*%
%ADD591R,0.0170X0.0000*%
%ADD592R,0.0172X0.0000*%
%ADD593R,0.0172X0.0001*%
%ADD594R,0.0170X0.0001*%
%ADD595R,0.0170X0.0001*%
%ADD596R,0.0170X0.0000*%
%ADD597R,0.0171X0.0000*%
%ADD598R,0.0169X0.0000*%
%ADD599R,0.0171X0.0001*%
%ADD600R,0.0169X0.0001*%
%ADD601R,0.0169X0.0001*%
%ADD602R,0.0169X0.0000*%
%ADD603R,0.0168X0.0000*%
%ADD604R,0.0168X0.0001*%
%ADD605R,0.0170X0.0000*%
%ADD606R,0.0170X0.0001*%
%ADD607R,0.0168X0.0000*%
%ADD608R,0.0168X0.0001*%
%ADD609R,0.0169X0.0000*%
%ADD610R,0.0168X0.0000*%
%ADD611R,0.0169X0.0001*%
%ADD612R,0.0168X0.0001*%
%ADD613R,0.0167X0.0001*%
%ADD614R,0.0167X0.0000*%
%ADD615R,0.0166X0.0000*%
%ADD616R,0.0166X0.0001*%
%ADD617R,0.0167X0.0000*%
%ADD618R,0.0167X0.0001*%
%ADD619R,0.0166X0.0001*%
%ADD620R,0.0166X0.0000*%
%ADD621R,0.0165X0.0000*%
%ADD622R,0.0166X0.0001*%
%ADD623R,0.0165X0.0001*%
%ADD624R,0.0166X0.0000*%
%ADD625R,0.0165X0.0000*%
%ADD626R,0.0165X0.0001*%
%ADD627R,0.0164X0.0000*%
%ADD628R,0.0165X0.0001*%
%ADD629R,0.0164X0.0001*%
%ADD630R,0.0165X0.0000*%
%ADD631R,0.0164X0.0001*%
%ADD632R,0.0164X0.0000*%
%ADD633R,0.0163X0.0000*%
%ADD634R,0.0164X0.0001*%
%ADD635R,0.0163X0.0001*%
%ADD636R,0.0164X0.0000*%
%ADD637R,0.0163X0.0001*%
%ADD638R,0.0163X0.0000*%
%ADD639R,0.0163X0.0000*%
%ADD640R,0.0163X0.0001*%
%ADD641R,0.0162X0.0001*%
%ADD642R,0.0162X0.0000*%
%ADD643R,0.0162X0.0000*%
%ADD644R,0.0161X0.0001*%
%ADD645R,0.0162X0.0001*%
%ADD646R,0.0161X0.0000*%
%ADD647R,0.0161X0.0000*%
%ADD648R,0.0161X0.0001*%
%ADD649R,0.0160X0.0001*%
%ADD650R,0.0161X0.0001*%
%ADD651R,0.0160X0.0000*%
%ADD652R,0.0161X0.0000*%
%ADD653R,0.0160X0.0000*%
%ADD654R,0.0160X0.0001*%
%ADD655R,0.0160X0.0000*%
%ADD656R,0.0160X0.0001*%
%ADD657R,0.0159X0.0001*%
%ADD658R,0.0159X0.0000*%
%ADD659R,0.0159X0.0000*%
%ADD660R,0.0159X0.0001*%
%ADD661R,0.0159X0.0000*%
%ADD662R,0.0159X0.0001*%
%ADD663R,0.0158X0.0000*%
%ADD664R,0.0158X0.0001*%
%ADD665R,0.0158X0.0000*%
%ADD666R,0.0158X0.0000*%
%ADD667R,0.0158X0.0001*%
%ADD668R,0.0158X0.0001*%
%ADD669R,0.0157X0.0000*%
%ADD670R,0.0157X0.0001*%
%ADD671R,0.0156X0.0000*%
%ADD672R,0.0156X0.0001*%
%ADD673R,0.0156X0.0000*%
%ADD674R,0.0156X0.0001*%
%ADD675R,0.0157X0.0001*%
%ADD676R,0.0155X0.0000*%
%ADD677R,0.0157X0.0000*%
%ADD678R,0.0155X0.0001*%
%ADD679R,0.0155X0.0001*%
%ADD680R,0.0155X0.0000*%
%ADD681R,0.0155X0.0000*%
%ADD682R,0.0156X0.0000*%
%ADD683R,0.0155X0.0001*%
%ADD684R,0.0156X0.0001*%
%ADD685R,0.0154X0.0000*%
%ADD686R,0.0154X0.0001*%
%ADD687R,0.0154X0.0001*%
%ADD688R,0.0154X0.0000*%
%ADD689R,0.0153X0.0000*%
%ADD690R,0.0153X0.0001*%
%ADD691R,0.0154X0.0000*%
%ADD692R,0.0152X0.0001*%
%ADD693R,0.0154X0.0001*%
%ADD694R,0.0152X0.0000*%
%ADD695R,0.0152X0.0001*%
%ADD696R,0.0152X0.0000*%
%ADD697R,0.0151X0.0000*%
%ADD698R,0.0153X0.0000*%
%ADD699R,0.0151X0.0001*%
%ADD700R,0.0153X0.0001*%
%ADD701R,0.0151X0.0001*%
%ADD702R,0.0151X0.0000*%
%ADD703R,0.0150X0.0001*%
%ADD704R,0.0150X0.0000*%
%ADD705R,0.0150X0.0000*%
%ADD706R,0.0150X0.0001*%
%ADD707R,0.0150X0.0001*%
%ADD708R,0.0152X0.0001*%
%ADD709R,0.0150X0.0000*%
%ADD710R,0.0152X0.0000*%
%ADD711R,0.0149X0.0000*%
%ADD712R,0.0149X0.0001*%
%ADD713R,0.0149X0.0000*%
%ADD714R,0.0149X0.0001*%
%ADD715R,0.0151X0.0001*%
%ADD716R,0.0151X0.0000*%
%ADD717R,0.0148X0.0001*%
%ADD718R,0.0148X0.0000*%
%ADD719R,0.0260X0.0000*%
%ADD720R,0.0259X0.0000*%
%ADD721R,0.0260X0.0001*%
%ADD722R,0.0259X0.0001*%
%ADD723R,0.0868X0.0000*%
%ADD724R,0.0868X0.0001*%
%ADD725R,0.0321X0.0000*%
%ADD726R,0.0305X0.0000*%
%ADD727R,0.0321X0.0001*%
%ADD728R,0.0305X0.0001*%
%ADD729R,0.0867X0.0000*%
%ADD730R,0.0867X0.0001*%
%ADD731R,0.0867X0.0000*%
%ADD732R,0.0867X0.0001*%
%ADD733R,0.0866X0.0000*%
%ADD734R,0.0866X0.0000*%
%ADD735R,0.0866X0.0001*%
%ADD736R,0.0866X0.0000*%
%ADD737R,0.0866X0.0001*%
%ADD738R,0.0865X0.0000*%
%ADD739R,0.0865X0.0001*%
%ADD740R,0.0864X0.0001*%
%ADD741R,0.0864X0.0000*%
%ADD742R,0.0864X0.0001*%
%ADD743R,0.0864X0.0000*%
%ADD744R,0.0864X0.0001*%
%ADD745R,0.0864X0.0000*%
%ADD746R,0.0863X0.0001*%
%ADD747R,0.0863X0.0000*%
%ADD748R,0.0862X0.0001*%
%ADD749R,0.0862X0.0000*%
%ADD750R,0.0862X0.0001*%
%ADD751R,0.0862X0.0000*%
%ADD752R,0.0861X0.0001*%
%ADD753R,0.0861X0.0000*%
%ADD754R,0.0861X0.0001*%
%ADD755R,0.0860X0.0001*%
%ADD756R,0.0860X0.0000*%
%ADD757R,0.0859X0.0000*%
%ADD758R,0.0859X0.0001*%
%ADD759R,0.0858X0.0000*%
%ADD760R,0.0858X0.0001*%
%ADD761R,0.0857X0.0001*%
%ADD762R,0.0857X0.0000*%
%ADD763R,0.0856X0.0000*%
%ADD764R,0.0856X0.0001*%
%ADD765R,0.0855X0.0000*%
%ADD766R,0.0855X0.0001*%
%ADD767R,0.0855X0.0000*%
%ADD768R,0.0855X0.0001*%
%ADD769R,0.0854X0.0000*%
%ADD770R,0.0854X0.0001*%
%ADD771R,0.0853X0.0000*%
%ADD772R,0.0853X0.0001*%
%ADD773R,0.0853X0.0000*%
%ADD774R,0.0853X0.0000*%
%ADD775R,0.0852X0.0001*%
%ADD776R,0.0852X0.0000*%
%ADD777R,0.0852X0.0001*%
%ADD778R,0.0851X0.0000*%
%ADD779R,0.0850X0.0001*%
%ADD780R,0.0850X0.0000*%
%ADD781R,0.0850X0.0001*%
%ADD782R,0.0849X0.0000*%
%ADD783R,0.0848X0.0001*%
%ADD784R,0.0848X0.0000*%
%ADD785R,0.0848X0.0001*%
%ADD786R,0.0848X0.0000*%
%ADD787R,0.0847X0.0000*%
%ADD788R,0.0847X0.0001*%
%ADD789R,0.0846X0.0000*%
%ADD790R,0.0846X0.0001*%
%ADD791R,0.0845X0.0000*%
%ADD792R,0.0845X0.0000*%
%ADD793R,0.0845X0.0001*%
%ADD794R,0.0843X0.0000*%
%ADD795R,0.0843X0.0001*%
%ADD796R,0.0841X0.0000*%
%ADD797R,0.0840X0.0000*%
%ADD798R,0.0839X0.0001*%
%ADD799R,0.0838X0.0000*%
%ADD800R,0.0837X0.0001*%
%ADD801R,0.0836X0.0000*%
%ADD802R,0.0835X0.0000*%
%ADD803R,0.0834X0.0001*%
%ADD804R,0.0833X0.0000*%
%ADD805R,0.0832X0.0001*%
%ADD806R,0.0831X0.0000*%
%ADD807R,0.0830X0.0000*%
%ADD808R,0.0829X0.0001*%
%ADD809R,0.0828X0.0000*%
%ADD810R,0.0827X0.0001*%
%ADD811R,0.0826X0.0000*%
%ADD812R,0.0825X0.0000*%
%ADD813R,0.0824X0.0001*%
%ADD814R,0.0823X0.0000*%
%ADD815R,0.0822X0.0001*%
%ADD816R,0.0821X0.0000*%
%ADD817R,0.0820X0.0000*%
%ADD818R,0.0819X0.0001*%
%ADD819R,0.0818X0.0000*%
%ADD820R,0.0817X0.0001*%
%ADD821R,0.0816X0.0000*%
%ADD822R,0.0815X0.0000*%
%ADD823R,0.0814X0.0001*%
%ADD824R,0.0813X0.0000*%
%ADD825R,0.0812X0.0001*%
%ADD826R,0.0811X0.0000*%
%ADD827R,0.0810X0.0000*%
%ADD828R,0.0808X0.0001*%
%ADD829R,0.0808X0.0000*%
%ADD830R,0.0807X0.0001*%
%ADD831R,0.0805X0.0000*%
%ADD832R,0.0805X0.0000*%
%ADD833R,0.0803X0.0001*%
%ADD834R,0.0803X0.0000*%
%ADD835R,0.0802X0.0001*%
%ADD836R,0.0800X0.0000*%
%ADD837R,0.0800X0.0000*%
%ADD838R,0.0798X0.0001*%
%ADD839R,0.0798X0.0000*%
%ADD840R,0.0797X0.0001*%
%ADD841R,0.0795X0.0000*%
%ADD842R,0.0795X0.0000*%
%ADD843R,0.0793X0.0001*%
%ADD844R,0.0793X0.0000*%
%ADD845R,0.0791X0.0001*%
%ADD846R,0.0790X0.0000*%
%ADD847R,0.0789X0.0000*%
%ADD848R,0.0788X0.0001*%
%ADD849R,0.0787X0.0000*%
%ADD850R,0.0786X0.0001*%
%ADD851R,0.0785X0.0000*%
%ADD852R,0.0784X0.0000*%
%ADD853R,0.0783X0.0001*%
%ADD854R,0.0782X0.0000*%
%ADD855R,0.0781X0.0001*%
%ADD856R,0.0780X0.0000*%
%ADD857R,0.0779X0.0000*%
%ADD858R,0.0778X0.0001*%
%ADD859R,0.0777X0.0000*%
%ADD860R,0.0776X0.0001*%
%ADD861R,0.0775X0.0000*%
%ADD862R,0.0774X0.0000*%
%ADD863R,0.0773X0.0001*%
%ADD864R,0.0772X0.0000*%
%ADD865R,0.0771X0.0001*%
%ADD866R,0.0770X0.0000*%
%ADD867R,0.0769X0.0000*%
%ADD868R,0.0768X0.0001*%
%ADD869R,0.0767X0.0000*%
%ADD870R,0.0766X0.0001*%
%ADD871R,0.0765X0.0000*%
%ADD872R,0.0764X0.0000*%
%ADD873R,0.0763X0.0001*%
%ADD874R,0.0762X0.0000*%
%ADD875R,0.0761X0.0001*%
%ADD876R,0.0760X0.0000*%
%ADD877R,0.0758X0.0000*%
%ADD878R,0.0757X0.0001*%
%ADD879R,0.0757X0.0000*%
%ADD880R,0.0755X0.0001*%
%ADD881R,0.0755X0.0000*%
%ADD882R,0.0753X0.0000*%
%ADD883R,0.0752X0.0001*%
%ADD884R,0.0752X0.0000*%
%ADD885R,0.0750X0.0001*%
%ADD886R,0.0750X0.0000*%
%ADD887R,0.0748X0.0000*%
%ADD888R,0.0747X0.0001*%
%ADD889R,0.0747X0.0000*%
%ADD890R,0.0745X0.0001*%
%ADD891R,0.0745X0.0000*%
%ADD892R,0.0743X0.0000*%
%ADD893R,0.0742X0.0001*%
%ADD894R,0.0741X0.0000*%
%ADD895R,0.0740X0.0001*%
%ADD896R,0.0739X0.0000*%
%ADD897R,0.0738X0.0000*%
%ADD898R,0.0737X0.0001*%
%ADD899R,0.0736X0.0000*%
%ADD900R,0.0735X0.0001*%
%ADD901R,0.0734X0.0000*%
%ADD902R,0.0733X0.0000*%
%ADD903R,0.0732X0.0001*%
%ADD904R,0.0731X0.0000*%
%ADD905R,0.0730X0.0001*%
%ADD906R,0.0729X0.0000*%
%ADD907R,0.0728X0.0000*%
%ADD908R,0.0727X0.0001*%
%ADD909R,0.0726X0.0000*%
%ADD910R,0.0725X0.0001*%
%ADD911R,0.0724X0.0000*%
%ADD912R,0.0723X0.0000*%
%ADD913R,0.0722X0.0001*%
%ADD914R,0.0721X0.0000*%
%ADD915R,0.0720X0.0001*%
%ADD916R,0.0719X0.0000*%
%ADD917R,0.0718X0.0000*%
%ADD918R,0.0717X0.0001*%
%ADD919R,0.0716X0.0000*%
%ADD920R,0.0715X0.0001*%
%ADD921R,0.0714X0.0000*%
%ADD922R,0.0713X0.0000*%
%ADD923R,0.0712X0.0001*%
%ADD924R,0.0711X0.0000*%
%ADD925R,0.0710X0.0001*%
%ADD926R,0.0709X0.0000*%
%ADD927R,0.0707X0.0000*%
%ADD928R,0.0707X0.0001*%
%ADD929R,0.0705X0.0000*%
%ADD930R,0.0705X0.0001*%
%ADD931R,0.0703X0.0000*%
%ADD932R,0.0703X0.0000*%
%ADD933R,0.0702X0.0001*%
%ADD934R,0.0700X0.0000*%
%ADD935R,0.0700X0.0001*%
%ADD936R,0.0698X0.0000*%
%ADD937R,0.0698X0.0000*%
%ADD938R,0.0697X0.0001*%
%ADD939R,0.0695X0.0000*%
%ADD940R,0.0695X0.0001*%
%ADD941R,0.0693X0.0000*%
%ADD942R,0.0692X0.0000*%
%ADD943R,0.0691X0.0001*%
%ADD944R,0.0690X0.0000*%
%ADD945R,0.0689X0.0001*%
%ADD946R,0.0688X0.0000*%
%ADD947R,0.0687X0.0000*%
%ADD948R,0.0686X0.0001*%
%ADD949R,0.0685X0.0000*%
%ADD950R,0.0684X0.0001*%
%ADD951R,0.0683X0.0000*%
%ADD952R,0.0682X0.0000*%
%ADD953R,0.0681X0.0001*%
%ADD954R,0.0680X0.0000*%
%ADD955R,0.0679X0.0001*%
%ADD956R,0.0678X0.0000*%
%ADD957R,0.0677X0.0000*%
%ADD958R,0.0676X0.0001*%
%ADD959R,0.0675X0.0000*%
%ADD960R,0.0674X0.0001*%
%ADD961R,0.0673X0.0000*%
%ADD962R,0.0672X0.0000*%
%ADD963R,0.0671X0.0001*%
%ADD964R,0.0670X0.0000*%
%ADD965R,0.0669X0.0001*%
%ADD966R,0.0668X0.0000*%
%ADD967R,0.0667X0.0000*%
%ADD968R,0.0666X0.0001*%
%ADD969R,0.0665X0.0000*%
%ADD970R,0.0664X0.0001*%
%ADD971R,0.0663X0.0000*%
%ADD972R,0.0662X0.0000*%
%ADD973R,0.0661X0.0001*%
%ADD974R,0.0660X0.0000*%
%ADD975R,0.0659X0.0001*%
%ADD976R,0.0658X0.0000*%
%ADD977R,0.0657X0.0000*%
%ADD978R,0.0655X0.0001*%
%ADD979R,0.0655X0.0000*%
%ADD980R,0.0653X0.0001*%
%ADD981R,0.0653X0.0000*%
%ADD982R,0.0652X0.0000*%
%ADD983R,0.0650X0.0001*%
%ADD984R,0.0650X0.0000*%
%ADD985R,0.0648X0.0001*%
%ADD986R,0.0648X0.0000*%
%ADD987R,0.0647X0.0000*%
%ADD988R,0.0645X0.0001*%
%ADD989R,0.0645X0.0000*%
%ADD990R,0.0643X0.0001*%
%ADD991R,0.0642X0.0000*%
%ADD992R,0.0641X0.0000*%
%ADD993R,0.0640X0.0001*%
%ADD994R,0.0639X0.0000*%
%ADD995R,0.0638X0.0001*%
%ADD996R,0.0637X0.0000*%
%ADD997R,0.0636X0.0000*%
%ADD998R,0.0635X0.0001*%
%ADD999R,0.0634X0.0000*%
%ADD1000R,0.0633X0.0001*%
%ADD1001R,0.0632X0.0000*%
%ADD1002R,0.0631X0.0000*%
%ADD1003R,0.0630X0.0001*%
%ADD1004R,0.0629X0.0000*%
%ADD1005R,0.0628X0.0001*%
%ADD1006R,0.0627X0.0000*%
%ADD1007R,0.0626X0.0000*%
%ADD1008R,0.0625X0.0001*%
%ADD1009R,0.0624X0.0000*%
%ADD1010R,0.0623X0.0001*%
%ADD1011R,0.0622X0.0000*%
%ADD1012R,0.0621X0.0000*%
%ADD1013R,0.0620X0.0001*%
%ADD1014R,0.0619X0.0000*%
%ADD1015R,0.0618X0.0001*%
%ADD1016R,0.0617X0.0000*%
%ADD1017R,0.0616X0.0000*%
%ADD1018R,0.0615X0.0001*%
%ADD1019R,0.0614X0.0000*%
%ADD1020R,0.0613X0.0001*%
%ADD1021R,0.0612X0.0000*%
%ADD1022R,0.0611X0.0000*%
%ADD1023R,0.0610X0.0001*%
%ADD1024R,0.0609X0.0000*%
%ADD1025R,0.0607X0.0001*%
%ADD1026R,0.0607X0.0000*%
%ADD1027R,0.0605X0.0000*%
%ADD1028R,0.0605X0.0001*%
%ADD1029R,0.0603X0.0000*%
%ADD1030R,0.0602X0.0001*%
%ADD1031R,0.0602X0.0000*%
%ADD1032R,0.0600X0.0000*%
%ADD1033R,0.0600X0.0001*%
%ADD1034R,0.0598X0.0000*%
%ADD1035R,0.0597X0.0001*%
%ADD1036R,0.0597X0.0000*%
%ADD1037R,0.0595X0.0000*%
%ADD1038R,0.0595X0.0001*%
%ADD1039R,0.0593X0.0000*%
%ADD1040R,0.0592X0.0001*%
%ADD1041R,0.0591X0.0000*%
%ADD1042R,0.0590X0.0000*%
%ADD1043R,0.0589X0.0001*%
%ADD1044R,0.0588X0.0000*%
%ADD1045R,0.0587X0.0001*%
%ADD1046R,0.0586X0.0000*%
%ADD1047R,0.0585X0.0000*%
%ADD1048R,0.0584X0.0001*%
%ADD1049R,0.0583X0.0000*%
%ADD1050R,0.0582X0.0001*%
%ADD1051R,0.0581X0.0000*%
%ADD1052R,0.0580X0.0000*%
%ADD1053R,0.0579X0.0001*%
%ADD1054R,0.0578X0.0000*%
%ADD1055R,0.0577X0.0001*%
%ADD1056R,0.0576X0.0000*%
%ADD1057R,0.0575X0.0000*%
%ADD1058R,0.0574X0.0001*%
%ADD1059R,0.0573X0.0000*%
%ADD1060R,0.0571X0.0001*%
%ADD1061R,0.0568X0.0000*%
%ADD1062R,0.0565X0.0000*%
%ADD1063R,0.0563X0.0001*%
%ADD1064R,0.0560X0.0000*%
%ADD1065R,0.0557X0.0001*%
%ADD1066R,0.0554X0.0000*%
%ADD1067R,0.0551X0.0000*%
%ADD1068R,0.0548X0.0001*%
%ADD1069R,0.0545X0.0000*%
%ADD1070R,0.0542X0.0001*%
%ADD1071R,0.0537X0.0000*%
%ADD1072R,0.0533X0.0000*%
%ADD1073R,0.0530X0.0001*%
%ADD1074R,0.0526X0.0000*%
%ADD1075R,0.0522X0.0001*%
%ADD1076R,0.0518X0.0000*%
%ADD1077R,0.0513X0.0000*%
%ADD1078R,0.0508X0.0001*%
%ADD1079R,0.0503X0.0000*%
%ADD1080R,0.0496X0.0001*%
%ADD1081R,0.0489X0.0000*%
%ADD1082R,0.0477X0.0000*%
%ADD1083C,0.0000*%
D10*
X004095Y002060D02*
X004435Y002060D01*
X004265Y006090D02*
X004265Y006430D01*
X004095Y006260D02*
X004435Y006260D01*
D11*
X002440Y002870D02*
X002510Y002800D01*
X002650Y002800D01*
X002720Y002870D01*
X002720Y002940D01*
X002650Y003010D01*
X002580Y003010D01*
X002650Y003010D02*
X002720Y003080D01*
X002720Y003150D01*
X002650Y003220D01*
X002510Y003220D01*
X002440Y003150D01*
X002440Y005100D02*
X002720Y005380D01*
X002720Y005450D01*
X002650Y005520D01*
X002510Y005520D01*
X002440Y005450D01*
X002440Y005100D02*
X002720Y005100D01*
X005790Y005100D02*
X006070Y005100D01*
X005930Y005100D02*
X005930Y005520D01*
X005790Y005380D01*
X005860Y003220D02*
X006000Y003220D01*
X006070Y003150D01*
X005790Y002870D01*
X005860Y002800D01*
X006000Y002800D01*
X006070Y002870D01*
X006070Y003150D01*
X005860Y003220D02*
X005790Y003150D01*
X005790Y002870D01*
D12*
X006625Y003635D02*
X006625Y003935D01*
X006775Y003935D01*
X006825Y003885D01*
X006825Y003785D01*
X006775Y003735D01*
X006625Y003735D01*
X006947Y003735D02*
X007097Y003735D01*
X007147Y003785D01*
X007147Y003885D01*
X007097Y003935D01*
X006947Y003935D01*
X006947Y003635D01*
X007047Y003735D02*
X007147Y003635D01*
X007270Y003685D02*
X007320Y003635D01*
X007420Y003635D01*
X007470Y003685D01*
X007470Y003885D01*
X007420Y003935D01*
X007320Y003935D01*
X007270Y003885D01*
X007270Y003685D01*
X007592Y003685D02*
X007642Y003635D01*
X007742Y003635D01*
X007792Y003685D01*
X007792Y003785D01*
X007692Y003785D01*
X007592Y003885D02*
X007592Y003685D01*
X007592Y003885D02*
X007642Y003935D01*
X007742Y003935D01*
X007792Y003885D01*
X007651Y004285D02*
X007651Y004435D01*
X007751Y004535D01*
X007751Y004585D01*
X007651Y004435D02*
X007551Y004535D01*
X007551Y004585D01*
X007229Y004585D02*
X007229Y004285D01*
X007429Y004285D01*
X007107Y004585D02*
X006907Y004585D01*
X006907Y004285D01*
X006785Y004285D02*
X006584Y004285D01*
X006584Y004585D01*
X006785Y004585D01*
X006684Y004435D02*
X006584Y004435D01*
X006462Y004435D02*
X006412Y004385D01*
X006262Y004385D01*
X006262Y004285D02*
X006262Y004585D01*
X006412Y004585D01*
X006462Y004535D01*
X006462Y004435D01*
X006362Y004385D02*
X006462Y004285D01*
X006147Y004285D02*
X006047Y004285D01*
X006097Y004285D02*
X006097Y004585D01*
X006047Y004585D02*
X006147Y004585D01*
X005925Y004585D02*
X005725Y004585D01*
X005725Y004285D01*
X005725Y004435D02*
X005825Y004435D01*
X006907Y004435D02*
X007007Y004435D01*
X002887Y007322D02*
X002800Y007272D01*
X002732Y007290D01*
X002805Y007564D01*
X002905Y007390D01*
X002887Y007322D01*
X002732Y007290D02*
X002632Y007464D01*
X002650Y007532D01*
X002737Y007582D01*
X002805Y007564D01*
X002636Y007235D02*
X002592Y007210D01*
X002617Y007166D01*
X002661Y007191D01*
X002636Y007235D01*
X002512Y007105D02*
X002338Y007005D01*
X002425Y007055D02*
X002275Y007315D01*
X002238Y007179D01*
X002132Y007118D02*
X002146Y006894D01*
X001959Y007018D01*
D13*
X000716Y003635D03*
D14*
X001333Y003635D03*
D15*
X001333Y003635D03*
X000716Y003635D03*
D16*
X000716Y003636D03*
D17*
X001333Y003636D03*
D18*
X000716Y003636D03*
D19*
X001333Y003636D03*
X001333Y003886D03*
D20*
X001333Y003637D03*
X000716Y003637D03*
D21*
X000716Y003638D03*
D22*
X001333Y003638D03*
D23*
X001333Y003638D03*
X000716Y003638D03*
D24*
X000716Y003639D03*
X001333Y003639D03*
D25*
X001333Y003639D03*
X001333Y003884D03*
X000716Y003639D03*
D26*
X000716Y003639D03*
X001333Y003639D03*
D27*
X000716Y003640D03*
D28*
X001333Y003640D03*
D29*
X000716Y003640D03*
D30*
X001333Y003640D03*
D31*
X000716Y003641D03*
D32*
X001333Y003641D03*
D33*
X001333Y003641D03*
X001333Y003881D03*
X000716Y003641D03*
D34*
X000716Y003642D03*
X001333Y003642D03*
D35*
X001333Y003643D03*
X000716Y003643D03*
D36*
X000716Y003643D03*
D37*
X001333Y003643D03*
D38*
X000716Y003644D03*
D39*
X001333Y003644D03*
D40*
X001333Y003644D03*
X000716Y003644D03*
D41*
X000716Y003644D03*
D42*
X001333Y003644D03*
D43*
X000716Y003645D03*
D44*
X001333Y003645D03*
D45*
X000716Y003645D03*
D46*
X000716Y003874D03*
X001333Y003645D03*
D47*
X000716Y003646D03*
X000716Y003874D03*
D48*
X001333Y003646D03*
D49*
X000716Y003646D03*
D50*
X001333Y003646D03*
X001333Y003876D03*
D51*
X000716Y003873D03*
X000716Y003647D03*
D52*
X001333Y003647D03*
D53*
X001333Y003648D03*
X001333Y003875D03*
X000716Y003648D03*
D54*
X000716Y003648D03*
D55*
X000716Y003872D03*
X001333Y003648D03*
D56*
X001333Y003649D03*
X000716Y003649D03*
X000716Y003871D03*
D57*
X000716Y003649D03*
D58*
X001333Y003649D03*
X001333Y003874D03*
D59*
X001333Y003873D03*
X001333Y003649D03*
X000716Y003649D03*
D60*
X000716Y003650D03*
D61*
X000716Y003870D03*
X001333Y003874D03*
X001333Y003650D03*
D62*
X000716Y003650D03*
D63*
X001333Y003650D03*
X001333Y003872D03*
D64*
X000716Y003869D03*
X000716Y003651D03*
D65*
X001333Y003651D03*
X001333Y003873D03*
D66*
X000716Y003868D03*
X000716Y003653D03*
X000716Y003651D03*
D67*
X000716Y003869D03*
X001333Y003871D03*
X001333Y003651D03*
D68*
X000716Y003652D03*
X000716Y003868D03*
D69*
X001333Y003870D03*
X001333Y003652D03*
D70*
X001333Y003653D03*
X001333Y003871D03*
D71*
X000716Y003867D03*
X000716Y003653D03*
D72*
X001333Y003653D03*
D73*
X001333Y003654D03*
X001333Y003654D03*
X001333Y003869D03*
X001333Y003869D03*
X000716Y003866D03*
X000716Y003866D03*
X000716Y003654D03*
X000716Y003654D03*
D74*
X000716Y003654D03*
D75*
X000716Y003865D03*
X001333Y003869D03*
X001333Y003654D03*
D76*
X000716Y003655D03*
X000716Y003865D03*
D77*
X001333Y003655D03*
D78*
X001333Y003655D03*
X001333Y003657D03*
X001333Y003865D03*
X001333Y003867D03*
X000716Y003864D03*
X000716Y003863D03*
X000716Y003657D03*
X000716Y003655D03*
D79*
X000716Y003656D03*
X000716Y003656D03*
X000716Y003863D03*
X000716Y003864D03*
X000716Y003864D03*
X001333Y003866D03*
X001333Y003866D03*
X001333Y003868D03*
X001333Y003658D03*
X001333Y003656D03*
X001333Y003656D03*
D80*
X000716Y003658D03*
X000716Y003659D03*
X000716Y003659D03*
X000716Y003660D03*
X000716Y003661D03*
X000716Y003661D03*
X000716Y003663D03*
X000716Y003664D03*
X000716Y003664D03*
X000716Y003665D03*
X000716Y003666D03*
X000716Y003666D03*
X000716Y003668D03*
X000716Y003669D03*
X000716Y003669D03*
X000716Y003670D03*
X000716Y003671D03*
X000716Y003671D03*
X000716Y003673D03*
X000716Y003674D03*
X000716Y003674D03*
X000716Y003675D03*
X000716Y003676D03*
X000716Y003676D03*
X000716Y003678D03*
X000716Y003679D03*
X000716Y003679D03*
X000716Y003680D03*
X000716Y003681D03*
X000716Y003681D03*
X000716Y003683D03*
X000716Y003684D03*
X000716Y003684D03*
X000716Y003685D03*
X000716Y003686D03*
X000716Y003686D03*
X000716Y003688D03*
X000716Y003689D03*
X000716Y003689D03*
X000716Y003690D03*
X000716Y003691D03*
X000716Y003691D03*
X000716Y003693D03*
X000716Y003694D03*
X000716Y003694D03*
X000716Y003695D03*
X000716Y003696D03*
X000716Y003696D03*
X000716Y003698D03*
X000716Y003699D03*
X000716Y003699D03*
X000716Y003700D03*
X000716Y003701D03*
X000716Y003701D03*
X000716Y003703D03*
X000716Y003704D03*
X000716Y003704D03*
X000716Y003705D03*
X000716Y003706D03*
X000716Y003706D03*
X000716Y003708D03*
X000716Y003709D03*
X000716Y003709D03*
X000716Y003710D03*
X000716Y003711D03*
X000716Y003711D03*
X000716Y003713D03*
X000716Y003714D03*
X000716Y003714D03*
X000716Y003715D03*
X000716Y003716D03*
X000716Y003716D03*
X000716Y003718D03*
X000716Y003719D03*
X000716Y003719D03*
X000716Y003720D03*
X000716Y003721D03*
X000716Y003721D03*
X000716Y003723D03*
X000716Y003724D03*
X000716Y003724D03*
X000716Y003725D03*
X000716Y003726D03*
X000716Y003726D03*
X000716Y003728D03*
X000716Y003729D03*
X000716Y003729D03*
X000716Y003730D03*
X000716Y003731D03*
X000716Y003731D03*
X000716Y003733D03*
X000716Y003734D03*
X000716Y003734D03*
X000716Y003735D03*
X000716Y003736D03*
X000716Y003736D03*
X000716Y003738D03*
X000716Y003739D03*
X000716Y003739D03*
X000716Y003740D03*
X000716Y003741D03*
X000716Y003741D03*
X000716Y003743D03*
X000716Y003744D03*
X000716Y003744D03*
X000716Y003745D03*
X000716Y003746D03*
X000716Y003746D03*
X000716Y003748D03*
X000716Y003749D03*
X000716Y003749D03*
X000716Y003750D03*
X000716Y003751D03*
X000716Y003751D03*
X000716Y003753D03*
X000716Y003754D03*
X000716Y003754D03*
X000716Y003755D03*
X000716Y003756D03*
X000716Y003756D03*
X000716Y003758D03*
X000716Y003759D03*
X000716Y003759D03*
X000716Y003760D03*
X000716Y003761D03*
X000716Y003761D03*
X000716Y003763D03*
X000716Y003764D03*
X000716Y003764D03*
X000716Y003765D03*
X000716Y003766D03*
X000716Y003766D03*
X000716Y003768D03*
X000716Y003769D03*
X000716Y003769D03*
X000716Y003770D03*
X000716Y003771D03*
X000716Y003771D03*
X000716Y003773D03*
X000716Y003774D03*
X000716Y003774D03*
X000716Y003775D03*
X000716Y003776D03*
X000716Y003776D03*
X000716Y003778D03*
X000716Y003779D03*
X000716Y003779D03*
X000716Y003780D03*
X000716Y003781D03*
X000716Y003781D03*
X000716Y003783D03*
X000716Y003784D03*
X000716Y003784D03*
X000716Y003785D03*
X000716Y003786D03*
X000716Y003786D03*
X000716Y003788D03*
X000716Y003789D03*
X000716Y003789D03*
X000716Y003790D03*
X000716Y003791D03*
X000716Y003791D03*
X000716Y003793D03*
X000716Y003794D03*
X000716Y003794D03*
X000716Y003795D03*
X000716Y003796D03*
X000716Y003796D03*
X000716Y003798D03*
X000716Y003799D03*
X000716Y003799D03*
X000716Y003800D03*
X000716Y003801D03*
X000716Y003801D03*
X000716Y003803D03*
X000716Y003804D03*
X000716Y003804D03*
X000716Y003805D03*
X000716Y003806D03*
X000716Y003806D03*
X000716Y003808D03*
X000716Y003809D03*
X000716Y003809D03*
X000716Y003810D03*
X000716Y003811D03*
X000716Y003811D03*
X000716Y003813D03*
X000716Y003814D03*
X000716Y003814D03*
X000716Y003815D03*
X000716Y003816D03*
X000716Y003816D03*
X000716Y003818D03*
X000716Y003819D03*
X000716Y003819D03*
X000716Y003820D03*
X000716Y003821D03*
X000716Y003821D03*
X000716Y003823D03*
X000716Y003824D03*
X000716Y003824D03*
X000716Y003825D03*
X000716Y003826D03*
X000716Y003826D03*
X000716Y003828D03*
X000716Y003829D03*
X000716Y003829D03*
X000716Y003830D03*
X000716Y003831D03*
X000716Y003831D03*
X000716Y003833D03*
X000716Y003834D03*
X000716Y003834D03*
X000716Y003835D03*
X000716Y003836D03*
X000716Y003836D03*
X000716Y003838D03*
X000716Y003839D03*
X000716Y003839D03*
X000716Y003840D03*
X000716Y003841D03*
X000716Y003841D03*
X000716Y003843D03*
X000716Y003844D03*
X000716Y003844D03*
X000716Y003845D03*
X000716Y003846D03*
X000716Y003846D03*
X000716Y003848D03*
X000716Y003849D03*
X000716Y003849D03*
X000716Y003850D03*
X000716Y003851D03*
X000716Y003851D03*
X000716Y003853D03*
X000716Y003854D03*
X000716Y003854D03*
X000716Y003855D03*
X000716Y003856D03*
X000716Y003856D03*
X000716Y003858D03*
X000716Y003859D03*
X000716Y003859D03*
X000716Y003860D03*
X000716Y003861D03*
X000716Y003861D03*
D81*
X000716Y003860D03*
X000716Y003859D03*
X000716Y003858D03*
X000716Y003857D03*
X000716Y003855D03*
X000716Y003854D03*
X000716Y003853D03*
X000716Y003852D03*
X000716Y003850D03*
X000716Y003849D03*
X000716Y003848D03*
X000716Y003847D03*
X000716Y003845D03*
X000716Y003844D03*
X000716Y003843D03*
X000716Y003842D03*
X000716Y003840D03*
X000716Y003839D03*
X000716Y003838D03*
X000716Y003837D03*
X000716Y003835D03*
X000716Y003834D03*
X000716Y003833D03*
X000716Y003832D03*
X000716Y003830D03*
X000716Y003829D03*
X000716Y003828D03*
X000716Y003827D03*
X000716Y003825D03*
X000716Y003824D03*
X000716Y003823D03*
X000716Y003822D03*
X000716Y003820D03*
X000716Y003819D03*
X000716Y003818D03*
X000716Y003817D03*
X000716Y003815D03*
X000716Y003814D03*
X000716Y003813D03*
X000716Y003812D03*
X000716Y003810D03*
X000716Y003809D03*
X000716Y003808D03*
X000716Y003807D03*
X000716Y003805D03*
X000716Y003804D03*
X000716Y003803D03*
X000716Y003802D03*
X000716Y003800D03*
X000716Y003799D03*
X000716Y003798D03*
X000716Y003797D03*
X000716Y003795D03*
X000716Y003794D03*
X000716Y003793D03*
X000716Y003792D03*
X000716Y003790D03*
X000716Y003789D03*
X000716Y003788D03*
X000716Y003787D03*
X000716Y003785D03*
X000716Y003784D03*
X000716Y003783D03*
X000716Y003782D03*
X000716Y003780D03*
X000716Y003779D03*
X000716Y003778D03*
X000716Y003777D03*
X000716Y003775D03*
X000716Y003774D03*
X000716Y003773D03*
X000716Y003772D03*
X000716Y003770D03*
X000716Y003769D03*
X000716Y003768D03*
X000716Y003767D03*
X000716Y003765D03*
X000716Y003764D03*
X000716Y003763D03*
X000716Y003762D03*
X000716Y003760D03*
X000716Y003759D03*
X000716Y003758D03*
X000716Y003757D03*
X000716Y003755D03*
X000716Y003754D03*
X000716Y003753D03*
X000716Y003752D03*
X000716Y003750D03*
X000716Y003749D03*
X000716Y003748D03*
X000716Y003747D03*
X000716Y003745D03*
X000716Y003744D03*
X000716Y003743D03*
X000716Y003742D03*
X000716Y003740D03*
X000716Y003739D03*
X000716Y003738D03*
X000716Y003737D03*
X000716Y003735D03*
X000716Y003734D03*
X000716Y003733D03*
X000716Y003732D03*
X000716Y003730D03*
X000716Y003729D03*
X000716Y003728D03*
X000716Y003727D03*
X000716Y003725D03*
X000716Y003724D03*
X000716Y003723D03*
X000716Y003722D03*
X000716Y003720D03*
X000716Y003719D03*
X000716Y003718D03*
X000716Y003717D03*
X000716Y003715D03*
X000716Y003714D03*
X000716Y003713D03*
X000716Y003712D03*
X000716Y003710D03*
X000716Y003709D03*
X000716Y003708D03*
X000716Y003707D03*
X000716Y003705D03*
X000716Y003704D03*
X000716Y003703D03*
X000716Y003702D03*
X000716Y003700D03*
X000716Y003699D03*
X000716Y003698D03*
X000716Y003697D03*
X000716Y003695D03*
X000716Y003694D03*
X000716Y003693D03*
X000716Y003692D03*
X000716Y003690D03*
X000716Y003689D03*
X000716Y003688D03*
X000716Y003687D03*
X000716Y003685D03*
X000716Y003684D03*
X000716Y003683D03*
X000716Y003682D03*
X000716Y003680D03*
X000716Y003679D03*
X000716Y003678D03*
X000716Y003677D03*
X000716Y003675D03*
X000716Y003674D03*
X000716Y003673D03*
X000716Y003672D03*
X000716Y003670D03*
X000716Y003669D03*
X000716Y003668D03*
X000716Y003667D03*
X000716Y003665D03*
X000716Y003664D03*
X000716Y003663D03*
X000716Y003662D03*
X000716Y003660D03*
X000716Y003659D03*
X000716Y003658D03*
X000716Y003862D03*
D82*
X001333Y003863D03*
X001333Y003862D03*
X001333Y003860D03*
X001333Y003859D03*
X001333Y003858D03*
X001333Y003857D03*
X001333Y003855D03*
X001333Y003854D03*
X001333Y003853D03*
X001333Y003852D03*
X001333Y003850D03*
X001333Y003849D03*
X001333Y003848D03*
X001333Y003847D03*
X001333Y003845D03*
X001333Y003844D03*
X001333Y003843D03*
X001333Y003842D03*
X001333Y003840D03*
X001333Y003839D03*
X001333Y003838D03*
X001333Y003837D03*
X001333Y003835D03*
X001333Y003834D03*
X001333Y003833D03*
X001333Y003832D03*
X001333Y003830D03*
X001333Y003829D03*
X001333Y003828D03*
X001333Y003827D03*
X001333Y003825D03*
X001333Y003824D03*
X001333Y003823D03*
X001333Y003822D03*
X001333Y003820D03*
X001333Y003819D03*
X001333Y003818D03*
X001333Y003817D03*
X001333Y003815D03*
X001333Y003814D03*
X001333Y003813D03*
X001333Y003812D03*
X001333Y003810D03*
X001333Y003809D03*
X001333Y003808D03*
X001333Y003807D03*
X001333Y003805D03*
X001333Y003804D03*
X001333Y003803D03*
X001333Y003802D03*
X001333Y003800D03*
X001333Y003799D03*
X001333Y003798D03*
X001333Y003797D03*
X001333Y003795D03*
X001333Y003794D03*
X001333Y003793D03*
X001333Y003792D03*
X001333Y003790D03*
X001333Y003789D03*
X001333Y003788D03*
X001333Y003787D03*
X001333Y003785D03*
X001333Y003784D03*
X001333Y003783D03*
X001333Y003782D03*
X001333Y003780D03*
X001333Y003779D03*
X001333Y003778D03*
X001333Y003777D03*
X001333Y003775D03*
X001333Y003774D03*
X001333Y003773D03*
X001333Y003772D03*
X001333Y003770D03*
X001333Y003769D03*
X001333Y003768D03*
X001333Y003767D03*
X001333Y003765D03*
X001333Y003764D03*
X001333Y003763D03*
X001333Y003762D03*
X001333Y003760D03*
X001333Y003759D03*
X001333Y003758D03*
X001333Y003757D03*
X001333Y003755D03*
X001333Y003754D03*
X001333Y003753D03*
X001333Y003752D03*
X001333Y003750D03*
X001333Y003749D03*
X001333Y003748D03*
X001333Y003747D03*
X001333Y003745D03*
X001333Y003744D03*
X001333Y003743D03*
X001333Y003742D03*
X001333Y003740D03*
X001333Y003739D03*
X001333Y003738D03*
X001333Y003737D03*
X001333Y003735D03*
X001333Y003734D03*
X001333Y003733D03*
X001333Y003732D03*
X001333Y003730D03*
X001333Y003729D03*
X001333Y003728D03*
X001333Y003727D03*
X001333Y003725D03*
X001333Y003724D03*
X001333Y003723D03*
X001333Y003722D03*
X001333Y003720D03*
X001333Y003719D03*
X001333Y003718D03*
X001333Y003717D03*
X001333Y003715D03*
X001333Y003714D03*
X001333Y003713D03*
X001333Y003712D03*
X001333Y003710D03*
X001333Y003709D03*
X001333Y003708D03*
X001333Y003707D03*
X001333Y003705D03*
X001333Y003704D03*
X001333Y003703D03*
X001333Y003702D03*
X001333Y003700D03*
X001333Y003699D03*
X001333Y003698D03*
X001333Y003697D03*
X001333Y003695D03*
X001333Y003694D03*
X001333Y003693D03*
X001333Y003692D03*
X001333Y003690D03*
X001333Y003689D03*
X001333Y003688D03*
X001333Y003687D03*
X001333Y003685D03*
X001333Y003684D03*
X001333Y003683D03*
X001333Y003682D03*
X001333Y003680D03*
X001333Y003679D03*
X001333Y003678D03*
X001333Y003677D03*
X001333Y003675D03*
X001333Y003674D03*
X001333Y003673D03*
X001333Y003672D03*
X001333Y003670D03*
X001333Y003669D03*
X001333Y003668D03*
X001333Y003667D03*
X001333Y003665D03*
X001333Y003664D03*
X001333Y003663D03*
X001333Y003662D03*
X001333Y003660D03*
X001333Y003659D03*
X001333Y003658D03*
X001333Y003864D03*
D83*
X001333Y003864D03*
X001333Y003864D03*
X001333Y003865D03*
X001333Y003863D03*
X001333Y003861D03*
X001333Y003861D03*
X001333Y003860D03*
X001333Y003859D03*
X001333Y003859D03*
X001333Y003858D03*
X001333Y003856D03*
X001333Y003856D03*
X001333Y003855D03*
X001333Y003854D03*
X001333Y003854D03*
X001333Y003853D03*
X001333Y003851D03*
X001333Y003851D03*
X001333Y003850D03*
X001333Y003849D03*
X001333Y003849D03*
X001333Y003848D03*
X001333Y003846D03*
X001333Y003846D03*
X001333Y003845D03*
X001333Y003844D03*
X001333Y003844D03*
X001333Y003843D03*
X001333Y003841D03*
X001333Y003841D03*
X001333Y003840D03*
X001333Y003839D03*
X001333Y003839D03*
X001333Y003838D03*
X001333Y003836D03*
X001333Y003836D03*
X001333Y003835D03*
X001333Y003834D03*
X001333Y003834D03*
X001333Y003833D03*
X001333Y003831D03*
X001333Y003831D03*
X001333Y003830D03*
X001333Y003829D03*
X001333Y003829D03*
X001333Y003828D03*
X001333Y003826D03*
X001333Y003826D03*
X001333Y003825D03*
X001333Y003824D03*
X001333Y003824D03*
X001333Y003823D03*
X001333Y003821D03*
X001333Y003821D03*
X001333Y003820D03*
X001333Y003819D03*
X001333Y003819D03*
X001333Y003818D03*
X001333Y003816D03*
X001333Y003816D03*
X001333Y003815D03*
X001333Y003814D03*
X001333Y003814D03*
X001333Y003813D03*
X001333Y003811D03*
X001333Y003811D03*
X001333Y003810D03*
X001333Y003809D03*
X001333Y003809D03*
X001333Y003808D03*
X001333Y003806D03*
X001333Y003806D03*
X001333Y003805D03*
X001333Y003804D03*
X001333Y003804D03*
X001333Y003803D03*
X001333Y003801D03*
X001333Y003801D03*
X001333Y003800D03*
X001333Y003799D03*
X001333Y003799D03*
X001333Y003798D03*
X001333Y003796D03*
X001333Y003796D03*
X001333Y003795D03*
X001333Y003794D03*
X001333Y003794D03*
X001333Y003793D03*
X001333Y003791D03*
X001333Y003791D03*
X001333Y003790D03*
X001333Y003789D03*
X001333Y003789D03*
X001333Y003788D03*
X001333Y003786D03*
X001333Y003786D03*
X001333Y003785D03*
X001333Y003784D03*
X001333Y003784D03*
X001333Y003783D03*
X001333Y003781D03*
X001333Y003781D03*
X001333Y003780D03*
X001333Y003779D03*
X001333Y003779D03*
X001333Y003778D03*
X001333Y003776D03*
X001333Y003776D03*
X001333Y003775D03*
X001333Y003774D03*
X001333Y003774D03*
X001333Y003773D03*
X001333Y003771D03*
X001333Y003771D03*
X001333Y003770D03*
X001333Y003769D03*
X001333Y003769D03*
X001333Y003768D03*
X001333Y003766D03*
X001333Y003766D03*
X001333Y003765D03*
X001333Y003764D03*
X001333Y003764D03*
X001333Y003763D03*
X001333Y003761D03*
X001333Y003761D03*
X001333Y003760D03*
X001333Y003759D03*
X001333Y003759D03*
X001333Y003758D03*
X001333Y003756D03*
X001333Y003756D03*
X001333Y003755D03*
X001333Y003754D03*
X001333Y003754D03*
X001333Y003753D03*
X001333Y003751D03*
X001333Y003751D03*
X001333Y003750D03*
X001333Y003749D03*
X001333Y003749D03*
X001333Y003748D03*
X001333Y003746D03*
X001333Y003746D03*
X001333Y003745D03*
X001333Y003744D03*
X001333Y003744D03*
X001333Y003743D03*
X001333Y003741D03*
X001333Y003741D03*
X001333Y003740D03*
X001333Y003739D03*
X001333Y003739D03*
X001333Y003738D03*
X001333Y003736D03*
X001333Y003736D03*
X001333Y003735D03*
X001333Y003734D03*
X001333Y003734D03*
X001333Y003733D03*
X001333Y003731D03*
X001333Y003731D03*
X001333Y003730D03*
X001333Y003729D03*
X001333Y003729D03*
X001333Y003728D03*
X001333Y003726D03*
X001333Y003726D03*
X001333Y003725D03*
X001333Y003724D03*
X001333Y003724D03*
X001333Y003723D03*
X001333Y003721D03*
X001333Y003721D03*
X001333Y003720D03*
X001333Y003719D03*
X001333Y003719D03*
X001333Y003718D03*
X001333Y003716D03*
X001333Y003716D03*
X001333Y003715D03*
X001333Y003714D03*
X001333Y003714D03*
X001333Y003713D03*
X001333Y003711D03*
X001333Y003711D03*
X001333Y003710D03*
X001333Y003709D03*
X001333Y003709D03*
X001333Y003708D03*
X001333Y003706D03*
X001333Y003706D03*
X001333Y003705D03*
X001333Y003704D03*
X001333Y003704D03*
X001333Y003703D03*
X001333Y003701D03*
X001333Y003701D03*
X001333Y003700D03*
X001333Y003699D03*
X001333Y003699D03*
X001333Y003698D03*
X001333Y003696D03*
X001333Y003696D03*
X001333Y003695D03*
X001333Y003694D03*
X001333Y003694D03*
X001333Y003693D03*
X001333Y003691D03*
X001333Y003691D03*
X001333Y003690D03*
X001333Y003689D03*
X001333Y003689D03*
X001333Y003688D03*
X001333Y003686D03*
X001333Y003686D03*
X001333Y003685D03*
X001333Y003684D03*
X001333Y003684D03*
X001333Y003683D03*
X001333Y003681D03*
X001333Y003681D03*
X001333Y003680D03*
X001333Y003679D03*
X001333Y003679D03*
X001333Y003678D03*
X001333Y003676D03*
X001333Y003676D03*
X001333Y003675D03*
X001333Y003674D03*
X001333Y003674D03*
X001333Y003673D03*
X001333Y003671D03*
X001333Y003671D03*
X001333Y003670D03*
X001333Y003669D03*
X001333Y003669D03*
X001333Y003668D03*
X001333Y003666D03*
X001333Y003666D03*
X001333Y003665D03*
X001333Y003664D03*
X001333Y003664D03*
X001333Y003663D03*
X001333Y003661D03*
X001333Y003661D03*
X001333Y003660D03*
X001333Y003659D03*
X001333Y003659D03*
D84*
X001333Y003868D03*
D85*
X000716Y003869D03*
D86*
X001333Y003870D03*
D87*
X000716Y003870D03*
D88*
X000716Y003871D03*
D89*
X000716Y003873D03*
D90*
X000716Y003874D03*
D91*
X001333Y003874D03*
D92*
X000716Y003875D03*
D93*
X000716Y003875D03*
D94*
X001333Y003875D03*
D95*
X000716Y003876D03*
D96*
X001333Y003876D03*
D97*
X000716Y003876D03*
D98*
X000716Y003877D03*
D99*
X001333Y003877D03*
D100*
X000716Y003878D03*
D101*
X001333Y003878D03*
D102*
X000716Y003878D03*
D103*
X001333Y003878D03*
D104*
X000716Y003879D03*
D105*
X001333Y003879D03*
D106*
X000716Y003879D03*
D107*
X001333Y003879D03*
D108*
X000716Y003879D03*
D109*
X001333Y003879D03*
D110*
X000716Y003880D03*
D111*
X001333Y003880D03*
D112*
X000716Y003880D03*
D113*
X001333Y003880D03*
D114*
X000716Y003881D03*
D115*
X001333Y003881D03*
D116*
X000716Y003881D03*
D117*
X000716Y003882D03*
D118*
X001333Y003882D03*
D119*
X000716Y003883D03*
D120*
X001333Y003883D03*
D121*
X000716Y003883D03*
D122*
X001333Y003883D03*
D123*
X000716Y003884D03*
D124*
X001333Y003884D03*
D125*
X000716Y003884D03*
D126*
X000716Y003884D03*
D127*
X001333Y003884D03*
D128*
X000718Y003885D03*
D129*
X001333Y003885D03*
D130*
X000718Y003885D03*
X000718Y003887D03*
D131*
X001333Y003885D03*
D132*
X000718Y003886D03*
X000718Y003886D03*
D133*
X001333Y003886D03*
D134*
X001333Y003887D03*
D135*
X000717Y003888D03*
X000717Y003889D03*
D136*
X001333Y003888D03*
D137*
X000717Y003888D03*
D138*
X001333Y003888D03*
D139*
X001337Y003889D03*
X001337Y003889D03*
X001337Y003890D03*
D140*
X000717Y003890D03*
X000717Y003889D03*
D141*
X000717Y003889D03*
X000717Y003890D03*
D142*
X001337Y003889D03*
D143*
X001337Y003890D03*
X001337Y003892D03*
X000708Y003949D03*
D144*
X000717Y003891D03*
X000717Y003891D03*
D145*
X000708Y003949D03*
X000708Y003949D03*
X000708Y003950D03*
X001337Y003891D03*
X001337Y003891D03*
D146*
X000717Y003892D03*
D147*
X000716Y003893D03*
X000716Y003894D03*
D148*
X001338Y003894D03*
X001338Y003894D03*
X001338Y003893D03*
D149*
X000716Y003893D03*
D150*
X001338Y003893D03*
D151*
X000716Y003894D03*
X000716Y003895D03*
D152*
X000716Y003895D03*
X000716Y003894D03*
D153*
X000708Y003952D03*
X000708Y003953D03*
X001338Y003895D03*
X001338Y003894D03*
D154*
X001338Y003895D03*
X001338Y003896D03*
X000708Y003953D03*
D155*
X000716Y003896D03*
X000716Y003896D03*
D156*
X000708Y003954D03*
X000708Y003954D03*
X000708Y003955D03*
X001338Y003899D03*
X001338Y003898D03*
X001338Y003896D03*
D157*
X000716Y003897D03*
D158*
X000708Y003954D03*
X001338Y003898D03*
X001338Y003897D03*
D159*
X000716Y003898D03*
X000716Y003899D03*
X000716Y003899D03*
D160*
X000716Y003898D03*
D161*
X001338Y003899D03*
X001338Y003900D03*
D162*
X000715Y003900D03*
X000715Y003899D03*
D163*
X001338Y003899D03*
X001338Y003900D03*
D164*
X000715Y003900D03*
D165*
X000715Y003901D03*
X000715Y003901D03*
D166*
X000707Y003958D03*
X000707Y003959D03*
X001338Y003903D03*
X001338Y003901D03*
X001338Y003901D03*
D167*
X000715Y003902D03*
D168*
X000707Y003957D03*
X000707Y003958D03*
X001338Y003902D03*
D169*
X000715Y003903D03*
X000715Y003904D03*
X000715Y003904D03*
D170*
X000715Y003903D03*
D171*
X001339Y003903D03*
X001339Y003904D03*
D172*
X001339Y003904D03*
X001339Y003904D03*
D173*
X000715Y003904D03*
X000715Y003905D03*
D174*
X000715Y003905D03*
D175*
X000706Y003961D03*
X000706Y003961D03*
X001339Y003906D03*
X001339Y003906D03*
X001339Y003905D03*
D176*
X001339Y003905D03*
X000706Y003960D03*
D177*
X000714Y003908D03*
X000714Y003906D03*
X000714Y003906D03*
D178*
X000714Y003907D03*
D179*
X000706Y003962D03*
X000706Y003963D03*
X001339Y003908D03*
X001339Y003907D03*
D180*
X001339Y003908D03*
X001339Y003909D03*
X000706Y003963D03*
X000706Y003964D03*
D181*
X000714Y003908D03*
D182*
X000714Y003909D03*
X000714Y003909D03*
D183*
X001339Y003910D03*
X001339Y003909D03*
X001339Y003911D03*
D184*
X000714Y003910D03*
X000714Y003909D03*
D185*
X001339Y003909D03*
X001339Y003910D03*
D186*
X000714Y003910D03*
D187*
X000714Y003911D03*
X000714Y003911D03*
X000714Y003913D03*
D188*
X000706Y003966D03*
X000706Y003966D03*
X001340Y003913D03*
X001340Y003911D03*
D189*
X000714Y003912D03*
D190*
X000706Y003965D03*
X000706Y003967D03*
X001340Y003913D03*
X001340Y003912D03*
D191*
X000714Y003913D03*
D192*
X000714Y003914D03*
X000714Y003914D03*
D193*
X001340Y003915D03*
X001340Y003914D03*
X001340Y003914D03*
D194*
X000713Y003914D03*
X000713Y003915D03*
D195*
X001340Y003914D03*
D196*
X000713Y003915D03*
X000713Y003916D03*
D197*
X000705Y003969D03*
X001340Y003917D03*
X001340Y003915D03*
D198*
X001340Y003916D03*
X001340Y003916D03*
X000705Y003969D03*
X000705Y003970D03*
D199*
X000713Y003918D03*
X000713Y003916D03*
D200*
X000713Y003917D03*
D201*
X000705Y003971D03*
X000705Y003971D03*
X001340Y003919D03*
X001340Y003919D03*
X001340Y003918D03*
D202*
X000713Y003918D03*
D203*
X000705Y003970D03*
X000705Y003972D03*
X001340Y003918D03*
D204*
X000713Y003919D03*
X000713Y003919D03*
D205*
X000713Y003919D03*
X000713Y003920D03*
D206*
X001341Y003920D03*
X001341Y003919D03*
D207*
X000713Y003920D03*
X000713Y003921D03*
D208*
X001341Y003921D03*
X001341Y003920D03*
D209*
X000712Y003921D03*
X000712Y003923D03*
D210*
X000704Y003974D03*
X000704Y003975D03*
X001341Y003924D03*
X001341Y003923D03*
X001341Y003921D03*
D211*
X000712Y003922D03*
D212*
X000704Y003974D03*
X000704Y003975D03*
X001341Y003923D03*
X001341Y003922D03*
D213*
X000712Y003923D03*
X000712Y003924D03*
D214*
X000712Y003924D03*
X000712Y003924D03*
D215*
X001341Y003925D03*
X001341Y003924D03*
D216*
X001341Y003924D03*
X001341Y003925D03*
D217*
X000712Y003926D03*
X000712Y003925D03*
D218*
X000712Y003925D03*
D219*
X000704Y003978D03*
X000704Y003979D03*
X001341Y003928D03*
X001341Y003926D03*
X001341Y003926D03*
D220*
X000711Y003926D03*
X000711Y003928D03*
D221*
X000711Y003927D03*
D222*
X000704Y003978D03*
X001341Y003927D03*
D223*
X000711Y003928D03*
X000711Y003929D03*
D224*
X000704Y003979D03*
X000704Y003980D03*
X001342Y003929D03*
X001342Y003928D03*
D225*
X000711Y003929D03*
X000711Y003929D03*
D226*
X000704Y003979D03*
X000704Y003980D03*
X001342Y003929D03*
X001342Y003929D03*
D227*
X000711Y003930D03*
X000711Y003931D03*
D228*
X001342Y003931D03*
X001342Y003931D03*
X001342Y003930D03*
D229*
X000711Y003930D03*
D230*
X001342Y003930D03*
D231*
X000711Y003931D03*
X000711Y003933D03*
D232*
X000711Y003933D03*
X000711Y003932D03*
D233*
X000703Y003983D03*
X001342Y003933D03*
X001342Y003932D03*
D234*
X001342Y003933D03*
X001342Y003934D03*
X000703Y003983D03*
X000703Y003984D03*
X000703Y003984D03*
D235*
X000710Y003934D03*
X000710Y003934D03*
D236*
X001343Y003935D03*
X001343Y003936D03*
X001343Y003934D03*
D237*
X000710Y003934D03*
D238*
X001343Y003934D03*
X001343Y003935D03*
D239*
X000710Y003936D03*
X000710Y003935D03*
D240*
X000710Y003935D03*
D241*
X000710Y003936D03*
X000710Y003938D03*
D242*
X000703Y003986D03*
X000703Y003986D03*
X001343Y003938D03*
X001343Y003936D03*
D243*
X000710Y003937D03*
X000710Y003938D03*
D244*
X000703Y003987D03*
X001343Y003938D03*
X001343Y003937D03*
D245*
X000710Y003939D03*
X000710Y003939D03*
D246*
X000703Y003988D03*
X000703Y003989D03*
X000703Y003989D03*
X001343Y003940D03*
X001343Y003939D03*
X001343Y003939D03*
D247*
X000710Y003939D03*
D248*
X000703Y003988D03*
X001343Y003939D03*
D249*
X000709Y003940D03*
X000709Y003941D03*
X000709Y003941D03*
D250*
X000709Y003940D03*
D251*
X001343Y003940D03*
X001343Y003942D03*
D252*
X001343Y003941D03*
X001343Y003941D03*
D253*
X000709Y003942D03*
X000709Y003943D03*
D254*
X000709Y003943D03*
D255*
X000702Y003991D03*
X000702Y003991D03*
X000702Y003993D03*
X001343Y003944D03*
X001343Y003944D03*
X001343Y003943D03*
D256*
X001343Y003943D03*
X000702Y003992D03*
D257*
X000709Y003944D03*
X000709Y003944D03*
D258*
X000709Y003944D03*
D259*
X001344Y003944D03*
X001344Y003945D03*
D260*
X000709Y003946D03*
X000709Y003946D03*
X000709Y003945D03*
D261*
X001344Y003946D03*
X001344Y003945D03*
D262*
X000709Y003945D03*
D263*
X000701Y003995D03*
X000701Y003996D03*
X001344Y003949D03*
X001344Y003948D03*
X001344Y003946D03*
D264*
X000709Y003947D03*
X000709Y003948D03*
D265*
X000701Y003994D03*
X000701Y003995D03*
X001344Y003948D03*
X001344Y003947D03*
D266*
X000709Y003948D03*
D267*
X000701Y003996D03*
X000701Y003998D03*
X001344Y003950D03*
X001344Y003949D03*
D268*
X001344Y003949D03*
X001344Y003950D03*
X000701Y003997D03*
D269*
X000708Y003950D03*
D270*
X000708Y003951D03*
X000708Y003951D03*
D271*
X001344Y003951D03*
X001344Y003951D03*
X001344Y003953D03*
D272*
X001344Y003952D03*
D273*
X001345Y003953D03*
X001345Y003954D03*
X000701Y003999D03*
X000701Y004000D03*
D274*
X000701Y004000D03*
X000701Y004001D03*
X001345Y003954D03*
X001345Y003954D03*
D275*
X001345Y003955D03*
X001345Y003956D03*
X001345Y003956D03*
D276*
X000707Y003955D03*
D277*
X001345Y003955D03*
D278*
X000707Y003956D03*
X000707Y003956D03*
D279*
X000700Y004003D03*
X000700Y004004D03*
X001345Y003958D03*
X001345Y003957D03*
D280*
X001345Y003958D03*
X001345Y003959D03*
X000700Y004004D03*
X000700Y004004D03*
D281*
X000707Y003960D03*
X000707Y003959D03*
D282*
X000700Y004005D03*
X000700Y004006D03*
X001345Y003961D03*
X001345Y003960D03*
X001345Y003959D03*
D283*
X000707Y003959D03*
D284*
X000700Y004005D03*
X001345Y003960D03*
X001345Y003959D03*
D285*
X001346Y003961D03*
X001346Y003963D03*
D286*
X001346Y003963D03*
X001346Y003962D03*
D287*
X001346Y003964D03*
X001346Y003964D03*
X001346Y003965D03*
X000699Y004009D03*
X000699Y004009D03*
D288*
X000706Y003965D03*
X000706Y003964D03*
D289*
X000706Y003964D03*
D290*
X000699Y004008D03*
X000699Y004009D03*
X001346Y003964D03*
D291*
X001346Y003965D03*
X001346Y003967D03*
D292*
X001346Y003966D03*
X001346Y003966D03*
D293*
X000705Y003968D03*
X000705Y003969D03*
D294*
X000699Y004011D03*
X000699Y004013D03*
X001346Y003969D03*
X001346Y003969D03*
X001346Y003968D03*
D295*
X000705Y003968D03*
D296*
X000699Y004012D03*
X000699Y004013D03*
X001346Y003968D03*
D297*
X001347Y003969D03*
X001347Y003970D03*
X000699Y004014D03*
D298*
X000699Y004014D03*
X000699Y004014D03*
X001347Y003971D03*
X001347Y003970D03*
D299*
X001347Y003971D03*
X001347Y003973D03*
X001347Y003974D03*
D300*
X001347Y003973D03*
X001347Y003972D03*
D301*
X000705Y003973D03*
X000705Y003974D03*
D302*
X000705Y003973D03*
D303*
X000698Y004016D03*
X000698Y004018D03*
X001347Y003975D03*
X001347Y003974D03*
D304*
X001347Y003974D03*
X001347Y003975D03*
X000698Y004017D03*
X000698Y004018D03*
D305*
X000704Y003976D03*
X000704Y003976D03*
D306*
X001348Y003976D03*
X001348Y003976D03*
X001348Y003978D03*
D307*
X000704Y003977D03*
D308*
X001348Y003977D03*
D309*
X001348Y003978D03*
X001348Y003979D03*
X000698Y004020D03*
D310*
X000698Y004020D03*
X000698Y004021D03*
X000698Y004021D03*
X001348Y003979D03*
X001348Y003979D03*
D311*
X001348Y003980D03*
X001348Y003981D03*
X001348Y003981D03*
X000698Y004023D03*
D312*
X000698Y004023D03*
X000698Y004022D03*
X001348Y003980D03*
D313*
X000704Y003981D03*
X000704Y003981D03*
D314*
X000704Y003982D03*
D315*
X001348Y003983D03*
X001348Y003982D03*
D316*
X001348Y003983D03*
X001348Y003984D03*
D317*
X001348Y003984D03*
X001348Y003985D03*
X001348Y003986D03*
X000697Y004025D03*
X000697Y004026D03*
X000697Y004026D03*
D318*
X000703Y003985D03*
X000703Y003984D03*
D319*
X000697Y004025D03*
X001348Y003985D03*
X001348Y003984D03*
D320*
X000703Y003985D03*
D321*
X001349Y003986D03*
X001349Y003988D03*
D322*
X001349Y003988D03*
X001349Y003987D03*
D323*
X001349Y003989D03*
X001349Y003989D03*
X001349Y003990D03*
X000696Y004029D03*
X000696Y004029D03*
X000696Y004030D03*
D324*
X000702Y003990D03*
X000702Y003989D03*
D325*
X000696Y004029D03*
X001349Y003989D03*
D326*
X000702Y003990D03*
D327*
X000696Y004030D03*
X001349Y003992D03*
X001349Y003990D03*
D328*
X001349Y003991D03*
X001349Y003991D03*
X000696Y004031D03*
X000696Y004031D03*
D329*
X001349Y003994D03*
X001349Y003994D03*
X001349Y003993D03*
D330*
X000702Y003993D03*
D331*
X001349Y003993D03*
D332*
X000702Y003994D03*
X000702Y003994D03*
D333*
X000696Y004034D03*
X001350Y003995D03*
X001350Y003994D03*
D334*
X001350Y003995D03*
X001350Y003996D03*
X000696Y004034D03*
X000696Y004034D03*
X000696Y004035D03*
D335*
X001350Y003999D03*
X001350Y003998D03*
X001350Y003996D03*
D336*
X001350Y003997D03*
X001350Y003998D03*
D337*
X000701Y003998D03*
D338*
X000701Y003999D03*
X000701Y003999D03*
D339*
X000695Y004038D03*
X000695Y004039D03*
X001350Y004000D03*
X001350Y003999D03*
D340*
X001350Y003999D03*
X001350Y004000D03*
X000695Y004037D03*
X000695Y004038D03*
D341*
X000695Y004039D03*
X000695Y004040D03*
X001350Y004003D03*
X001350Y004001D03*
X001350Y004001D03*
D342*
X000700Y004001D03*
X000700Y004003D03*
D343*
X000700Y004002D03*
D344*
X000695Y004039D03*
X001350Y004002D03*
D345*
X001351Y004003D03*
X001351Y004004D03*
D346*
X001351Y004004D03*
X001351Y004004D03*
D347*
X001351Y004005D03*
X001351Y004006D03*
X001351Y004006D03*
X000694Y004043D03*
X000694Y004044D03*
D348*
X000694Y004043D03*
X000694Y004042D03*
X001351Y004005D03*
D349*
X000700Y004006D03*
X000700Y004008D03*
D350*
X000700Y004007D03*
D351*
X001351Y004008D03*
X001351Y004007D03*
D352*
X001351Y004008D03*
X001351Y004009D03*
D353*
X001351Y004009D03*
X001351Y004010D03*
X001351Y004011D03*
X000694Y004046D03*
X000694Y004046D03*
D354*
X000694Y004045D03*
X000694Y004047D03*
X001351Y004010D03*
X001351Y004009D03*
D355*
X000699Y004010D03*
X000699Y004011D03*
D356*
X000699Y004010D03*
D357*
X000694Y004048D03*
X000694Y004049D03*
X001352Y004013D03*
X001352Y004011D03*
D358*
X001352Y004012D03*
X001352Y004013D03*
X000694Y004048D03*
D359*
X001352Y004015D03*
X001352Y004014D03*
X001352Y004014D03*
D360*
X001352Y004014D03*
D361*
X000699Y004015D03*
X000699Y004016D03*
D362*
X000699Y004015D03*
D363*
X000693Y004050D03*
X000693Y004052D03*
X001352Y004017D03*
X001352Y004015D03*
D364*
X001352Y004016D03*
X001352Y004016D03*
X000693Y004051D03*
X000693Y004051D03*
D365*
X001353Y004019D03*
X001353Y004019D03*
X001353Y004018D03*
D366*
X001353Y004018D03*
D367*
X000698Y004019D03*
X000698Y004019D03*
D368*
X000698Y004019D03*
D369*
X000693Y004054D03*
X000693Y004055D03*
X001353Y004020D03*
X001353Y004019D03*
D370*
X001353Y004020D03*
X001353Y004021D03*
X000693Y004054D03*
X000693Y004055D03*
D371*
X000693Y004056D03*
X000693Y004056D03*
X001353Y004024D03*
X001353Y004023D03*
X001353Y004021D03*
D372*
X001353Y004022D03*
X001353Y004023D03*
X000693Y004057D03*
D373*
X000697Y004024D03*
X000697Y004024D03*
D374*
X001353Y004025D03*
X001353Y004024D03*
D375*
X000697Y004024D03*
D376*
X001353Y004024D03*
X001353Y004025D03*
D377*
X001353Y004026D03*
X001353Y004026D03*
X001353Y004028D03*
X000692Y004059D03*
X000692Y004060D03*
D378*
X000697Y004028D03*
X000697Y004027D03*
D379*
X000692Y004059D03*
X000692Y004060D03*
X001353Y004027D03*
D380*
X000697Y004028D03*
D381*
X001354Y004028D03*
X001354Y004029D03*
D382*
X001354Y004029D03*
X001354Y004029D03*
D383*
X001354Y004030D03*
X001354Y004031D03*
X001354Y004031D03*
X000691Y004063D03*
X000691Y004064D03*
X000691Y004064D03*
D384*
X000691Y004063D03*
X001354Y004030D03*
D385*
X000696Y004032D03*
X000696Y004033D03*
D386*
X000691Y004064D03*
X000691Y004065D03*
X001354Y004033D03*
X001354Y004032D03*
D387*
X000696Y004033D03*
D388*
X000691Y004065D03*
X001354Y004034D03*
X001354Y004033D03*
D389*
X001354Y004034D03*
X001354Y004035D03*
X001354Y004036D03*
D390*
X001354Y004035D03*
X001354Y004034D03*
D391*
X000695Y004035D03*
D392*
X000695Y004036D03*
X000695Y004036D03*
D393*
X000691Y004068D03*
X000691Y004069D03*
X000691Y004069D03*
X001355Y004038D03*
X001355Y004036D03*
D394*
X001355Y004037D03*
X001355Y004038D03*
X000691Y004068D03*
D395*
X001355Y004040D03*
X001355Y004039D03*
X001355Y004039D03*
D396*
X001355Y004039D03*
D397*
X000695Y004040D03*
D398*
X000690Y004072D03*
X001355Y004042D03*
X001355Y004040D03*
D399*
X000695Y004041D03*
X000695Y004041D03*
D400*
X000690Y004071D03*
X000690Y004071D03*
X000690Y004073D03*
X001355Y004041D03*
X001355Y004041D03*
D401*
X001355Y004043D03*
X001355Y004044D03*
X001355Y004044D03*
X000690Y004074D03*
X000690Y004074D03*
D402*
X000690Y004073D03*
X001355Y004043D03*
D403*
X000694Y004044D03*
X000694Y004045D03*
D404*
X000694Y004044D03*
D405*
X001356Y004044D03*
X001356Y004045D03*
D406*
X001356Y004045D03*
X001356Y004046D03*
D407*
X001356Y004046D03*
X001356Y004048D03*
X001356Y004049D03*
X000689Y004076D03*
X000689Y004076D03*
X000689Y004078D03*
D408*
X000689Y004077D03*
X001356Y004048D03*
X001356Y004047D03*
D409*
X000694Y004049D03*
X000694Y004050D03*
D410*
X001356Y004050D03*
X001356Y004049D03*
D411*
X000694Y004049D03*
D412*
X001356Y004049D03*
X001356Y004050D03*
D413*
X001356Y004051D03*
X001356Y004051D03*
X001356Y004053D03*
X000689Y004080D03*
X000689Y004081D03*
D414*
X000689Y004080D03*
X000689Y004079D03*
X001356Y004052D03*
D415*
X000693Y004053D03*
X000693Y004054D03*
D416*
X000693Y004053D03*
D417*
X000689Y004082D03*
X001357Y004054D03*
X001357Y004053D03*
D418*
X001357Y004054D03*
X001357Y004054D03*
X000689Y004081D03*
X000689Y004083D03*
D419*
X001357Y004056D03*
X001357Y004056D03*
X001357Y004055D03*
D420*
X001357Y004055D03*
D421*
X001357Y004057D03*
X001357Y004058D03*
X000688Y004084D03*
X000688Y004085D03*
D422*
X000692Y004059D03*
X000692Y004058D03*
D423*
X000688Y004085D03*
X000688Y004086D03*
X001357Y004059D03*
X001357Y004058D03*
D424*
X000692Y004058D03*
D425*
X001358Y004059D03*
X001358Y004060D03*
X001358Y004061D03*
D426*
X001358Y004060D03*
X001358Y004059D03*
D427*
X000692Y004061D03*
X000692Y004061D03*
D428*
X000688Y004089D03*
X000688Y004089D03*
X001358Y004063D03*
X001358Y004061D03*
D429*
X000692Y004062D03*
D430*
X000688Y004088D03*
X000688Y004089D03*
X001358Y004063D03*
X001358Y004062D03*
D431*
X001358Y004064D03*
X001358Y004064D03*
X001358Y004065D03*
X000688Y004090D03*
X000688Y004091D03*
D432*
X000688Y004090D03*
X001358Y004064D03*
D433*
X001358Y004065D03*
X001358Y004067D03*
D434*
X000691Y004066D03*
X000691Y004066D03*
D435*
X001358Y004066D03*
X001358Y004066D03*
D436*
X000691Y004067D03*
D437*
X000687Y004094D03*
X000687Y004094D03*
X001358Y004069D03*
X001358Y004069D03*
X001358Y004068D03*
D438*
X001358Y004068D03*
X000687Y004093D03*
X000687Y004094D03*
D439*
X000690Y004070D03*
X000690Y004069D03*
D440*
X001359Y004069D03*
X001359Y004070D03*
D441*
X000690Y004070D03*
D442*
X001359Y004071D03*
X001359Y004070D03*
D443*
X001359Y004071D03*
X001359Y004073D03*
X001359Y004074D03*
X000686Y004096D03*
X000686Y004098D03*
D444*
X000686Y004098D03*
X000686Y004097D03*
X001359Y004073D03*
X001359Y004072D03*
D445*
X001359Y004074D03*
X001359Y004075D03*
X000686Y004099D03*
X000686Y004099D03*
D446*
X000690Y004075D03*
X000690Y004074D03*
D447*
X000686Y004099D03*
X001359Y004075D03*
X001359Y004074D03*
D448*
X000690Y004075D03*
D449*
X001359Y004076D03*
X001359Y004076D03*
X001359Y004078D03*
D450*
X001359Y004077D03*
D451*
X000689Y004078D03*
D452*
X000686Y004102D03*
X000686Y004103D03*
X001360Y004079D03*
X001360Y004078D03*
D453*
X000689Y004079D03*
X000689Y004079D03*
D454*
X000686Y004101D03*
X000686Y004103D03*
X001360Y004079D03*
X001360Y004079D03*
D455*
X001360Y004080D03*
X001360Y004081D03*
X001360Y004081D03*
D456*
X001360Y004080D03*
D457*
X001360Y004082D03*
X001360Y004083D03*
X000685Y004105D03*
D458*
X000685Y004105D03*
X000685Y004106D03*
X000685Y004106D03*
X001360Y004084D03*
X001360Y004083D03*
D459*
X000689Y004083D03*
D460*
X000689Y004084D03*
X000689Y004084D03*
D461*
X000685Y004108D03*
X001360Y004086D03*
X001360Y004085D03*
X001360Y004084D03*
D462*
X001360Y004084D03*
X001360Y004085D03*
X000685Y004107D03*
X000685Y004108D03*
D463*
X000688Y004088D03*
X000688Y004086D03*
D464*
X001361Y004086D03*
X001361Y004088D03*
D465*
X000688Y004087D03*
D466*
X001361Y004088D03*
X001361Y004087D03*
D467*
X001361Y004089D03*
X001361Y004089D03*
X001361Y004090D03*
X000684Y004110D03*
X000684Y004111D03*
X000684Y004111D03*
D468*
X000684Y004110D03*
X001361Y004089D03*
D469*
X001361Y004090D03*
X001361Y004092D03*
D470*
X001361Y004091D03*
X001361Y004091D03*
D471*
X000687Y004091D03*
X000687Y004093D03*
D472*
X000687Y004092D03*
D473*
X000684Y004114D03*
X000684Y004114D03*
X000684Y004115D03*
X001361Y004094D03*
X001361Y004094D03*
X001361Y004093D03*
D474*
X001361Y004093D03*
X000684Y004114D03*
D475*
X000684Y004115D03*
X001362Y004095D03*
X001362Y004094D03*
D476*
X000687Y004095D03*
X000687Y004096D03*
D477*
X000684Y004116D03*
X000684Y004116D03*
X001362Y004096D03*
X001362Y004095D03*
D478*
X000687Y004095D03*
D479*
X001362Y004096D03*
X001362Y004098D03*
X001362Y004099D03*
D480*
X001362Y004098D03*
X001362Y004097D03*
D481*
X001362Y004099D03*
X001362Y004100D03*
X000683Y004119D03*
X000683Y004119D03*
X000683Y004120D03*
D482*
X000683Y004119D03*
X001362Y004100D03*
X001362Y004099D03*
D483*
X000686Y004100D03*
X000686Y004101D03*
D484*
X000686Y004100D03*
D485*
X001363Y004101D03*
X001363Y004101D03*
X001363Y004103D03*
D486*
X001363Y004102D03*
D487*
X001363Y004103D03*
X001363Y004104D03*
X000683Y004122D03*
X000683Y004123D03*
D488*
X000685Y004104D03*
X000685Y004104D03*
D489*
X000683Y004123D03*
X000683Y004124D03*
X001363Y004104D03*
X001363Y004104D03*
D490*
X000685Y004104D03*
D491*
X000683Y004124D03*
X000683Y004125D03*
X001363Y004106D03*
X001363Y004106D03*
X001363Y004105D03*
D492*
X001363Y004105D03*
X000683Y004124D03*
D493*
X001363Y004108D03*
X001363Y004107D03*
D494*
X001363Y004108D03*
X001363Y004109D03*
D495*
X000685Y004109D03*
X000685Y004109D03*
D496*
X000682Y004128D03*
X000682Y004129D03*
X001363Y004111D03*
X001363Y004110D03*
X001363Y004109D03*
D497*
X000685Y004109D03*
D498*
X000682Y004127D03*
X000682Y004128D03*
X001363Y004110D03*
X001363Y004109D03*
D499*
X001364Y004111D03*
X001364Y004113D03*
D500*
X000684Y004113D03*
X000684Y004112D03*
D501*
X001364Y004113D03*
X001364Y004112D03*
D502*
X000684Y004113D03*
D503*
X000681Y004131D03*
X000681Y004131D03*
X001364Y004115D03*
X001364Y004114D03*
X001364Y004114D03*
D504*
X001364Y004114D03*
X000681Y004130D03*
X000681Y004132D03*
D505*
X000681Y004133D03*
X001364Y004117D03*
X001364Y004115D03*
D506*
X001364Y004116D03*
X001364Y004116D03*
X000681Y004133D03*
X000681Y004134D03*
D507*
X000684Y004118D03*
X000684Y004117D03*
D508*
X000684Y004118D03*
D509*
X001364Y004119D03*
X001364Y004119D03*
X001364Y004118D03*
D510*
X001364Y004118D03*
D511*
X001365Y004119D03*
X001365Y004120D03*
X000681Y004135D03*
X000681Y004137D03*
D512*
X000681Y004136D03*
X000681Y004136D03*
X001365Y004121D03*
X001365Y004120D03*
D513*
X000683Y004120D03*
D514*
X000683Y004121D03*
X000683Y004121D03*
D515*
X001365Y004121D03*
X001365Y004123D03*
X001365Y004124D03*
D516*
X001365Y004123D03*
X001365Y004122D03*
D517*
X001365Y004124D03*
X001365Y004125D03*
X000680Y004139D03*
X000680Y004140D03*
D518*
X000680Y004140D03*
X000680Y004139D03*
X001365Y004125D03*
X001365Y004124D03*
D519*
X000682Y004125D03*
D520*
X000682Y004126D03*
X000682Y004126D03*
D521*
X000680Y004141D03*
X000680Y004141D03*
X001365Y004128D03*
X001365Y004126D03*
X001365Y004126D03*
D522*
X001365Y004127D03*
X000680Y004142D03*
D523*
X001366Y004129D03*
X001366Y004128D03*
D524*
X001366Y004129D03*
X001366Y004129D03*
D525*
X000682Y004130D03*
X000682Y004129D03*
D526*
X000682Y004129D03*
D527*
X000679Y004144D03*
X000679Y004145D03*
X001366Y004131D03*
X001366Y004131D03*
X001366Y004130D03*
D528*
X001366Y004130D03*
X000679Y004144D03*
X000679Y004145D03*
D529*
X001366Y004133D03*
X001366Y004132D03*
D530*
X001366Y004133D03*
X001366Y004134D03*
D531*
X000681Y004135D03*
X000681Y004134D03*
D532*
X000679Y004148D03*
X000679Y004149D03*
X000679Y004149D03*
X001366Y004136D03*
X001366Y004135D03*
X001366Y004134D03*
D533*
X000681Y004134D03*
D534*
X000679Y004148D03*
X001366Y004135D03*
X001366Y004134D03*
D535*
X001367Y004136D03*
X001367Y004138D03*
X000679Y004150D03*
D536*
X000679Y004150D03*
X000679Y004149D03*
X001367Y004138D03*
X001367Y004137D03*
D537*
X000680Y004138D03*
X000680Y004139D03*
D538*
X000680Y004138D03*
D539*
X001367Y004139D03*
X001367Y004139D03*
X001367Y004140D03*
D540*
X001367Y004139D03*
D541*
X001367Y004140D03*
X001367Y004142D03*
X000678Y004153D03*
D542*
X000678Y004153D03*
X000678Y004154D03*
X000678Y004154D03*
X001367Y004141D03*
X001367Y004141D03*
D543*
X000680Y004143D03*
X000680Y004144D03*
D544*
X001368Y004144D03*
X001368Y004144D03*
X001368Y004143D03*
D545*
X000680Y004143D03*
D546*
X001368Y004143D03*
D547*
X001368Y004144D03*
X001368Y004145D03*
X000678Y004157D03*
D548*
X000678Y004158D03*
X000678Y004156D03*
X000678Y004156D03*
X001368Y004146D03*
X001368Y004145D03*
D549*
X000679Y004146D03*
X000679Y004146D03*
D550*
X000678Y004159D03*
X000678Y004159D03*
X001368Y004149D03*
X001368Y004148D03*
X001368Y004146D03*
D551*
X000679Y004147D03*
D552*
X000678Y004158D03*
X001368Y004148D03*
X001368Y004147D03*
D553*
X001368Y004149D03*
X001368Y004150D03*
D554*
X001368Y004150D03*
X001368Y004149D03*
D555*
X000679Y004151D03*
X000679Y004151D03*
D556*
X000677Y004161D03*
X000677Y004161D03*
X000677Y004163D03*
X001368Y004153D03*
X001368Y004151D03*
X001368Y004151D03*
D557*
X000679Y004152D03*
D558*
X000677Y004162D03*
X001368Y004152D03*
D559*
X001369Y004153D03*
X001369Y004154D03*
D560*
X001369Y004154D03*
X001369Y004154D03*
D561*
X000678Y004154D03*
X000678Y004155D03*
D562*
X000678Y004155D03*
D563*
X000676Y004165D03*
X000676Y004166D03*
X001369Y004156D03*
X001369Y004156D03*
X001369Y004155D03*
D564*
X001369Y004155D03*
X000676Y004164D03*
X000676Y004165D03*
D565*
X000676Y004167D03*
X001369Y004158D03*
X001369Y004157D03*
D566*
X001369Y004158D03*
X001369Y004159D03*
X000676Y004166D03*
X000676Y004168D03*
D567*
X001369Y004161D03*
X001369Y004160D03*
X001369Y004159D03*
D568*
X000677Y004159D03*
X000677Y004160D03*
D569*
X001369Y004159D03*
X001369Y004160D03*
D570*
X000677Y004160D03*
D571*
X000676Y004170D03*
X000676Y004171D03*
X001370Y004163D03*
X001370Y004161D03*
D572*
X001370Y004162D03*
X001370Y004163D03*
X000676Y004169D03*
X000676Y004170D03*
D573*
X000677Y004163D03*
D574*
X000677Y004164D03*
X000677Y004164D03*
D575*
X001370Y004165D03*
X001370Y004164D03*
X001370Y004164D03*
D576*
X001370Y004164D03*
D577*
X001370Y004165D03*
X001370Y004167D03*
X000675Y004173D03*
X000675Y004174D03*
D578*
X000675Y004174D03*
X000675Y004174D03*
X001370Y004166D03*
X001370Y004166D03*
D579*
X001370Y004168D03*
X001370Y004169D03*
X001370Y004169D03*
X000675Y004175D03*
X000675Y004176D03*
D580*
X000676Y004168D03*
D581*
X000675Y004175D03*
X001370Y004168D03*
D582*
X000676Y004169D03*
X000676Y004169D03*
D583*
X001371Y004169D03*
X001371Y004170D03*
D584*
X001371Y004170D03*
X001371Y004171D03*
D585*
X000675Y004171D03*
X000675Y004173D03*
D586*
X000674Y004179D03*
X000674Y004179D03*
X001371Y004174D03*
X001371Y004173D03*
X001371Y004171D03*
D587*
X000675Y004172D03*
D588*
X000674Y004178D03*
X000674Y004179D03*
X001371Y004173D03*
X001371Y004172D03*
D589*
X001371Y004174D03*
X001371Y004175D03*
D590*
X001371Y004175D03*
X001371Y004174D03*
D591*
X001371Y004176D03*
X001371Y004176D03*
X001371Y004178D03*
X000674Y004181D03*
X000674Y004183D03*
D592*
X000675Y004178D03*
X000675Y004176D03*
D593*
X000675Y004177D03*
D594*
X000674Y004182D03*
X000674Y004183D03*
X001371Y004177D03*
D595*
X001372Y004178D03*
X001372Y004179D03*
X000674Y004184D03*
D596*
X000674Y004184D03*
X000674Y004184D03*
X001372Y004179D03*
X001372Y004179D03*
D597*
X000674Y004180D03*
X000674Y004181D03*
D598*
X001372Y004181D03*
X001372Y004181D03*
X001372Y004180D03*
D599*
X000674Y004180D03*
D600*
X001372Y004180D03*
D601*
X001372Y004182D03*
X001372Y004183D03*
X000673Y004187D03*
X000673Y004188D03*
D602*
X000673Y004188D03*
X000673Y004186D03*
X001372Y004184D03*
X001372Y004183D03*
D603*
X001373Y004184D03*
X001373Y004185D03*
X001373Y004186D03*
D604*
X001373Y004185D03*
X001373Y004184D03*
D605*
X000674Y004185D03*
X000674Y004186D03*
D606*
X000674Y004185D03*
D607*
X000673Y004190D03*
X000673Y004191D03*
X000673Y004191D03*
X001373Y004188D03*
X001373Y004186D03*
D608*
X001373Y004187D03*
X001373Y004188D03*
X000673Y004190D03*
D609*
X000673Y004189D03*
X000673Y004189D03*
D610*
X000673Y004193D03*
X001373Y004190D03*
X001373Y004189D03*
X001373Y004189D03*
D611*
X000673Y004189D03*
D612*
X000673Y004192D03*
X000673Y004193D03*
X001373Y004189D03*
D613*
X001373Y004190D03*
X001373Y004192D03*
D614*
X001373Y004191D03*
X001373Y004191D03*
D615*
X001373Y004193D03*
X001373Y004194D03*
X001373Y004194D03*
X000672Y004195D03*
X000672Y004196D03*
X000672Y004196D03*
D616*
X000672Y004195D03*
X001373Y004193D03*
D617*
X000672Y004194D03*
X000672Y004194D03*
D618*
X000672Y004194D03*
D619*
X001374Y004194D03*
X001374Y004195D03*
D620*
X001374Y004195D03*
X001374Y004196D03*
D621*
X001374Y004196D03*
X001374Y004198D03*
X001374Y004199D03*
X000671Y004200D03*
X000671Y004199D03*
X000671Y004199D03*
D622*
X000672Y004198D03*
X000672Y004197D03*
D623*
X000671Y004199D03*
X001374Y004198D03*
X001374Y004197D03*
D624*
X000672Y004198D03*
D625*
X000671Y004201D03*
X000671Y004201D03*
X001374Y004200D03*
X001374Y004199D03*
D626*
X001374Y004199D03*
X001374Y004200D03*
X000671Y004200D03*
D627*
X001374Y004201D03*
X001374Y004201D03*
X001374Y004203D03*
D628*
X000671Y004203D03*
X000671Y004202D03*
D629*
X001374Y004202D03*
D630*
X000671Y004203D03*
D631*
X000671Y004204D03*
X001375Y004204D03*
X001375Y004203D03*
D632*
X001375Y004204D03*
X001375Y004204D03*
X000671Y004205D03*
X000671Y004204D03*
X000671Y004204D03*
D633*
X001375Y004205D03*
X001375Y004206D03*
X001375Y004206D03*
D634*
X000670Y004205D03*
D635*
X001375Y004205D03*
D636*
X000670Y004206D03*
X000670Y004206D03*
D637*
X000670Y004207D03*
X000670Y004208D03*
X001375Y004208D03*
X001375Y004207D03*
D638*
X001375Y004208D03*
X001375Y004209D03*
X000670Y004209D03*
X000670Y004208D03*
D639*
X000670Y004209D03*
X000670Y004210D03*
X001375Y004211D03*
X001375Y004210D03*
X001375Y004209D03*
D640*
X001375Y004209D03*
X001375Y004210D03*
X000670Y004209D03*
D641*
X000670Y004210D03*
D642*
X000670Y004211D03*
X000670Y004211D03*
D643*
X001376Y004211D03*
X001376Y004213D03*
D644*
X001376Y004214D03*
X000669Y004213D03*
X000669Y004212D03*
D645*
X001376Y004213D03*
X001376Y004212D03*
D646*
X001376Y004214D03*
X001376Y004214D03*
X001376Y004215D03*
X000669Y004214D03*
X000669Y004213D03*
D647*
X000669Y004214D03*
X000669Y004215D03*
D648*
X000669Y004214D03*
D649*
X000669Y004215D03*
X000669Y004217D03*
X001376Y004218D03*
D650*
X001376Y004217D03*
X001376Y004215D03*
D651*
X001376Y004218D03*
X001376Y004219D03*
X001376Y004219D03*
X000669Y004216D03*
X000669Y004216D03*
D652*
X001376Y004216D03*
X001376Y004216D03*
D653*
X001377Y004220D03*
X001377Y004221D03*
X000669Y004219D03*
X000669Y004218D03*
D654*
X000669Y004218D03*
X001377Y004219D03*
X001377Y004220D03*
D655*
X000669Y004220D03*
X000669Y004219D03*
D656*
X000669Y004219D03*
D657*
X000668Y004220D03*
X000668Y004222D03*
X001377Y004224D03*
X001377Y004225D03*
D658*
X001377Y004225D03*
X001377Y004224D03*
X000668Y004221D03*
X000668Y004221D03*
D659*
X001377Y004221D03*
X001377Y004223D03*
X001377Y004224D03*
D660*
X001377Y004223D03*
X001377Y004222D03*
D661*
X000668Y004223D03*
X000668Y004224D03*
D662*
X000668Y004223D03*
D663*
X000668Y004224D03*
X000668Y004225D03*
X001378Y004229D03*
X001378Y004229D03*
D664*
X001378Y004229D03*
X001378Y004228D03*
X000668Y004225D03*
X000668Y004224D03*
D665*
X000668Y004226D03*
X000668Y004226D03*
X001378Y004230D03*
X001378Y004231D03*
X001378Y004231D03*
D666*
X001378Y004228D03*
X001378Y004226D03*
X001378Y004226D03*
D667*
X001378Y004230D03*
X000668Y004227D03*
D668*
X001378Y004227D03*
D669*
X000667Y004228D03*
X000667Y004229D03*
D670*
X000667Y004228D03*
D671*
X000667Y004229D03*
X000667Y004230D03*
X001378Y004234D03*
X001378Y004235D03*
X001378Y004236D03*
D672*
X001378Y004235D03*
X001378Y004234D03*
X000667Y004230D03*
X000667Y004229D03*
D673*
X000667Y004231D03*
X000667Y004231D03*
D674*
X000667Y004232D03*
D675*
X001378Y004233D03*
X001378Y004232D03*
D676*
X001379Y004239D03*
X001379Y004239D03*
X001379Y004240D03*
X000666Y004234D03*
X000666Y004234D03*
X000666Y004233D03*
D677*
X001378Y004234D03*
X001378Y004233D03*
D678*
X001379Y004239D03*
X000666Y004233D03*
D679*
X000666Y004234D03*
X000666Y004235D03*
X001379Y004240D03*
X001379Y004242D03*
D680*
X001379Y004241D03*
X001379Y004241D03*
X000666Y004235D03*
D681*
X000666Y004236D03*
X000666Y004236D03*
D682*
X001379Y004236D03*
X001379Y004238D03*
D683*
X000666Y004237D03*
D684*
X001379Y004238D03*
X001379Y004237D03*
D685*
X001380Y004245D03*
X001380Y004246D03*
X000666Y004239D03*
X000666Y004239D03*
X000666Y004238D03*
D686*
X000666Y004238D03*
X001380Y004244D03*
X001380Y004245D03*
D687*
X000665Y004240D03*
X000665Y004239D03*
D688*
X000665Y004240D03*
D689*
X000665Y004241D03*
X000665Y004241D03*
X000665Y004243D03*
X001380Y004249D03*
X001380Y004250D03*
D690*
X001380Y004250D03*
X001380Y004249D03*
X000665Y004242D03*
D691*
X001379Y004243D03*
X001379Y004244D03*
X001379Y004244D03*
D692*
X001380Y004252D03*
X000665Y004243D03*
D693*
X001379Y004243D03*
D694*
X001380Y004251D03*
X001380Y004251D03*
X001380Y004253D03*
X000665Y004244D03*
X000665Y004244D03*
D695*
X000665Y004244D03*
X000665Y004245D03*
D696*
X000665Y004245D03*
D697*
X000664Y004246D03*
X000664Y004246D03*
X000664Y004248D03*
X001381Y004255D03*
X001381Y004256D03*
X001381Y004256D03*
D698*
X001380Y004249D03*
X001380Y004248D03*
X001380Y004246D03*
D699*
X001381Y004255D03*
X000664Y004247D03*
D700*
X001380Y004248D03*
X001380Y004247D03*
D701*
X000664Y004248D03*
D702*
X000664Y004249D03*
X000664Y004249D03*
D703*
X000664Y004249D03*
X000664Y004250D03*
X001381Y004259D03*
D704*
X001381Y004259D03*
X000664Y004251D03*
X000664Y004250D03*
D705*
X000664Y004251D03*
X000664Y004253D03*
D706*
X000664Y004252D03*
D707*
X000664Y004253D03*
X000664Y004254D03*
D708*
X001381Y004254D03*
X001381Y004253D03*
D709*
X000664Y004254D03*
X000664Y004254D03*
D710*
X001381Y004254D03*
X001381Y004254D03*
D711*
X000663Y004255D03*
X000663Y004256D03*
D712*
X000663Y004255D03*
D713*
X000663Y004256D03*
X000663Y004258D03*
D714*
X000663Y004257D03*
D715*
X001381Y004258D03*
X001381Y004257D03*
D716*
X001381Y004258D03*
X001381Y004259D03*
D717*
X000663Y004259D03*
X000663Y004258D03*
D718*
X000663Y004259D03*
X000663Y004259D03*
D719*
X000719Y004260D03*
X000719Y004261D03*
X000719Y004261D03*
X000719Y004263D03*
X000719Y004264D03*
X000719Y004264D03*
X000719Y004265D03*
X000719Y004266D03*
X000719Y004266D03*
X000719Y004268D03*
X000719Y004269D03*
X000719Y004269D03*
X000719Y004270D03*
X000719Y004271D03*
X000719Y004271D03*
X000719Y004273D03*
X000719Y004274D03*
X000719Y004274D03*
X000719Y004275D03*
X000719Y004276D03*
X000719Y004276D03*
X000719Y004278D03*
X000719Y004279D03*
X000719Y004279D03*
X000719Y004280D03*
X000719Y004281D03*
X000719Y004281D03*
X000719Y004283D03*
X000719Y004284D03*
X000719Y004284D03*
X000719Y004285D03*
D720*
X001327Y004285D03*
X001327Y004284D03*
X001327Y004284D03*
X001327Y004283D03*
X001327Y004281D03*
X001327Y004281D03*
X001327Y004280D03*
X001327Y004279D03*
X001327Y004279D03*
X001327Y004278D03*
X001327Y004276D03*
X001327Y004276D03*
X001327Y004275D03*
X001327Y004274D03*
X001327Y004274D03*
X001327Y004273D03*
X001327Y004271D03*
X001327Y004271D03*
X001327Y004270D03*
X001327Y004269D03*
X001327Y004269D03*
X001327Y004268D03*
X001327Y004266D03*
X001327Y004266D03*
X001327Y004265D03*
X001327Y004264D03*
X001327Y004264D03*
X001327Y004263D03*
X001327Y004261D03*
X001327Y004261D03*
X001327Y004260D03*
D721*
X000719Y004260D03*
X000719Y004262D03*
X000719Y004263D03*
X000719Y004264D03*
X000719Y004265D03*
X000719Y004267D03*
X000719Y004268D03*
X000719Y004269D03*
X000719Y004270D03*
X000719Y004272D03*
X000719Y004273D03*
X000719Y004274D03*
X000719Y004275D03*
X000719Y004277D03*
X000719Y004278D03*
X000719Y004279D03*
X000719Y004280D03*
X000719Y004282D03*
X000719Y004283D03*
X000719Y004284D03*
X000719Y004285D03*
D722*
X001327Y004285D03*
X001327Y004284D03*
X001327Y004283D03*
X001327Y004282D03*
X001327Y004280D03*
X001327Y004279D03*
X001327Y004278D03*
X001327Y004277D03*
X001327Y004275D03*
X001327Y004274D03*
X001327Y004273D03*
X001327Y004272D03*
X001327Y004270D03*
X001327Y004269D03*
X001327Y004268D03*
X001327Y004267D03*
X001327Y004265D03*
X001327Y004264D03*
X001327Y004263D03*
X001327Y004262D03*
X001327Y004260D03*
D723*
X001023Y004286D03*
X001023Y004286D03*
X001023Y004288D03*
X001023Y004289D03*
X001023Y004289D03*
X001023Y004290D03*
X001023Y004291D03*
X001023Y004291D03*
X001023Y004293D03*
X001023Y004294D03*
X001023Y004294D03*
X001023Y004295D03*
X001023Y004296D03*
X001023Y004296D03*
X001023Y004298D03*
X001023Y004299D03*
X001023Y004299D03*
X001023Y004300D03*
X001023Y004301D03*
X001023Y004301D03*
X001023Y004303D03*
X001023Y004304D03*
X001023Y004304D03*
X001023Y004305D03*
X001023Y004306D03*
X001023Y004435D03*
X001023Y004436D03*
X001023Y004436D03*
X001023Y004438D03*
X001023Y004439D03*
X001023Y004439D03*
X001023Y004440D03*
X001023Y004441D03*
X001023Y004441D03*
X001023Y004443D03*
X001023Y004444D03*
X001023Y004444D03*
X001023Y004445D03*
X001023Y004446D03*
X001023Y004446D03*
X001023Y004448D03*
X001023Y004449D03*
X001023Y004449D03*
X001023Y004450D03*
X001023Y004451D03*
X001023Y004451D03*
X001023Y004453D03*
X001023Y004454D03*
X001023Y004454D03*
X001023Y004455D03*
X001023Y004456D03*
X001023Y004456D03*
X001023Y004458D03*
X001023Y004459D03*
X001023Y004459D03*
X001023Y004460D03*
X001023Y004461D03*
X001023Y004461D03*
X001023Y004463D03*
X001023Y004464D03*
X001023Y004464D03*
X001023Y004465D03*
X001023Y004466D03*
X001023Y004466D03*
X001023Y004468D03*
X001023Y004469D03*
X001023Y004469D03*
X001023Y004470D03*
X001023Y004471D03*
D724*
X001023Y004470D03*
X001023Y004469D03*
X001023Y004468D03*
X001023Y004467D03*
X001023Y004465D03*
X001023Y004464D03*
X001023Y004463D03*
X001023Y004462D03*
X001023Y004460D03*
X001023Y004459D03*
X001023Y004458D03*
X001023Y004457D03*
X001023Y004455D03*
X001023Y004454D03*
X001023Y004453D03*
X001023Y004452D03*
X001023Y004450D03*
X001023Y004449D03*
X001023Y004448D03*
X001023Y004447D03*
X001023Y004445D03*
X001023Y004444D03*
X001023Y004443D03*
X001023Y004442D03*
X001023Y004440D03*
X001023Y004439D03*
X001023Y004438D03*
X001023Y004437D03*
X001023Y004435D03*
X001023Y004305D03*
X001023Y004304D03*
X001023Y004303D03*
X001023Y004302D03*
X001023Y004300D03*
X001023Y004299D03*
X001023Y004298D03*
X001023Y004297D03*
X001023Y004295D03*
X001023Y004294D03*
X001023Y004293D03*
X001023Y004292D03*
X001023Y004290D03*
X001023Y004289D03*
X001023Y004288D03*
X001023Y004287D03*
D725*
X000749Y004306D03*
X000749Y004308D03*
X000749Y004309D03*
X000749Y004309D03*
X000749Y004310D03*
X000749Y004311D03*
X000749Y004311D03*
X000749Y004313D03*
X000749Y004314D03*
X000749Y004314D03*
X000749Y004315D03*
X000749Y004316D03*
X000749Y004316D03*
X000749Y004318D03*
X000749Y004319D03*
X000749Y004319D03*
X000749Y004320D03*
X000749Y004321D03*
X000749Y004321D03*
X000749Y004323D03*
X000749Y004324D03*
X000749Y004324D03*
X000749Y004325D03*
X000749Y004326D03*
X000749Y004326D03*
X000749Y004328D03*
X000749Y004329D03*
X000749Y004329D03*
X000749Y004330D03*
X000749Y004331D03*
X000749Y004331D03*
X000749Y004333D03*
X000749Y004334D03*
X000749Y004334D03*
X000749Y004335D03*
X000749Y004336D03*
X000749Y004336D03*
X000749Y004338D03*
X000749Y004339D03*
X000749Y004339D03*
X000749Y004340D03*
X000749Y004341D03*
X000749Y004341D03*
X000749Y004343D03*
X000749Y004344D03*
X000749Y004344D03*
X000749Y004345D03*
X000749Y004346D03*
X000749Y004346D03*
X000749Y004348D03*
X000749Y004349D03*
X000749Y004349D03*
X000749Y004350D03*
X000749Y004351D03*
X000749Y004351D03*
X000749Y004353D03*
X000749Y004354D03*
X000749Y004354D03*
X000749Y004355D03*
X000749Y004356D03*
X000749Y004356D03*
X000749Y004358D03*
X000749Y004359D03*
X000749Y004359D03*
X000749Y004360D03*
X000749Y004361D03*
X000749Y004361D03*
X000749Y004363D03*
X000749Y004364D03*
X000749Y004364D03*
X000749Y004365D03*
X000749Y004366D03*
X000749Y004366D03*
X000749Y004368D03*
X000749Y004369D03*
X000749Y004369D03*
X000749Y004370D03*
X000749Y004371D03*
X000749Y004371D03*
X000749Y004373D03*
X000749Y004374D03*
X000749Y004374D03*
X000749Y004375D03*
X000749Y004376D03*
X000749Y004376D03*
X000749Y004378D03*
X000749Y004379D03*
X000749Y004379D03*
X000749Y004380D03*
X000749Y004381D03*
X000749Y004381D03*
X000749Y004383D03*
X000749Y004384D03*
X000749Y004384D03*
X000749Y004385D03*
X000749Y004386D03*
X000749Y004386D03*
X000749Y004388D03*
X000749Y004389D03*
X000749Y004389D03*
X000749Y004390D03*
X000749Y004391D03*
X000749Y004391D03*
X000749Y004393D03*
X000749Y004394D03*
X000749Y004394D03*
X000749Y004395D03*
X000749Y004396D03*
X000749Y004396D03*
X000749Y004398D03*
X000749Y004399D03*
X000749Y004399D03*
X000749Y004400D03*
X000749Y004401D03*
X000749Y004401D03*
X000749Y004403D03*
X000749Y004404D03*
X000749Y004404D03*
X000749Y004405D03*
X000749Y004406D03*
X000749Y004406D03*
X000749Y004408D03*
X000749Y004409D03*
X000749Y004409D03*
X000749Y004410D03*
X000749Y004411D03*
X000749Y004411D03*
X000749Y004413D03*
X000749Y004414D03*
X000749Y004414D03*
X000749Y004415D03*
X000749Y004416D03*
X000749Y004416D03*
X000749Y004418D03*
X000749Y004419D03*
X000749Y004419D03*
X000749Y004420D03*
X000749Y004421D03*
X000749Y004421D03*
X000749Y004423D03*
X000749Y004424D03*
X000749Y004424D03*
X000749Y004425D03*
X000749Y004426D03*
X000749Y004426D03*
X000749Y004428D03*
X000749Y004429D03*
X000749Y004429D03*
X000749Y004430D03*
X000749Y004431D03*
X000749Y004431D03*
X000749Y004433D03*
X000749Y004434D03*
X000749Y004434D03*
D726*
X001304Y004434D03*
X001304Y004434D03*
X001304Y004433D03*
X001304Y004431D03*
X001304Y004431D03*
X001304Y004430D03*
X001304Y004429D03*
X001304Y004429D03*
X001304Y004428D03*
X001304Y004426D03*
X001304Y004426D03*
X001304Y004425D03*
X001304Y004424D03*
X001304Y004424D03*
X001304Y004423D03*
X001304Y004421D03*
X001304Y004421D03*
X001304Y004420D03*
X001304Y004419D03*
X001304Y004419D03*
X001304Y004418D03*
X001304Y004416D03*
X001304Y004416D03*
X001304Y004415D03*
X001304Y004414D03*
X001304Y004414D03*
X001304Y004413D03*
X001304Y004411D03*
X001304Y004411D03*
X001304Y004410D03*
X001304Y004409D03*
X001304Y004409D03*
X001304Y004408D03*
X001304Y004406D03*
X001304Y004406D03*
X001304Y004405D03*
X001304Y004404D03*
X001304Y004404D03*
X001304Y004403D03*
X001304Y004401D03*
X001304Y004401D03*
X001304Y004400D03*
X001304Y004399D03*
X001304Y004399D03*
X001304Y004398D03*
X001304Y004396D03*
X001304Y004396D03*
X001304Y004395D03*
X001304Y004394D03*
X001304Y004394D03*
X001304Y004393D03*
X001304Y004391D03*
X001304Y004391D03*
X001304Y004390D03*
X001304Y004389D03*
X001304Y004389D03*
X001304Y004388D03*
X001304Y004386D03*
X001304Y004386D03*
X001304Y004385D03*
X001304Y004384D03*
X001304Y004384D03*
X001304Y004383D03*
X001304Y004381D03*
X001304Y004381D03*
X001304Y004380D03*
X001304Y004379D03*
X001304Y004379D03*
X001304Y004378D03*
X001304Y004376D03*
X001304Y004376D03*
X001304Y004375D03*
X001304Y004374D03*
X001304Y004374D03*
X001304Y004373D03*
X001304Y004371D03*
X001304Y004371D03*
X001304Y004370D03*
X001304Y004369D03*
X001304Y004369D03*
X001304Y004368D03*
X001304Y004366D03*
X001304Y004366D03*
X001304Y004365D03*
X001304Y004364D03*
X001304Y004364D03*
X001304Y004363D03*
X001304Y004361D03*
X001304Y004361D03*
X001304Y004360D03*
X001304Y004359D03*
X001304Y004359D03*
X001304Y004358D03*
X001304Y004356D03*
X001304Y004356D03*
X001304Y004355D03*
X001304Y004354D03*
X001304Y004354D03*
X001304Y004353D03*
X001304Y004351D03*
X001304Y004351D03*
X001304Y004350D03*
X001304Y004349D03*
X001304Y004349D03*
X001304Y004348D03*
X001304Y004346D03*
X001304Y004346D03*
X001304Y004345D03*
X001304Y004344D03*
X001304Y004344D03*
X001304Y004343D03*
X001304Y004341D03*
X001304Y004341D03*
X001304Y004340D03*
X001304Y004339D03*
X001304Y004339D03*
X001304Y004338D03*
X001304Y004336D03*
X001304Y004336D03*
X001304Y004335D03*
X001304Y004334D03*
X001304Y004334D03*
X001304Y004333D03*
X001304Y004331D03*
X001304Y004331D03*
X001304Y004330D03*
X001304Y004329D03*
X001304Y004329D03*
X001304Y004328D03*
X001304Y004326D03*
X001304Y004326D03*
X001304Y004325D03*
X001304Y004324D03*
X001304Y004324D03*
X001304Y004323D03*
X001304Y004321D03*
X001304Y004321D03*
X001304Y004320D03*
X001304Y004319D03*
X001304Y004319D03*
X001304Y004318D03*
X001304Y004316D03*
X001304Y004316D03*
X001304Y004315D03*
X001304Y004314D03*
X001304Y004314D03*
X001304Y004313D03*
X001304Y004311D03*
X001304Y004311D03*
X001304Y004310D03*
X001304Y004309D03*
X001304Y004309D03*
X001304Y004308D03*
X001304Y004306D03*
D727*
X000749Y004307D03*
X000749Y004308D03*
X000749Y004309D03*
X000749Y004310D03*
X000749Y004312D03*
X000749Y004313D03*
X000749Y004314D03*
X000749Y004315D03*
X000749Y004317D03*
X000749Y004318D03*
X000749Y004319D03*
X000749Y004320D03*
X000749Y004322D03*
X000749Y004323D03*
X000749Y004324D03*
X000749Y004325D03*
X000749Y004327D03*
X000749Y004328D03*
X000749Y004329D03*
X000749Y004330D03*
X000749Y004332D03*
X000749Y004333D03*
X000749Y004334D03*
X000749Y004335D03*
X000749Y004337D03*
X000749Y004338D03*
X000749Y004339D03*
X000749Y004340D03*
X000749Y004342D03*
X000749Y004343D03*
X000749Y004344D03*
X000749Y004345D03*
X000749Y004347D03*
X000749Y004348D03*
X000749Y004349D03*
X000749Y004350D03*
X000749Y004352D03*
X000749Y004353D03*
X000749Y004354D03*
X000749Y004355D03*
X000749Y004357D03*
X000749Y004358D03*
X000749Y004359D03*
X000749Y004360D03*
X000749Y004362D03*
X000749Y004363D03*
X000749Y004364D03*
X000749Y004365D03*
X000749Y004367D03*
X000749Y004368D03*
X000749Y004369D03*
X000749Y004370D03*
X000749Y004372D03*
X000749Y004373D03*
X000749Y004374D03*
X000749Y004375D03*
X000749Y004377D03*
X000749Y004378D03*
X000749Y004379D03*
X000749Y004380D03*
X000749Y004382D03*
X000749Y004383D03*
X000749Y004384D03*
X000749Y004385D03*
X000749Y004387D03*
X000749Y004388D03*
X000749Y004389D03*
X000749Y004390D03*
X000749Y004392D03*
X000749Y004393D03*
X000749Y004394D03*
X000749Y004395D03*
X000749Y004397D03*
X000749Y004398D03*
X000749Y004399D03*
X000749Y004400D03*
X000749Y004402D03*
X000749Y004403D03*
X000749Y004404D03*
X000749Y004405D03*
X000749Y004407D03*
X000749Y004408D03*
X000749Y004409D03*
X000749Y004410D03*
X000749Y004412D03*
X000749Y004413D03*
X000749Y004414D03*
X000749Y004415D03*
X000749Y004417D03*
X000749Y004418D03*
X000749Y004419D03*
X000749Y004420D03*
X000749Y004422D03*
X000749Y004423D03*
X000749Y004424D03*
X000749Y004425D03*
X000749Y004427D03*
X000749Y004428D03*
X000749Y004429D03*
X000749Y004430D03*
X000749Y004432D03*
X000749Y004433D03*
X000749Y004434D03*
D728*
X001304Y004434D03*
X001304Y004433D03*
X001304Y004432D03*
X001304Y004430D03*
X001304Y004429D03*
X001304Y004428D03*
X001304Y004427D03*
X001304Y004425D03*
X001304Y004424D03*
X001304Y004423D03*
X001304Y004422D03*
X001304Y004420D03*
X001304Y004419D03*
X001304Y004418D03*
X001304Y004417D03*
X001304Y004415D03*
X001304Y004414D03*
X001304Y004413D03*
X001304Y004412D03*
X001304Y004410D03*
X001304Y004409D03*
X001304Y004408D03*
X001304Y004407D03*
X001304Y004405D03*
X001304Y004404D03*
X001304Y004403D03*
X001304Y004402D03*
X001304Y004400D03*
X001304Y004399D03*
X001304Y004398D03*
X001304Y004397D03*
X001304Y004395D03*
X001304Y004394D03*
X001304Y004393D03*
X001304Y004392D03*
X001304Y004390D03*
X001304Y004389D03*
X001304Y004388D03*
X001304Y004387D03*
X001304Y004385D03*
X001304Y004384D03*
X001304Y004383D03*
X001304Y004382D03*
X001304Y004380D03*
X001304Y004379D03*
X001304Y004378D03*
X001304Y004377D03*
X001304Y004375D03*
X001304Y004374D03*
X001304Y004373D03*
X001304Y004372D03*
X001304Y004370D03*
X001304Y004369D03*
X001304Y004368D03*
X001304Y004367D03*
X001304Y004365D03*
X001304Y004364D03*
X001304Y004363D03*
X001304Y004362D03*
X001304Y004360D03*
X001304Y004359D03*
X001304Y004358D03*
X001304Y004357D03*
X001304Y004355D03*
X001304Y004354D03*
X001304Y004353D03*
X001304Y004352D03*
X001304Y004350D03*
X001304Y004349D03*
X001304Y004348D03*
X001304Y004347D03*
X001304Y004345D03*
X001304Y004344D03*
X001304Y004343D03*
X001304Y004342D03*
X001304Y004340D03*
X001304Y004339D03*
X001304Y004338D03*
X001304Y004337D03*
X001304Y004335D03*
X001304Y004334D03*
X001304Y004333D03*
X001304Y004332D03*
X001304Y004330D03*
X001304Y004329D03*
X001304Y004328D03*
X001304Y004327D03*
X001304Y004325D03*
X001304Y004324D03*
X001304Y004323D03*
X001304Y004322D03*
X001304Y004320D03*
X001304Y004319D03*
X001304Y004318D03*
X001304Y004317D03*
X001304Y004315D03*
X001304Y004314D03*
X001304Y004313D03*
X001304Y004312D03*
X001304Y004310D03*
X001304Y004309D03*
X001304Y004308D03*
X001304Y004307D03*
D729*
X001023Y004471D03*
D730*
X001023Y004472D03*
D731*
X001023Y004473D03*
X001023Y004474D03*
X001023Y004474D03*
X001023Y004475D03*
D732*
X001023Y004475D03*
X001023Y004474D03*
X001023Y004473D03*
D733*
X001023Y004476D03*
D734*
X001023Y004476D03*
X001023Y004478D03*
X001023Y004479D03*
D735*
X001023Y004478D03*
X001023Y004477D03*
D736*
X001023Y004479D03*
D737*
X001023Y004479D03*
D738*
X001023Y004480D03*
X001023Y004481D03*
X001023Y004481D03*
D739*
X001023Y004480D03*
D740*
X001023Y004482D03*
D741*
X001023Y004483D03*
D742*
X001023Y004483D03*
D743*
X001023Y004484D03*
X001023Y004484D03*
D744*
X001023Y004484D03*
D745*
X001023Y004485D03*
D746*
X001023Y004485D03*
D747*
X001023Y004486D03*
X001023Y004486D03*
D748*
X001023Y004487D03*
D749*
X001023Y004488D03*
D750*
X001023Y004488D03*
D751*
X001023Y004489D03*
X001023Y004489D03*
D752*
X001023Y004489D03*
D753*
X001023Y004490D03*
X001023Y004491D03*
X001023Y004491D03*
D754*
X001023Y004490D03*
D755*
X001023Y004492D03*
X001023Y004493D03*
D756*
X001023Y004493D03*
X001023Y004494D03*
D757*
X001023Y004494D03*
X001023Y004495D03*
D758*
X001023Y004495D03*
X001023Y004494D03*
D759*
X001023Y004496D03*
X001023Y004496D03*
X001023Y004498D03*
D760*
X001023Y004497D03*
D761*
X001023Y004498D03*
X001023Y004499D03*
D762*
X001023Y004499D03*
X001023Y004499D03*
D763*
X001023Y004500D03*
X001023Y004501D03*
D764*
X001023Y004500D03*
D765*
X001023Y004501D03*
D766*
X001023Y004502D03*
D767*
X001023Y004503D03*
D768*
X001023Y004503D03*
D769*
X001023Y004504D03*
X001023Y004504D03*
D770*
X001023Y004504D03*
D771*
X001023Y004505D03*
D772*
X001023Y004505D03*
D773*
X001023Y004506D03*
D774*
X001023Y004506D03*
D775*
X001023Y004507D03*
D776*
X001023Y004508D03*
D777*
X001023Y004508D03*
D778*
X001023Y004509D03*
X001023Y004509D03*
D779*
X001023Y004509D03*
D780*
X001023Y004510D03*
D781*
X001023Y004510D03*
D782*
X001023Y004511D03*
X001023Y004511D03*
D783*
X001023Y004512D03*
D784*
X001023Y004513D03*
D785*
X001023Y004513D03*
D786*
X001023Y004514D03*
D787*
X001023Y004514D03*
D788*
X001023Y004514D03*
D789*
X001023Y004515D03*
D790*
X001023Y004515D03*
D791*
X001023Y004516D03*
D792*
X001023Y004516D03*
D793*
X001023Y004517D03*
D794*
X001023Y004518D03*
D795*
X001023Y004518D03*
D796*
X001023Y004519D03*
D797*
X001023Y004519D03*
D798*
X001023Y004519D03*
D799*
X001023Y004520D03*
D800*
X001023Y004520D03*
D801*
X001023Y004521D03*
D802*
X001023Y004521D03*
D803*
X001023Y004522D03*
D804*
X001023Y004523D03*
D805*
X001023Y004523D03*
D806*
X001023Y004524D03*
D807*
X001023Y004524D03*
D808*
X001023Y004524D03*
D809*
X001023Y004525D03*
D810*
X001023Y004525D03*
D811*
X001023Y004526D03*
D812*
X001023Y004526D03*
D813*
X001023Y004527D03*
D814*
X001023Y004528D03*
D815*
X001023Y004528D03*
D816*
X001023Y004529D03*
D817*
X001023Y004529D03*
D818*
X001023Y004529D03*
D819*
X001023Y004530D03*
D820*
X001023Y004530D03*
D821*
X001023Y004531D03*
D822*
X001023Y004531D03*
D823*
X001023Y004532D03*
D824*
X001023Y004533D03*
D825*
X001023Y004533D03*
D826*
X001023Y004534D03*
D827*
X001023Y004534D03*
D828*
X001023Y004534D03*
D829*
X001023Y004535D03*
D830*
X001023Y004535D03*
D831*
X001023Y004536D03*
D832*
X001023Y004536D03*
D833*
X001023Y004537D03*
D834*
X001023Y004538D03*
D835*
X001023Y004538D03*
D836*
X001023Y004539D03*
D837*
X001023Y004539D03*
D838*
X001023Y004539D03*
D839*
X001023Y004540D03*
D840*
X001023Y004540D03*
D841*
X001023Y004541D03*
D842*
X001023Y004541D03*
D843*
X001023Y004542D03*
D844*
X001023Y004543D03*
D845*
X001023Y004543D03*
D846*
X001023Y004544D03*
D847*
X001023Y004544D03*
D848*
X001023Y004544D03*
D849*
X001023Y004545D03*
D850*
X001023Y004545D03*
D851*
X001023Y004546D03*
D852*
X001023Y004546D03*
D853*
X001023Y004547D03*
D854*
X001023Y004548D03*
D855*
X001023Y004548D03*
D856*
X001023Y004549D03*
D857*
X001023Y004549D03*
D858*
X001023Y004549D03*
D859*
X001023Y004550D03*
D860*
X001023Y004550D03*
D861*
X001023Y004551D03*
D862*
X001023Y004551D03*
D863*
X001023Y004552D03*
D864*
X001023Y004553D03*
D865*
X001023Y004553D03*
D866*
X001023Y004554D03*
D867*
X001023Y004554D03*
D868*
X001023Y004554D03*
D869*
X001023Y004555D03*
D870*
X001023Y004555D03*
D871*
X001023Y004556D03*
D872*
X001023Y004556D03*
D873*
X001023Y004557D03*
D874*
X001023Y004558D03*
D875*
X001023Y004558D03*
D876*
X001023Y004559D03*
D877*
X001023Y004559D03*
D878*
X001023Y004559D03*
D879*
X001023Y004560D03*
D880*
X001023Y004560D03*
D881*
X001023Y004561D03*
D882*
X001023Y004561D03*
D883*
X001023Y004562D03*
D884*
X001023Y004563D03*
D885*
X001023Y004563D03*
D886*
X001023Y004564D03*
D887*
X001023Y004564D03*
D888*
X001023Y004564D03*
D889*
X001023Y004565D03*
D890*
X001023Y004565D03*
D891*
X001023Y004566D03*
D892*
X001023Y004566D03*
D893*
X001023Y004567D03*
D894*
X001023Y004568D03*
D895*
X001023Y004568D03*
D896*
X001023Y004569D03*
D897*
X001023Y004569D03*
D898*
X001023Y004569D03*
D899*
X001023Y004570D03*
D900*
X001023Y004570D03*
D901*
X001023Y004571D03*
D902*
X001023Y004571D03*
D903*
X001023Y004572D03*
D904*
X001023Y004573D03*
D905*
X001023Y004573D03*
D906*
X001023Y004574D03*
D907*
X001023Y004574D03*
D908*
X001023Y004574D03*
D909*
X001023Y004575D03*
D910*
X001023Y004575D03*
D911*
X001023Y004576D03*
D912*
X001023Y004576D03*
D913*
X001023Y004577D03*
D914*
X001023Y004578D03*
D915*
X001023Y004578D03*
D916*
X001023Y004579D03*
D917*
X001023Y004579D03*
D918*
X001023Y004579D03*
D919*
X001023Y004580D03*
D920*
X001023Y004580D03*
D921*
X001023Y004581D03*
D922*
X001023Y004581D03*
D923*
X001023Y004582D03*
D924*
X001023Y004583D03*
D925*
X001023Y004583D03*
D926*
X001023Y004584D03*
D927*
X001023Y004584D03*
D928*
X001023Y004584D03*
D929*
X001023Y004585D03*
D930*
X001023Y004585D03*
D931*
X001023Y004586D03*
D932*
X001023Y004586D03*
D933*
X001023Y004587D03*
D934*
X001023Y004588D03*
D935*
X001023Y004588D03*
D936*
X001023Y004589D03*
D937*
X001023Y004589D03*
D938*
X001023Y004589D03*
D939*
X001023Y004590D03*
D940*
X001023Y004590D03*
D941*
X001023Y004591D03*
D942*
X001023Y004591D03*
D943*
X001023Y004592D03*
D944*
X001023Y004593D03*
D945*
X001023Y004593D03*
D946*
X001023Y004594D03*
D947*
X001023Y004594D03*
D948*
X001023Y004594D03*
D949*
X001023Y004595D03*
D950*
X001023Y004595D03*
D951*
X001023Y004596D03*
D952*
X001023Y004596D03*
D953*
X001023Y004597D03*
D954*
X001023Y004598D03*
D955*
X001023Y004598D03*
D956*
X001023Y004599D03*
D957*
X001023Y004599D03*
D958*
X001023Y004599D03*
D959*
X001023Y004600D03*
D960*
X001023Y004600D03*
D961*
X001023Y004601D03*
D962*
X001023Y004601D03*
D963*
X001023Y004602D03*
D964*
X001023Y004603D03*
D965*
X001023Y004603D03*
D966*
X001023Y004604D03*
D967*
X001023Y004604D03*
D968*
X001023Y004604D03*
D969*
X001023Y004605D03*
D970*
X001023Y004605D03*
D971*
X001023Y004606D03*
D972*
X001023Y004606D03*
D973*
X001023Y004607D03*
D974*
X001023Y004608D03*
D975*
X001023Y004608D03*
D976*
X001023Y004609D03*
D977*
X001023Y004609D03*
D978*
X001023Y004609D03*
D979*
X001023Y004610D03*
D980*
X001023Y004610D03*
D981*
X001023Y004611D03*
D982*
X001023Y004611D03*
D983*
X001023Y004612D03*
D984*
X001023Y004613D03*
D985*
X001023Y004613D03*
D986*
X001023Y004614D03*
D987*
X001023Y004614D03*
D988*
X001023Y004614D03*
D989*
X001023Y004615D03*
D990*
X001023Y004615D03*
D991*
X001023Y004616D03*
D992*
X001023Y004616D03*
D993*
X001023Y004617D03*
D994*
X001023Y004618D03*
D995*
X001023Y004618D03*
D996*
X001023Y004619D03*
D997*
X001023Y004619D03*
D998*
X001023Y004619D03*
D999*
X001023Y004620D03*
D1000*
X001023Y004620D03*
D1001*
X001023Y004621D03*
D1002*
X001023Y004621D03*
D1003*
X001023Y004622D03*
D1004*
X001023Y004623D03*
D1005*
X001023Y004623D03*
D1006*
X001023Y004624D03*
D1007*
X001023Y004624D03*
D1008*
X001023Y004624D03*
D1009*
X001023Y004625D03*
D1010*
X001023Y004625D03*
D1011*
X001023Y004626D03*
D1012*
X001023Y004626D03*
D1013*
X001023Y004627D03*
D1014*
X001023Y004628D03*
D1015*
X001023Y004628D03*
D1016*
X001023Y004629D03*
D1017*
X001023Y004629D03*
D1018*
X001023Y004629D03*
D1019*
X001023Y004630D03*
D1020*
X001023Y004630D03*
D1021*
X001023Y004631D03*
D1022*
X001023Y004631D03*
D1023*
X001023Y004632D03*
D1024*
X001023Y004633D03*
D1025*
X001023Y004633D03*
D1026*
X001023Y004634D03*
D1027*
X001023Y004634D03*
D1028*
X001023Y004634D03*
D1029*
X001023Y004635D03*
D1030*
X001023Y004635D03*
D1031*
X001023Y004636D03*
D1032*
X001023Y004636D03*
D1033*
X001023Y004637D03*
D1034*
X001023Y004638D03*
D1035*
X001023Y004638D03*
D1036*
X001023Y004639D03*
D1037*
X001023Y004639D03*
D1038*
X001023Y004639D03*
D1039*
X001023Y004640D03*
D1040*
X001023Y004640D03*
D1041*
X001023Y004641D03*
D1042*
X001023Y004641D03*
D1043*
X001023Y004642D03*
D1044*
X001023Y004643D03*
D1045*
X001023Y004643D03*
D1046*
X001023Y004644D03*
D1047*
X001023Y004644D03*
D1048*
X001023Y004644D03*
D1049*
X001023Y004645D03*
D1050*
X001023Y004645D03*
D1051*
X001023Y004646D03*
D1052*
X001023Y004646D03*
D1053*
X001023Y004647D03*
D1054*
X001023Y004648D03*
D1055*
X001023Y004648D03*
D1056*
X001023Y004649D03*
D1057*
X001023Y004649D03*
D1058*
X001023Y004649D03*
D1059*
X001023Y004650D03*
D1060*
X001023Y004650D03*
D1061*
X001023Y004651D03*
D1062*
X001023Y004651D03*
D1063*
X001023Y004652D03*
D1064*
X001023Y004653D03*
D1065*
X001023Y004653D03*
D1066*
X001023Y004654D03*
D1067*
X001023Y004654D03*
D1068*
X001023Y004654D03*
D1069*
X001023Y004655D03*
D1070*
X001023Y004655D03*
D1071*
X001023Y004656D03*
D1072*
X001023Y004656D03*
D1073*
X001022Y004657D03*
D1074*
X001022Y004658D03*
D1075*
X001022Y004658D03*
D1076*
X001022Y004659D03*
D1077*
X001022Y004659D03*
D1078*
X001022Y004659D03*
D1079*
X001022Y004660D03*
D1080*
X001022Y004660D03*
D1081*
X001022Y004661D03*
D1082*
X001022Y004661D03*
D1083*
X000519Y003608D02*
X000520Y003608D01*
X000520Y003608D01*
X000519Y003608D01*
X000519Y003608D01*
X000519Y003607D01*
X000519Y003608D02*
X000519Y003608D01*
X000519Y003608D01*
X000518Y003608D01*
X000518Y003608D01*
X000518Y003608D01*
X000518Y003608D01*
X000518Y003608D01*
X000518Y003608D01*
X000518Y003608D01*
X000518Y003608D01*
X000518Y003608D01*
X000517Y003608D01*
X000517Y003608D01*
X000517Y003608D01*
X000518Y003608D01*
X000517Y003609D02*
X000517Y003608D01*
X000517Y003608D01*
X000517Y003608D01*
X000516Y003608D02*
X000516Y003608D01*
X000516Y003608D01*
X000516Y003608D01*
X000516Y003608D01*
X000516Y003608D01*
X000516Y003608D01*
X000516Y003608D01*
X000516Y003608D01*
X000515Y003608D02*
X000515Y003608D01*
X000515Y003608D01*
X000515Y003608D01*
X000515Y003607D01*
X000515Y003607D01*
X000515Y003607D01*
X000515Y003608D02*
X000515Y003608D01*
X000515Y003608D01*
X000514Y003608D02*
X000514Y003608D01*
X000514Y003608D01*
X000514Y003608D01*
X000514Y003608D01*
X000514Y003608D01*
X000514Y003608D01*
X000514Y003608D01*
X000514Y003608D01*
X000513Y003608D01*
X000513Y003609D02*
X000513Y003609D01*
X000513Y003608D01*
X000512Y003607D02*
X000513Y003607D01*
X000512Y003608D02*
X000512Y003608D01*
X000512Y003608D01*
X000512Y003608D01*
X000512Y003609D02*
X000512Y003609D01*
X000511Y003608D02*
X000511Y003608D01*
X000511Y003608D01*
X000511Y003608D01*
X000511Y003608D01*
X000511Y003608D01*
X000511Y003608D01*
X000511Y003608D01*
X000510Y003608D02*
X000510Y003609D01*
X000509Y003608D02*
X000509Y003608D01*
X000509Y003608D01*
X000509Y003608D01*
X000509Y003608D01*
X000508Y003608D01*
X000508Y003608D01*
X000508Y003608D01*
X000507Y003608D01*
X000507Y003608D01*
X000507Y003608D01*
X000508Y003608D01*
X000508Y003608D01*
X000508Y003608D01*
X000508Y003608D01*
X000509Y003608D01*
X000510Y003608D01*
X000510Y003608D01*
X000509Y003608D01*
X000509Y003608D01*
X000508Y003608D02*
X000507Y003608D01*
X000507Y003608D01*
X000506Y003608D01*
X000506Y003608D01*
X000506Y003608D01*
X000507Y003608D01*
X000507Y003609D02*
X000507Y003609D01*
X000505Y003608D02*
X000505Y003609D01*
X000504Y003608D02*
X000504Y003608D01*
X000504Y003608D01*
X000504Y003608D01*
X000504Y003608D01*
X000504Y003608D01*
X000504Y003608D01*
X000504Y003608D01*
X000504Y003608D01*
X000503Y003608D02*
X000503Y003608D01*
X000503Y003608D01*
X000503Y003608D01*
X000503Y003608D01*
X000503Y003608D01*
X000503Y003608D01*
X000503Y003608D01*
X000502Y003608D01*
X000502Y003608D01*
X000502Y003608D01*
X000502Y003608D01*
X000502Y003608D01*
X000502Y003608D01*
X000501Y003608D01*
X000501Y003608D01*
X000501Y003608D01*
X000501Y003609D01*
X000500Y003608D01*
X000502Y003608D02*
X000502Y003608D01*
X000503Y003608D02*
X000503Y003608D01*
X000502Y003608D01*
M02*
