G75*
%MOIN*%
%OFA0B0*%
%FSLAX24Y24*%
%IPPOS*%
%LPD*%
%AMOC8*
5,1,8,0,0,1.08239X$1,22.5*
%
%ADD10C,0.1266*%
%ADD11C,0.0120*%
%ADD12R,0.0740X0.0740*%
%ADD13C,0.0740*%
%ADD14C,0.0100*%
D10*
X001479Y002560D03*
X004250Y000960D03*
X007021Y002560D03*
X007021Y005760D03*
X004250Y007360D03*
X001479Y005760D03*
D11*
X000361Y002896D02*
X001211Y001424D01*
X001879Y001867D01*
X001984Y001936D01*
X002078Y002022D01*
X002156Y002121D01*
X002217Y002232D01*
X002259Y002351D01*
X002282Y002475D01*
X002284Y002602D01*
X002266Y002727D01*
X002228Y002847D01*
X002172Y002960D01*
X002099Y003062D01*
X002012Y003151D01*
X001912Y003226D01*
X001802Y003285D01*
X001684Y003326D01*
X001561Y003349D01*
X001437Y003353D01*
X001313Y003338D01*
X001192Y003305D01*
X001079Y003253D01*
X000361Y002896D01*
X000367Y002886D02*
X002209Y002886D01*
X002254Y002767D02*
X000435Y002767D01*
X000504Y002649D02*
X002278Y002649D01*
X002283Y002530D02*
X000572Y002530D01*
X000641Y002412D02*
X002270Y002412D01*
X002239Y002293D02*
X000709Y002293D01*
X000778Y002175D02*
X002185Y002175D01*
X002104Y002056D02*
X000846Y002056D01*
X000914Y001938D02*
X001986Y001938D01*
X002108Y001778D02*
X002163Y001815D01*
X002167Y001831D01*
X002183Y001833D01*
X002225Y001885D01*
X002274Y001930D01*
X002275Y001947D01*
X002291Y001952D01*
X002323Y002010D01*
X002364Y002063D01*
X002362Y002079D01*
X002377Y002087D01*
X002400Y002149D01*
X002432Y002208D01*
X002427Y002224D01*
X002441Y002233D01*
X002453Y002299D01*
X002476Y002362D01*
X002468Y002377D01*
X002480Y002389D01*
X002482Y002455D01*
X002494Y002521D01*
X002484Y002535D01*
X002494Y002548D01*
X002485Y002614D01*
X002486Y002681D01*
X002474Y002693D01*
X002482Y002708D01*
X002462Y002771D01*
X002453Y002837D01*
X002439Y002847D01*
X002444Y002863D01*
X002414Y002923D01*
X002394Y002986D01*
X002380Y002994D01*
X002382Y003009D01*
X002343Y003064D01*
X002313Y003124D01*
X002300Y003128D01*
X002300Y003142D01*
X002253Y003190D01*
X002214Y003245D01*
X002200Y003248D01*
X002198Y003261D01*
X002144Y003302D01*
X002097Y003350D01*
X002083Y003350D01*
X002079Y003363D01*
X002020Y003395D01*
X001966Y003436D01*
X001952Y003434D01*
X001946Y003446D01*
X001883Y003468D01*
X001823Y003500D01*
X001810Y003496D01*
X001802Y003508D01*
X001736Y003520D01*
X001672Y003542D01*
X001660Y003537D01*
X001651Y003547D01*
X001583Y003549D01*
X001517Y003561D01*
X001505Y003553D01*
X001495Y003562D01*
X001428Y003554D01*
X001360Y003556D01*
X001350Y003547D01*
X001338Y003553D01*
X001273Y003535D01*
X001206Y003527D01*
X001198Y003516D01*
X001185Y003521D01*
X001124Y003493D01*
X001059Y003475D01*
X001052Y003463D01*
X000993Y003433D01*
X000920Y003401D01*
X000919Y003397D01*
X000750Y003313D01*
X000750Y005007D01*
X000989Y004888D01*
X001044Y004861D01*
X001052Y004844D01*
X001116Y004824D01*
X001175Y004794D01*
X001191Y004800D01*
X001202Y004786D01*
X001268Y004777D01*
X001331Y004757D01*
X001346Y004764D01*
X001358Y004753D01*
X001425Y004754D01*
X001491Y004745D01*
X001504Y004755D01*
X001518Y004745D01*
X001584Y004757D01*
X001650Y004758D01*
X001662Y004770D01*
X001677Y004763D01*
X001740Y004786D01*
X001805Y004798D01*
X001815Y004811D01*
X001831Y004807D01*
X001889Y004839D01*
X001952Y004861D01*
X001959Y004877D01*
X001976Y004875D01*
X002028Y004916D01*
X002087Y004948D01*
X002091Y004964D01*
X002108Y004965D01*
X002153Y005014D01*
X002206Y005055D01*
X002208Y005072D01*
X002224Y005075D01*
X002261Y005131D01*
X002306Y005180D01*
X002305Y005196D01*
X002319Y005202D01*
X002347Y005263D01*
X002384Y005320D01*
X002381Y005333D01*
X002393Y005340D01*
X002412Y005405D01*
X002440Y005466D01*
X002435Y005479D01*
X002446Y005488D01*
X002454Y005555D01*
X002458Y005570D01*
X003439Y005570D01*
X003318Y005449D01*
X003240Y005261D01*
X003240Y005059D01*
X003318Y004871D01*
X003461Y004728D01*
X003624Y004660D01*
X003461Y004592D01*
X003318Y004449D01*
X003240Y004261D01*
X003240Y004059D01*
X003281Y003960D01*
X003171Y003850D01*
X003060Y003739D01*
X003060Y002681D01*
X003260Y002481D01*
X003371Y002370D01*
X006041Y002370D01*
X006039Y002366D01*
X006061Y002303D01*
X006074Y002236D01*
X006085Y002229D01*
X006081Y002216D01*
X006113Y002156D01*
X006135Y002092D01*
X006148Y002086D01*
X006146Y002073D01*
X006186Y002019D01*
X006218Y001959D01*
X006231Y001955D01*
X006231Y001942D01*
X006280Y001895D01*
X006320Y001841D01*
X006334Y001839D01*
X006336Y001825D01*
X006391Y001786D01*
X006439Y001739D01*
X006453Y001739D01*
X006508Y001702D01*
X006572Y001656D01*
X006576Y001657D01*
X006903Y001440D01*
X006460Y001056D01*
X005833Y000694D01*
X005734Y000660D01*
X005289Y000660D01*
X005274Y000900D01*
X004310Y000900D01*
X004310Y001020D01*
X005271Y001020D01*
X005261Y001128D01*
X005237Y001242D01*
X005200Y001351D01*
X005151Y001456D01*
X005090Y001555D01*
X005018Y001646D01*
X004936Y001728D01*
X004910Y001749D01*
X004845Y001800D01*
X004814Y001819D01*
X006345Y001819D01*
X006236Y001938D02*
X004560Y001938D01*
X004532Y001947D02*
X004597Y001925D01*
X004641Y001910D01*
X004642Y001910D01*
X004709Y001878D01*
X004746Y001861D01*
X004746Y001861D01*
X004814Y001819D01*
X004845Y001800D02*
X004845Y001800D01*
X004936Y001728D02*
X004936Y001728D01*
X004936Y001728D01*
X004963Y001701D02*
X006511Y001701D01*
X006621Y001867D02*
X007289Y001424D01*
X008139Y002896D01*
X007421Y003253D01*
X007308Y003310D01*
X007188Y003348D01*
X007063Y003366D01*
X006936Y003363D01*
X006812Y003341D01*
X006693Y003298D01*
X006582Y003237D01*
X006483Y003159D01*
X006398Y003066D01*
X006328Y002960D01*
X006277Y002846D01*
X006243Y002726D01*
X006228Y002602D01*
X006232Y002477D01*
X006255Y002355D01*
X006296Y002237D01*
X006355Y002127D01*
X006430Y002027D01*
X006520Y001940D01*
X006621Y001867D01*
X006694Y001819D02*
X007517Y001819D01*
X007449Y001701D02*
X006872Y001701D01*
X007051Y001582D02*
X007380Y001582D01*
X007312Y001464D02*
X007229Y001464D01*
X006868Y001464D02*
X005147Y001464D01*
X005202Y001345D02*
X006793Y001345D01*
X006656Y001227D02*
X005240Y001227D01*
X005263Y001108D02*
X006519Y001108D01*
X006344Y000990D02*
X004310Y000990D01*
X004310Y001020D02*
X004190Y001020D01*
X004190Y001979D01*
X004184Y001979D01*
X004063Y001962D01*
X003945Y001931D01*
X003831Y001886D01*
X003724Y001829D01*
X003724Y001829D01*
X003624Y001759D01*
X003624Y001759D01*
X003532Y001678D01*
X003532Y001678D01*
X003532Y001678D01*
X003516Y001660D01*
X003451Y001586D01*
X003436Y001565D01*
X003381Y001486D01*
X003367Y001460D01*
X003324Y001379D01*
X003324Y001379D01*
X003311Y001346D01*
X003279Y001265D01*
X003279Y001265D01*
X003268Y001224D01*
X003248Y001147D01*
X003248Y001147D01*
X003241Y001094D01*
X003231Y001026D01*
X003231Y001026D01*
X003231Y001020D01*
X004190Y001020D01*
X004190Y000900D01*
X003226Y000900D01*
X003212Y000660D01*
X002784Y000660D01*
X002345Y000860D01*
X001755Y001281D01*
X001601Y001443D01*
X001989Y001700D01*
X002040Y001734D01*
X002059Y001733D01*
X002108Y001778D01*
X002164Y001819D02*
X003710Y001819D01*
X003831Y001886D02*
X003831Y001886D01*
X003945Y001931D02*
X003945Y001931D01*
X003970Y001938D02*
X002274Y001938D01*
X002359Y002056D02*
X006158Y002056D01*
X006103Y002175D02*
X002414Y002175D01*
X002452Y002293D02*
X006063Y002293D01*
X006277Y002293D02*
X007791Y002293D01*
X007859Y002412D02*
X006244Y002412D01*
X006230Y002530D02*
X007928Y002530D01*
X007996Y002649D02*
X006234Y002649D01*
X006254Y002767D02*
X008065Y002767D01*
X008133Y002886D02*
X006295Y002886D01*
X006357Y003004D02*
X007922Y003004D01*
X007684Y003123D02*
X006450Y003123D01*
X006590Y003241D02*
X007445Y003241D01*
X007106Y003360D02*
X006916Y003360D01*
X006330Y002175D02*
X007722Y002175D01*
X007654Y002056D02*
X006409Y002056D01*
X006523Y001938D02*
X007586Y001938D01*
X006689Y001582D02*
X005069Y001582D01*
X004903Y001435D02*
X004821Y001531D01*
X004725Y001613D01*
X004617Y001679D01*
X004500Y001725D01*
X004376Y001753D01*
X004250Y001760D01*
X004126Y001748D01*
X004005Y001717D01*
X003890Y001668D01*
X003784Y001602D01*
X003689Y001521D01*
X003608Y001426D01*
X003542Y001320D01*
X003493Y001205D01*
X003462Y001084D01*
X003450Y000960D01*
X003400Y000160D01*
X005100Y000160D01*
X003400Y000160D01*
X003407Y000279D02*
X005093Y000279D01*
X005085Y000397D02*
X003415Y000397D01*
X003422Y000516D02*
X005078Y000516D01*
X005070Y000634D02*
X003430Y000634D01*
X003437Y000753D02*
X005063Y000753D01*
X005056Y000871D02*
X003444Y000871D01*
X003453Y000990D02*
X005048Y000990D01*
X005050Y000960D02*
X005043Y001086D01*
X005015Y001210D01*
X004969Y001327D01*
X004903Y001435D01*
X004879Y001464D02*
X003640Y001464D01*
X003557Y001345D02*
X004958Y001345D01*
X005009Y001227D02*
X003502Y001227D01*
X003468Y001108D02*
X005038Y001108D01*
X005050Y000960D02*
X005100Y000160D01*
X005283Y000753D02*
X005934Y000753D01*
X006139Y000871D02*
X005276Y000871D01*
X004762Y001582D02*
X003760Y001582D01*
X003558Y001701D02*
X001989Y001701D01*
X001811Y001582D02*
X003448Y001582D01*
X003451Y001586D02*
X003451Y001586D01*
X003381Y001486D02*
X003381Y001486D01*
X003369Y001464D02*
X001632Y001464D01*
X001694Y001345D02*
X003310Y001345D01*
X003269Y001227D02*
X001831Y001227D01*
X001997Y001108D02*
X003243Y001108D01*
X003224Y000871D02*
X002330Y000871D01*
X002164Y000990D02*
X004190Y000990D01*
X004190Y001108D02*
X004310Y001108D01*
X004310Y001020D02*
X004310Y001981D01*
X004418Y001971D01*
X004418Y001971D01*
X004477Y001959D01*
X004532Y001947D01*
X004532Y001947D01*
X004310Y001938D02*
X004190Y001938D01*
X004184Y001979D02*
X004184Y001979D01*
X004063Y001962D02*
X004063Y001962D01*
X004190Y001819D02*
X004310Y001819D01*
X004310Y001701D02*
X004190Y001701D01*
X004190Y001582D02*
X004310Y001582D01*
X004310Y001464D02*
X004190Y001464D01*
X004190Y001345D02*
X004310Y001345D01*
X004310Y001227D02*
X004190Y001227D01*
X003966Y001701D02*
X004562Y001701D01*
X003330Y002412D02*
X002481Y002412D01*
X002487Y002530D02*
X003211Y002530D01*
X003093Y002649D02*
X002485Y002649D01*
X002463Y002767D02*
X003060Y002767D01*
X003060Y002886D02*
X002433Y002886D01*
X002382Y003004D02*
X003060Y003004D01*
X003060Y003123D02*
X002314Y003123D01*
X002217Y003241D02*
X003060Y003241D01*
X003060Y003360D02*
X002080Y003360D01*
X001884Y003241D02*
X001055Y003241D01*
X000844Y003360D02*
X000750Y003360D01*
X000750Y003478D02*
X001070Y003478D01*
X000750Y003597D02*
X003060Y003597D01*
X003060Y003715D02*
X000750Y003715D01*
X000750Y003834D02*
X003155Y003834D01*
X003273Y003952D02*
X000750Y003952D01*
X000750Y004071D02*
X003240Y004071D01*
X003240Y004189D02*
X000750Y004189D01*
X000750Y004308D02*
X003259Y004308D01*
X003308Y004426D02*
X000750Y004426D01*
X000750Y004545D02*
X003413Y004545D01*
X003617Y004663D02*
X000750Y004663D01*
X000750Y004782D02*
X001234Y004782D01*
X001312Y004972D02*
X001437Y004954D01*
X001564Y004957D01*
X001688Y004979D01*
X001807Y005022D01*
X001918Y005083D01*
X002017Y005161D01*
X002102Y005254D01*
X002172Y005360D01*
X002223Y005474D01*
X002257Y005594D01*
X002272Y005718D01*
X002268Y005843D01*
X002245Y005965D01*
X002204Y006083D01*
X002145Y006193D01*
X002070Y006293D01*
X001980Y006380D01*
X001879Y006453D01*
X001211Y006896D01*
X000361Y005424D01*
X001079Y005067D01*
X001192Y005010D01*
X001312Y004972D01*
X001175Y005019D02*
X001797Y005019D01*
X001986Y005137D02*
X000938Y005137D01*
X000966Y004900D02*
X000750Y004900D01*
X000700Y005256D02*
X002103Y005256D01*
X002178Y005374D02*
X000461Y005374D01*
X000401Y005493D02*
X002229Y005493D01*
X002259Y005611D02*
X000469Y005611D01*
X000537Y005730D02*
X002272Y005730D01*
X002267Y005848D02*
X000606Y005848D01*
X000674Y005967D02*
X002245Y005967D01*
X002203Y006085D02*
X000743Y006085D01*
X000811Y006204D02*
X002137Y006204D01*
X002040Y006322D02*
X000879Y006322D01*
X000948Y006441D02*
X001896Y006441D01*
X001719Y006559D02*
X001016Y006559D01*
X001085Y006678D02*
X001540Y006678D01*
X001362Y006796D02*
X001153Y006796D01*
X002446Y005493D02*
X003361Y005493D01*
X003287Y005374D02*
X002403Y005374D01*
X002344Y005256D02*
X003240Y005256D01*
X003240Y005137D02*
X002266Y005137D01*
X002159Y005019D02*
X003257Y005019D01*
X003306Y004900D02*
X002008Y004900D01*
X001728Y004782D02*
X003407Y004782D01*
X003060Y003478D02*
X001865Y003478D01*
X002039Y003123D02*
X000816Y003123D01*
X000578Y003004D02*
X002140Y003004D01*
X001806Y001819D02*
X000983Y001819D01*
X001051Y001701D02*
X001628Y001701D01*
X001449Y001582D02*
X001120Y001582D01*
X001188Y001464D02*
X001271Y001464D01*
X002581Y000753D02*
X003218Y000753D01*
X006816Y004994D02*
X006939Y004971D01*
X007063Y004967D01*
X007187Y004982D01*
X007308Y005015D01*
X007421Y005067D01*
X008139Y005424D01*
X007289Y006896D01*
X006621Y006453D01*
X006516Y006384D01*
X006422Y006298D01*
X006344Y006199D01*
X006283Y006088D01*
X006241Y005969D01*
X006218Y005845D01*
X006216Y005718D01*
X006234Y005593D01*
X006272Y005473D01*
X006328Y005360D01*
X006401Y005258D01*
X006488Y005169D01*
X006588Y005094D01*
X006698Y005035D01*
X006816Y004994D01*
X006745Y005019D02*
X007314Y005019D01*
X007562Y005137D02*
X006531Y005137D01*
X006404Y005256D02*
X007800Y005256D01*
X008039Y005374D02*
X006321Y005374D01*
X006265Y005493D02*
X008099Y005493D01*
X008031Y005611D02*
X006231Y005611D01*
X006216Y005730D02*
X007963Y005730D01*
X007894Y005848D02*
X006219Y005848D01*
X006240Y005967D02*
X007826Y005967D01*
X007757Y006085D02*
X006282Y006085D01*
X006348Y006204D02*
X007689Y006204D01*
X007621Y006322D02*
X006448Y006322D01*
X006603Y006441D02*
X007552Y006441D01*
X007484Y006559D02*
X006781Y006559D01*
X006960Y006678D02*
X007415Y006678D01*
X007347Y006796D02*
X007138Y006796D01*
X005038Y007236D02*
X005050Y007360D01*
X005100Y008160D01*
X003400Y008160D01*
X003450Y007360D01*
X003457Y007234D01*
X003485Y007110D01*
X003531Y006993D01*
X003597Y006885D01*
X003679Y006789D01*
X003775Y006707D01*
X003883Y006641D01*
X004000Y006595D01*
X004124Y006567D01*
X004250Y006560D01*
X004374Y006572D01*
X004495Y006603D01*
X004610Y006652D01*
X004716Y006718D01*
X004811Y006799D01*
X004892Y006894D01*
X004958Y007000D01*
X005007Y007115D01*
X005038Y007236D01*
X005041Y007270D02*
X003455Y007270D01*
X003448Y007389D02*
X005052Y007389D01*
X005059Y007507D02*
X003441Y007507D01*
X003433Y007626D02*
X005067Y007626D01*
X005074Y007744D02*
X003426Y007744D01*
X003419Y007863D02*
X005081Y007863D01*
X005089Y007981D02*
X003411Y007981D01*
X003404Y008100D02*
X005096Y008100D01*
X005016Y007152D02*
X003475Y007152D01*
X003516Y007033D02*
X004972Y007033D01*
X004905Y006915D02*
X003579Y006915D01*
X003672Y006796D02*
X004807Y006796D01*
X004651Y006678D02*
X003823Y006678D01*
D12*
X004750Y005160D03*
D13*
X004750Y004160D03*
X003750Y004160D03*
X003750Y005160D03*
X003750Y003160D03*
X004750Y003160D03*
D14*
X004750Y004160D02*
X005250Y004160D01*
X005450Y004360D01*
X005450Y005560D01*
X005250Y005760D01*
X001479Y005760D01*
X003250Y003660D02*
X003250Y002760D01*
X003450Y002560D01*
X007021Y002560D01*
X003750Y004160D02*
X003250Y003660D01*
M02*
