G75*
%MOIN*%
%OFA0B0*%
%FSLAX24Y24*%
%IPPOS*%
%LPD*%
%AMOC8*
5,1,8,0,0,1.08239X$1,22.5*
%
%ADD10C,0.0080*%
%ADD11C,0.0120*%
%ADD12C,0.0090*%
%ADD13C,0.0050*%
D10*
X002500Y002800D02*
X002640Y002800D01*
X002710Y002870D01*
X002570Y003010D02*
X002500Y003010D01*
X002430Y002940D01*
X002430Y002870D01*
X002500Y002800D01*
X002500Y003010D02*
X002430Y003080D01*
X002430Y003150D01*
X002500Y003220D01*
X002640Y003220D01*
X002710Y003150D01*
X003250Y002910D02*
X003500Y002660D01*
X004000Y002660D01*
X004250Y002910D01*
X004500Y002660D01*
X005000Y002660D01*
X005250Y002910D01*
X005250Y003410D01*
X005000Y003660D01*
X005250Y003910D01*
X005250Y004410D01*
X005000Y004660D01*
X005250Y004910D01*
X005250Y005410D01*
X005000Y005660D01*
X004500Y005660D01*
X004250Y005410D01*
X004000Y005660D01*
X003500Y005660D01*
X003250Y005410D01*
X003250Y004910D01*
X003500Y004660D01*
X003250Y004410D01*
X003250Y003910D01*
X003500Y003660D01*
X003250Y003410D01*
X003250Y002910D01*
X003750Y003660D02*
X004750Y003660D01*
X005780Y003150D02*
X005780Y002870D01*
X005850Y002800D01*
X005990Y002800D01*
X006060Y002870D01*
X005780Y003150D01*
X005850Y003220D01*
X005990Y003220D01*
X006060Y003150D01*
X006060Y002870D01*
X004750Y004660D02*
X003750Y004660D01*
X002710Y005100D02*
X002430Y005380D01*
X002430Y005450D01*
X002500Y005520D01*
X002640Y005520D01*
X002710Y005450D01*
X002710Y005100D02*
X002430Y005100D01*
X005780Y005100D02*
X006060Y005100D01*
X005920Y005100D02*
X005920Y005520D01*
X006060Y005380D01*
D11*
X005450Y005310D02*
X005450Y004960D01*
D12*
X004285Y006090D02*
X004285Y006430D01*
X004455Y006260D02*
X004115Y006260D01*
X004115Y002060D02*
X004455Y002060D01*
D13*
X002437Y002235D02*
X002437Y002435D01*
X002537Y002535D01*
X002637Y002435D01*
X002637Y002235D01*
X002760Y002285D02*
X002810Y002235D01*
X002910Y002235D01*
X002960Y002285D01*
X002960Y002485D01*
X002910Y002535D01*
X002810Y002535D01*
X002760Y002485D01*
X002637Y002385D02*
X002437Y002385D01*
X003397Y002285D02*
X003397Y002235D01*
X003447Y002235D01*
X003447Y002285D01*
X003397Y002285D01*
X003397Y002235D02*
X003497Y002135D01*
X003619Y002235D02*
X003769Y002235D01*
X003819Y002285D01*
X003769Y002335D01*
X003619Y002335D01*
X003619Y002385D02*
X003619Y002235D01*
X003619Y002385D02*
X003669Y002435D01*
X003769Y002435D01*
X003941Y002385D02*
X003941Y002235D01*
X003941Y002385D02*
X003991Y002435D01*
X004141Y002435D01*
X004141Y002235D01*
X004263Y002335D02*
X004464Y002335D01*
X004464Y002285D02*
X004464Y002385D01*
X004414Y002435D01*
X004313Y002435D01*
X004263Y002385D01*
X004263Y002335D01*
X004313Y002235D02*
X004414Y002235D01*
X004464Y002285D01*
X004586Y002235D02*
X004736Y002235D01*
X004786Y002285D01*
X004786Y002385D01*
X004736Y002435D01*
X004586Y002435D01*
X004586Y002535D02*
X004586Y002235D01*
X004908Y002235D02*
X005058Y002235D01*
X005108Y002285D01*
X005058Y002335D01*
X004908Y002335D01*
X004908Y002385D02*
X004908Y002235D01*
X004908Y002385D02*
X004958Y002435D01*
X005058Y002435D01*
X005230Y002435D02*
X005380Y002435D01*
X005430Y002385D01*
X005380Y002335D01*
X005280Y002335D01*
X005230Y002285D01*
X005280Y002235D01*
X005430Y002235D01*
X005553Y002235D02*
X005553Y002385D01*
X005603Y002435D01*
X005703Y002435D01*
X005703Y002335D02*
X005553Y002335D01*
X005703Y002335D02*
X005753Y002285D01*
X005703Y002235D01*
X005553Y002235D01*
X005875Y002385D02*
X005875Y002485D01*
X005925Y002535D01*
X006075Y002535D01*
X006075Y002235D01*
X006075Y002335D02*
X005925Y002335D01*
X005875Y002385D01*
X006658Y003635D02*
X006608Y003685D01*
X006608Y003785D01*
X006708Y003785D01*
X006608Y003885D02*
X006658Y003935D01*
X006758Y003935D01*
X006808Y003885D01*
X006808Y003685D01*
X006758Y003635D01*
X006658Y003635D01*
X006930Y003685D02*
X006930Y003885D01*
X006980Y003935D01*
X007080Y003935D01*
X007130Y003885D01*
X007130Y003685D01*
X007080Y003635D01*
X006980Y003635D01*
X006930Y003685D01*
X007253Y003635D02*
X007353Y003735D01*
X007303Y003735D02*
X007253Y003785D01*
X007253Y003885D01*
X007303Y003935D01*
X007453Y003935D01*
X007453Y003635D01*
X007453Y003735D02*
X007303Y003735D01*
X007575Y003785D02*
X007625Y003735D01*
X007775Y003735D01*
X007775Y003635D02*
X007775Y003935D01*
X007625Y003935D01*
X007575Y003885D01*
X007575Y003785D01*
X007453Y004285D02*
X007353Y004285D01*
X007403Y004285D02*
X007403Y004585D01*
X007453Y004585D02*
X007353Y004585D01*
X007238Y004585D02*
X007088Y004585D01*
X007038Y004535D01*
X007038Y004435D01*
X007088Y004385D01*
X007238Y004385D01*
X007238Y004285D02*
X007238Y004585D01*
X007138Y004385D02*
X007038Y004285D01*
X006916Y004285D02*
X006715Y004285D01*
X006593Y004285D02*
X006593Y004585D01*
X006393Y004585D01*
X006271Y004585D02*
X006271Y004285D01*
X006071Y004285D01*
X005849Y004285D02*
X005849Y004435D01*
X005749Y004535D01*
X005749Y004585D01*
X005849Y004435D02*
X005949Y004535D01*
X005949Y004585D01*
X006493Y004435D02*
X006593Y004435D01*
X006715Y004585D02*
X006916Y004585D01*
X006916Y004285D01*
X006916Y004435D02*
X006816Y004435D01*
X007575Y004585D02*
X007775Y004585D01*
X007775Y004285D01*
X007775Y004435D02*
X007675Y004435D01*
M02*
