G75*
%MOIN*%
%OFA0B0*%
%FSLAX24Y24*%
%IPPOS*%
%LPD*%
%AMOC8*
5,1,8,0,0,1.08239X$1,22.5*
%
%ADD10R,0.0870X0.0240*%
%ADD11R,0.0433X0.0394*%
D10*
X005458Y003676D03*
X005458Y004176D03*
X005458Y004676D03*
X005458Y005176D03*
X008108Y005176D03*
X008108Y004676D03*
X008108Y004176D03*
X008108Y003676D03*
X013726Y003676D03*
X013726Y004176D03*
X013726Y004676D03*
X013726Y005176D03*
X016376Y005176D03*
X016376Y004676D03*
X016376Y004176D03*
X016376Y003676D03*
X021993Y003676D03*
X021993Y004176D03*
X021993Y004676D03*
X021993Y005176D03*
X024643Y005176D03*
X024643Y004676D03*
X024643Y004176D03*
X024643Y003676D03*
X030261Y003676D03*
X030261Y004176D03*
X030261Y004676D03*
X030261Y005176D03*
X032911Y005176D03*
X032911Y004676D03*
X032911Y004176D03*
X032911Y003676D03*
X032911Y011912D03*
X032911Y012412D03*
X032911Y012912D03*
X032911Y013412D03*
X030261Y013412D03*
X030261Y012912D03*
X030261Y012412D03*
X030261Y011912D03*
X024643Y011912D03*
X024643Y012412D03*
X024643Y012912D03*
X024643Y013412D03*
X021993Y013412D03*
X021993Y012912D03*
X021993Y012412D03*
X021993Y011912D03*
X016376Y011912D03*
X016376Y012412D03*
X016376Y012912D03*
X016376Y013412D03*
X013726Y013412D03*
X013726Y012912D03*
X013726Y012412D03*
X013726Y011912D03*
X008108Y011912D03*
X008108Y012412D03*
X008108Y012912D03*
X008108Y013412D03*
X005458Y013412D03*
X005458Y012912D03*
X005458Y012412D03*
X005458Y011912D03*
X005458Y020148D03*
X005458Y020648D03*
X005458Y021148D03*
X005458Y021648D03*
X008108Y021648D03*
X008108Y021148D03*
X008108Y020648D03*
X008108Y020148D03*
X013726Y020148D03*
X013726Y020648D03*
X013726Y021148D03*
X013726Y021648D03*
X016376Y021648D03*
X016376Y021148D03*
X016376Y020648D03*
X016376Y020148D03*
X021993Y020148D03*
X021993Y020648D03*
X021993Y021148D03*
X021993Y021648D03*
X024643Y021648D03*
X024643Y021148D03*
X024643Y020648D03*
X024643Y020148D03*
X030261Y020148D03*
X030261Y020648D03*
X030261Y021148D03*
X030261Y021648D03*
X032911Y021648D03*
X032911Y021148D03*
X032911Y020648D03*
X032911Y020148D03*
D11*
X031976Y019248D03*
X031306Y019248D03*
X031256Y022398D03*
X031926Y022398D03*
X023658Y022398D03*
X022989Y022398D03*
X023039Y019248D03*
X023708Y019248D03*
X023658Y014162D03*
X022989Y014162D03*
X023039Y011012D03*
X023708Y011012D03*
X023658Y005926D03*
X022989Y005926D03*
X023039Y002776D03*
X023708Y002776D03*
X031306Y002776D03*
X031976Y002776D03*
X031926Y005926D03*
X031256Y005926D03*
X031306Y011012D03*
X031976Y011012D03*
X031926Y014162D03*
X031256Y014162D03*
X015390Y014162D03*
X014721Y014162D03*
X014771Y011012D03*
X015440Y011012D03*
X015390Y005926D03*
X014721Y005926D03*
X014771Y002776D03*
X015440Y002776D03*
X007172Y002776D03*
X006503Y002776D03*
X006453Y005926D03*
X007122Y005926D03*
X007172Y011012D03*
X006503Y011012D03*
X006453Y014162D03*
X007122Y014162D03*
X007172Y019248D03*
X006503Y019248D03*
X006453Y022398D03*
X007122Y022398D03*
X014721Y022398D03*
X015390Y022398D03*
X015440Y019248D03*
X014771Y019248D03*
M02*
